G04 #@! TF.GenerationSoftware,KiCad,Pcbnew,(5.1.2-1)-1*
G04 #@! TF.CreationDate,2019-10-20T00:54:40-06:00*
G04 #@! TF.ProjectId,usb-target,7573622d-7461-4726-9765-742e6b696361,rev?*
G04 #@! TF.SameCoordinates,Original*
G04 #@! TF.FileFunction,Copper,L1,Top*
G04 #@! TF.FilePolarity,Positive*
%FSLAX46Y46*%
G04 Gerber Fmt 4.6, Leading zero omitted, Abs format (unit mm)*
G04 Created by KiCad (PCBNEW (5.1.2-1)-1) date 2019-10-20 00:54:40*
%MOMM*%
%LPD*%
G04 APERTURE LIST*
%ADD10C,0.010000*%
%ADD11C,0.100000*%
%ADD12C,0.600000*%
%ADD13R,8.000000X1.900000*%
%ADD14R,7.500000X2.000000*%
%ADD15C,0.975000*%
%ADD16R,0.900000X0.800000*%
%ADD17C,0.762000*%
%ADD18C,0.508000*%
G04 APERTURE END LIST*
D10*
G36*
X90005192Y-81710152D02*
G01*
X90057167Y-81732391D01*
X90123283Y-81778018D01*
X90208327Y-81850024D01*
X90317085Y-81951403D01*
X90454345Y-82085145D01*
X90519890Y-82149949D01*
X90644017Y-82274394D01*
X90756581Y-82389952D01*
X90852288Y-82490966D01*
X90925841Y-82571782D01*
X90971945Y-82626744D01*
X90984999Y-82646677D01*
X90994311Y-82693114D01*
X90983267Y-82744222D01*
X90947845Y-82806189D01*
X90884022Y-82885201D01*
X90787775Y-82987447D01*
X90717931Y-83057439D01*
X90500200Y-83272778D01*
X90500200Y-84944829D01*
X90500238Y-85277011D01*
X90500422Y-85561929D01*
X90500853Y-85803116D01*
X90501633Y-86004109D01*
X90502863Y-86168443D01*
X90504645Y-86299653D01*
X90507082Y-86401273D01*
X90510274Y-86476840D01*
X90514324Y-86529887D01*
X90519333Y-86563951D01*
X90525403Y-86582567D01*
X90532636Y-86589269D01*
X90541134Y-86587593D01*
X90547377Y-86583690D01*
X90594571Y-86545446D01*
X90667920Y-86479942D01*
X90760751Y-86393704D01*
X90866391Y-86293263D01*
X90978168Y-86185146D01*
X91089408Y-86075882D01*
X91193438Y-85972000D01*
X91283586Y-85880027D01*
X91353179Y-85806494D01*
X91395543Y-85757927D01*
X91404294Y-85745311D01*
X91415873Y-85712080D01*
X91424823Y-85658555D01*
X91431420Y-85579150D01*
X91435944Y-85468277D01*
X91438670Y-85320352D01*
X91439878Y-85129787D01*
X91440000Y-85026606D01*
X91440102Y-84828312D01*
X91440759Y-84674515D01*
X91442493Y-84558915D01*
X91445826Y-84475210D01*
X91451281Y-84417098D01*
X91459381Y-84378277D01*
X91470647Y-84352445D01*
X91485604Y-84333301D01*
X91498559Y-84320495D01*
X91537627Y-84282985D01*
X91604902Y-84218235D01*
X91692040Y-84134283D01*
X91790694Y-84039169D01*
X91826999Y-84004149D01*
X91950622Y-83887049D01*
X92046780Y-83804992D01*
X92123457Y-83756630D01*
X92188633Y-83740617D01*
X92250292Y-83755605D01*
X92316415Y-83800248D01*
X92394984Y-83873198D01*
X92424983Y-83903233D01*
X92511001Y-83994035D01*
X92564817Y-84067087D01*
X92585251Y-84131276D01*
X92571127Y-84195488D01*
X92521265Y-84268609D01*
X92434488Y-84359525D01*
X92354400Y-84435480D01*
X92125800Y-84648792D01*
X92125424Y-85142446D01*
X92123049Y-85385740D01*
X92114090Y-85586976D01*
X92095185Y-85754791D01*
X92062974Y-85897824D01*
X92014096Y-86024715D01*
X91945191Y-86144101D01*
X91852897Y-86264622D01*
X91733853Y-86394916D01*
X91584698Y-86543622D01*
X91577622Y-86550500D01*
X91438968Y-86684248D01*
X91283359Y-86832870D01*
X91126057Y-86981879D01*
X90982322Y-87116787D01*
X90922069Y-87172800D01*
X90783812Y-87304864D01*
X90673260Y-87419009D01*
X90594597Y-87510695D01*
X90553359Y-87572573D01*
X90539477Y-87602630D01*
X90528245Y-87634450D01*
X90519384Y-87673482D01*
X90512614Y-87725174D01*
X90507653Y-87794974D01*
X90504223Y-87888330D01*
X90502043Y-88010691D01*
X90500832Y-88167503D01*
X90500311Y-88364216D01*
X90500200Y-88606277D01*
X90500200Y-89532622D01*
X90618826Y-89585097D01*
X90795002Y-89688729D01*
X90951254Y-89830472D01*
X91077746Y-89999257D01*
X91164645Y-90184014D01*
X91172361Y-90208100D01*
X91197623Y-90335541D01*
X91208807Y-90490520D01*
X91205913Y-90651763D01*
X91188941Y-90797996D01*
X91172361Y-90868500D01*
X91090263Y-91056280D01*
X90966708Y-91227931D01*
X90810586Y-91374080D01*
X90630790Y-91485352D01*
X90557402Y-91516809D01*
X90397465Y-91560241D01*
X90218745Y-91581508D01*
X90042417Y-91579407D01*
X89895614Y-91554447D01*
X89680481Y-91469637D01*
X89495490Y-91345810D01*
X89344411Y-91185651D01*
X89311305Y-91138621D01*
X89235117Y-91013865D01*
X89185479Y-90903515D01*
X89155567Y-90787128D01*
X89138557Y-90644257D01*
X89136362Y-90614500D01*
X89142916Y-90378364D01*
X89194543Y-90160011D01*
X89288692Y-89963868D01*
X89422811Y-89794363D01*
X89594349Y-89655920D01*
X89731850Y-89581428D01*
X89839800Y-89532622D01*
X89839800Y-89295686D01*
X89837990Y-89180084D01*
X89833158Y-89074217D01*
X89826199Y-88995150D01*
X89822970Y-88974603D01*
X89814676Y-88945093D01*
X89799213Y-88912840D01*
X89773086Y-88874162D01*
X89732802Y-88825375D01*
X89674867Y-88762795D01*
X89595789Y-88682740D01*
X89492074Y-88581525D01*
X89360227Y-88455469D01*
X89196757Y-88300886D01*
X89077667Y-88188800D01*
X88908103Y-88028930D01*
X88771334Y-87898467D01*
X88662816Y-87792370D01*
X88578008Y-87705595D01*
X88512370Y-87633102D01*
X88461359Y-87569848D01*
X88420434Y-87510791D01*
X88385054Y-87450889D01*
X88350677Y-87385101D01*
X88346815Y-87377393D01*
X88252300Y-87188287D01*
X88226900Y-85096963D01*
X88030050Y-84886973D01*
X87928845Y-84774358D01*
X87864100Y-84686759D01*
X87834177Y-84615583D01*
X87837442Y-84552237D01*
X87872260Y-84488130D01*
X87936995Y-84414668D01*
X87939648Y-84411959D01*
X88046097Y-84303496D01*
X87990448Y-84244261D01*
X87943136Y-84172620D01*
X87936299Y-84096389D01*
X87971241Y-84009285D01*
X88049265Y-83905024D01*
X88064413Y-83887908D01*
X88137518Y-83810947D01*
X88192035Y-83766685D01*
X88239756Y-83747109D01*
X88276427Y-83743800D01*
X88315161Y-83745607D01*
X88349798Y-83754716D01*
X88387310Y-83776661D01*
X88434669Y-83816973D01*
X88498848Y-83881184D01*
X88586819Y-83974827D01*
X88639790Y-84032123D01*
X88736315Y-84142318D01*
X88796266Y-84227826D01*
X88821877Y-84296742D01*
X88815383Y-84357160D01*
X88779016Y-84417173D01*
X88753950Y-84445726D01*
X88683384Y-84521543D01*
X88645473Y-84573421D01*
X88640349Y-84615744D01*
X88668147Y-84662896D01*
X88728997Y-84729262D01*
X88756838Y-84758338D01*
X88900000Y-84908428D01*
X88900000Y-85939830D01*
X88900310Y-86207768D01*
X88901339Y-86429450D01*
X88903232Y-86609417D01*
X88906136Y-86752210D01*
X88910196Y-86862369D01*
X88915560Y-86944436D01*
X88922373Y-87002950D01*
X88930781Y-87042454D01*
X88935979Y-87057343D01*
X88950202Y-87085147D01*
X88973448Y-87118818D01*
X89009278Y-87161997D01*
X89061255Y-87218324D01*
X89132938Y-87291442D01*
X89227892Y-87384991D01*
X89349676Y-87502612D01*
X89501852Y-87647946D01*
X89667915Y-87805617D01*
X89839800Y-87968534D01*
X89839800Y-84882203D01*
X89839824Y-84421594D01*
X89839922Y-84009092D01*
X89840136Y-83642008D01*
X89840504Y-83317651D01*
X89841067Y-83033327D01*
X89841864Y-82786347D01*
X89842936Y-82574019D01*
X89844322Y-82393652D01*
X89846063Y-82242554D01*
X89848198Y-82118034D01*
X89850768Y-82017400D01*
X89853812Y-81937962D01*
X89857370Y-81877028D01*
X89861483Y-81831906D01*
X89866190Y-81799906D01*
X89871531Y-81778335D01*
X89877546Y-81764503D01*
X89884275Y-81755719D01*
X89886250Y-81753836D01*
X89924520Y-81723867D01*
X89962572Y-81708308D01*
X90005192Y-81710152D01*
X90005192Y-81710152D01*
G37*
X90005192Y-81710152D02*
X90057167Y-81732391D01*
X90123283Y-81778018D01*
X90208327Y-81850024D01*
X90317085Y-81951403D01*
X90454345Y-82085145D01*
X90519890Y-82149949D01*
X90644017Y-82274394D01*
X90756581Y-82389952D01*
X90852288Y-82490966D01*
X90925841Y-82571782D01*
X90971945Y-82626744D01*
X90984999Y-82646677D01*
X90994311Y-82693114D01*
X90983267Y-82744222D01*
X90947845Y-82806189D01*
X90884022Y-82885201D01*
X90787775Y-82987447D01*
X90717931Y-83057439D01*
X90500200Y-83272778D01*
X90500200Y-84944829D01*
X90500238Y-85277011D01*
X90500422Y-85561929D01*
X90500853Y-85803116D01*
X90501633Y-86004109D01*
X90502863Y-86168443D01*
X90504645Y-86299653D01*
X90507082Y-86401273D01*
X90510274Y-86476840D01*
X90514324Y-86529887D01*
X90519333Y-86563951D01*
X90525403Y-86582567D01*
X90532636Y-86589269D01*
X90541134Y-86587593D01*
X90547377Y-86583690D01*
X90594571Y-86545446D01*
X90667920Y-86479942D01*
X90760751Y-86393704D01*
X90866391Y-86293263D01*
X90978168Y-86185146D01*
X91089408Y-86075882D01*
X91193438Y-85972000D01*
X91283586Y-85880027D01*
X91353179Y-85806494D01*
X91395543Y-85757927D01*
X91404294Y-85745311D01*
X91415873Y-85712080D01*
X91424823Y-85658555D01*
X91431420Y-85579150D01*
X91435944Y-85468277D01*
X91438670Y-85320352D01*
X91439878Y-85129787D01*
X91440000Y-85026606D01*
X91440102Y-84828312D01*
X91440759Y-84674515D01*
X91442493Y-84558915D01*
X91445826Y-84475210D01*
X91451281Y-84417098D01*
X91459381Y-84378277D01*
X91470647Y-84352445D01*
X91485604Y-84333301D01*
X91498559Y-84320495D01*
X91537627Y-84282985D01*
X91604902Y-84218235D01*
X91692040Y-84134283D01*
X91790694Y-84039169D01*
X91826999Y-84004149D01*
X91950622Y-83887049D01*
X92046780Y-83804992D01*
X92123457Y-83756630D01*
X92188633Y-83740617D01*
X92250292Y-83755605D01*
X92316415Y-83800248D01*
X92394984Y-83873198D01*
X92424983Y-83903233D01*
X92511001Y-83994035D01*
X92564817Y-84067087D01*
X92585251Y-84131276D01*
X92571127Y-84195488D01*
X92521265Y-84268609D01*
X92434488Y-84359525D01*
X92354400Y-84435480D01*
X92125800Y-84648792D01*
X92125424Y-85142446D01*
X92123049Y-85385740D01*
X92114090Y-85586976D01*
X92095185Y-85754791D01*
X92062974Y-85897824D01*
X92014096Y-86024715D01*
X91945191Y-86144101D01*
X91852897Y-86264622D01*
X91733853Y-86394916D01*
X91584698Y-86543622D01*
X91577622Y-86550500D01*
X91438968Y-86684248D01*
X91283359Y-86832870D01*
X91126057Y-86981879D01*
X90982322Y-87116787D01*
X90922069Y-87172800D01*
X90783812Y-87304864D01*
X90673260Y-87419009D01*
X90594597Y-87510695D01*
X90553359Y-87572573D01*
X90539477Y-87602630D01*
X90528245Y-87634450D01*
X90519384Y-87673482D01*
X90512614Y-87725174D01*
X90507653Y-87794974D01*
X90504223Y-87888330D01*
X90502043Y-88010691D01*
X90500832Y-88167503D01*
X90500311Y-88364216D01*
X90500200Y-88606277D01*
X90500200Y-89532622D01*
X90618826Y-89585097D01*
X90795002Y-89688729D01*
X90951254Y-89830472D01*
X91077746Y-89999257D01*
X91164645Y-90184014D01*
X91172361Y-90208100D01*
X91197623Y-90335541D01*
X91208807Y-90490520D01*
X91205913Y-90651763D01*
X91188941Y-90797996D01*
X91172361Y-90868500D01*
X91090263Y-91056280D01*
X90966708Y-91227931D01*
X90810586Y-91374080D01*
X90630790Y-91485352D01*
X90557402Y-91516809D01*
X90397465Y-91560241D01*
X90218745Y-91581508D01*
X90042417Y-91579407D01*
X89895614Y-91554447D01*
X89680481Y-91469637D01*
X89495490Y-91345810D01*
X89344411Y-91185651D01*
X89311305Y-91138621D01*
X89235117Y-91013865D01*
X89185479Y-90903515D01*
X89155567Y-90787128D01*
X89138557Y-90644257D01*
X89136362Y-90614500D01*
X89142916Y-90378364D01*
X89194543Y-90160011D01*
X89288692Y-89963868D01*
X89422811Y-89794363D01*
X89594349Y-89655920D01*
X89731850Y-89581428D01*
X89839800Y-89532622D01*
X89839800Y-89295686D01*
X89837990Y-89180084D01*
X89833158Y-89074217D01*
X89826199Y-88995150D01*
X89822970Y-88974603D01*
X89814676Y-88945093D01*
X89799213Y-88912840D01*
X89773086Y-88874162D01*
X89732802Y-88825375D01*
X89674867Y-88762795D01*
X89595789Y-88682740D01*
X89492074Y-88581525D01*
X89360227Y-88455469D01*
X89196757Y-88300886D01*
X89077667Y-88188800D01*
X88908103Y-88028930D01*
X88771334Y-87898467D01*
X88662816Y-87792370D01*
X88578008Y-87705595D01*
X88512370Y-87633102D01*
X88461359Y-87569848D01*
X88420434Y-87510791D01*
X88385054Y-87450889D01*
X88350677Y-87385101D01*
X88346815Y-87377393D01*
X88252300Y-87188287D01*
X88226900Y-85096963D01*
X88030050Y-84886973D01*
X87928845Y-84774358D01*
X87864100Y-84686759D01*
X87834177Y-84615583D01*
X87837442Y-84552237D01*
X87872260Y-84488130D01*
X87936995Y-84414668D01*
X87939648Y-84411959D01*
X88046097Y-84303496D01*
X87990448Y-84244261D01*
X87943136Y-84172620D01*
X87936299Y-84096389D01*
X87971241Y-84009285D01*
X88049265Y-83905024D01*
X88064413Y-83887908D01*
X88137518Y-83810947D01*
X88192035Y-83766685D01*
X88239756Y-83747109D01*
X88276427Y-83743800D01*
X88315161Y-83745607D01*
X88349798Y-83754716D01*
X88387310Y-83776661D01*
X88434669Y-83816973D01*
X88498848Y-83881184D01*
X88586819Y-83974827D01*
X88639790Y-84032123D01*
X88736315Y-84142318D01*
X88796266Y-84227826D01*
X88821877Y-84296742D01*
X88815383Y-84357160D01*
X88779016Y-84417173D01*
X88753950Y-84445726D01*
X88683384Y-84521543D01*
X88645473Y-84573421D01*
X88640349Y-84615744D01*
X88668147Y-84662896D01*
X88728997Y-84729262D01*
X88756838Y-84758338D01*
X88900000Y-84908428D01*
X88900000Y-85939830D01*
X88900310Y-86207768D01*
X88901339Y-86429450D01*
X88903232Y-86609417D01*
X88906136Y-86752210D01*
X88910196Y-86862369D01*
X88915560Y-86944436D01*
X88922373Y-87002950D01*
X88930781Y-87042454D01*
X88935979Y-87057343D01*
X88950202Y-87085147D01*
X88973448Y-87118818D01*
X89009278Y-87161997D01*
X89061255Y-87218324D01*
X89132938Y-87291442D01*
X89227892Y-87384991D01*
X89349676Y-87502612D01*
X89501852Y-87647946D01*
X89667915Y-87805617D01*
X89839800Y-87968534D01*
X89839800Y-84882203D01*
X89839824Y-84421594D01*
X89839922Y-84009092D01*
X89840136Y-83642008D01*
X89840504Y-83317651D01*
X89841067Y-83033327D01*
X89841864Y-82786347D01*
X89842936Y-82574019D01*
X89844322Y-82393652D01*
X89846063Y-82242554D01*
X89848198Y-82118034D01*
X89850768Y-82017400D01*
X89853812Y-81937962D01*
X89857370Y-81877028D01*
X89861483Y-81831906D01*
X89866190Y-81799906D01*
X89871531Y-81778335D01*
X89877546Y-81764503D01*
X89884275Y-81755719D01*
X89886250Y-81753836D01*
X89924520Y-81723867D01*
X89962572Y-81708308D01*
X90005192Y-81710152D01*
D11*
G36*
X77328703Y-88727722D02*
G01*
X77343264Y-88729882D01*
X77357543Y-88733459D01*
X77371403Y-88738418D01*
X77384710Y-88744712D01*
X77397336Y-88752280D01*
X77409159Y-88761048D01*
X77420066Y-88770934D01*
X77429952Y-88781841D01*
X77438720Y-88793664D01*
X77446288Y-88806290D01*
X77452582Y-88819597D01*
X77457541Y-88833457D01*
X77461118Y-88847736D01*
X77463278Y-88862297D01*
X77464000Y-88877000D01*
X77464000Y-89177000D01*
X77463278Y-89191703D01*
X77461118Y-89206264D01*
X77457541Y-89220543D01*
X77452582Y-89234403D01*
X77446288Y-89247710D01*
X77438720Y-89260336D01*
X77429952Y-89272159D01*
X77420066Y-89283066D01*
X77409159Y-89292952D01*
X77397336Y-89301720D01*
X77384710Y-89309288D01*
X77371403Y-89315582D01*
X77357543Y-89320541D01*
X77343264Y-89324118D01*
X77328703Y-89326278D01*
X77314000Y-89327000D01*
X76014000Y-89327000D01*
X75999297Y-89326278D01*
X75984736Y-89324118D01*
X75970457Y-89320541D01*
X75956597Y-89315582D01*
X75943290Y-89309288D01*
X75930664Y-89301720D01*
X75918841Y-89292952D01*
X75907934Y-89283066D01*
X75898048Y-89272159D01*
X75889280Y-89260336D01*
X75881712Y-89247710D01*
X75875418Y-89234403D01*
X75870459Y-89220543D01*
X75866882Y-89206264D01*
X75864722Y-89191703D01*
X75864000Y-89177000D01*
X75864000Y-88877000D01*
X75864722Y-88862297D01*
X75866882Y-88847736D01*
X75870459Y-88833457D01*
X75875418Y-88819597D01*
X75881712Y-88806290D01*
X75889280Y-88793664D01*
X75898048Y-88781841D01*
X75907934Y-88770934D01*
X75918841Y-88761048D01*
X75930664Y-88752280D01*
X75943290Y-88744712D01*
X75956597Y-88738418D01*
X75970457Y-88733459D01*
X75984736Y-88729882D01*
X75999297Y-88727722D01*
X76014000Y-88727000D01*
X77314000Y-88727000D01*
X77328703Y-88727722D01*
X77328703Y-88727722D01*
G37*
D12*
X76664000Y-89027000D03*
D11*
G36*
X77328703Y-87457722D02*
G01*
X77343264Y-87459882D01*
X77357543Y-87463459D01*
X77371403Y-87468418D01*
X77384710Y-87474712D01*
X77397336Y-87482280D01*
X77409159Y-87491048D01*
X77420066Y-87500934D01*
X77429952Y-87511841D01*
X77438720Y-87523664D01*
X77446288Y-87536290D01*
X77452582Y-87549597D01*
X77457541Y-87563457D01*
X77461118Y-87577736D01*
X77463278Y-87592297D01*
X77464000Y-87607000D01*
X77464000Y-87907000D01*
X77463278Y-87921703D01*
X77461118Y-87936264D01*
X77457541Y-87950543D01*
X77452582Y-87964403D01*
X77446288Y-87977710D01*
X77438720Y-87990336D01*
X77429952Y-88002159D01*
X77420066Y-88013066D01*
X77409159Y-88022952D01*
X77397336Y-88031720D01*
X77384710Y-88039288D01*
X77371403Y-88045582D01*
X77357543Y-88050541D01*
X77343264Y-88054118D01*
X77328703Y-88056278D01*
X77314000Y-88057000D01*
X76014000Y-88057000D01*
X75999297Y-88056278D01*
X75984736Y-88054118D01*
X75970457Y-88050541D01*
X75956597Y-88045582D01*
X75943290Y-88039288D01*
X75930664Y-88031720D01*
X75918841Y-88022952D01*
X75907934Y-88013066D01*
X75898048Y-88002159D01*
X75889280Y-87990336D01*
X75881712Y-87977710D01*
X75875418Y-87964403D01*
X75870459Y-87950543D01*
X75866882Y-87936264D01*
X75864722Y-87921703D01*
X75864000Y-87907000D01*
X75864000Y-87607000D01*
X75864722Y-87592297D01*
X75866882Y-87577736D01*
X75870459Y-87563457D01*
X75875418Y-87549597D01*
X75881712Y-87536290D01*
X75889280Y-87523664D01*
X75898048Y-87511841D01*
X75907934Y-87500934D01*
X75918841Y-87491048D01*
X75930664Y-87482280D01*
X75943290Y-87474712D01*
X75956597Y-87468418D01*
X75970457Y-87463459D01*
X75984736Y-87459882D01*
X75999297Y-87457722D01*
X76014000Y-87457000D01*
X77314000Y-87457000D01*
X77328703Y-87457722D01*
X77328703Y-87457722D01*
G37*
D12*
X76664000Y-87757000D03*
D11*
G36*
X77328703Y-86187722D02*
G01*
X77343264Y-86189882D01*
X77357543Y-86193459D01*
X77371403Y-86198418D01*
X77384710Y-86204712D01*
X77397336Y-86212280D01*
X77409159Y-86221048D01*
X77420066Y-86230934D01*
X77429952Y-86241841D01*
X77438720Y-86253664D01*
X77446288Y-86266290D01*
X77452582Y-86279597D01*
X77457541Y-86293457D01*
X77461118Y-86307736D01*
X77463278Y-86322297D01*
X77464000Y-86337000D01*
X77464000Y-86637000D01*
X77463278Y-86651703D01*
X77461118Y-86666264D01*
X77457541Y-86680543D01*
X77452582Y-86694403D01*
X77446288Y-86707710D01*
X77438720Y-86720336D01*
X77429952Y-86732159D01*
X77420066Y-86743066D01*
X77409159Y-86752952D01*
X77397336Y-86761720D01*
X77384710Y-86769288D01*
X77371403Y-86775582D01*
X77357543Y-86780541D01*
X77343264Y-86784118D01*
X77328703Y-86786278D01*
X77314000Y-86787000D01*
X76014000Y-86787000D01*
X75999297Y-86786278D01*
X75984736Y-86784118D01*
X75970457Y-86780541D01*
X75956597Y-86775582D01*
X75943290Y-86769288D01*
X75930664Y-86761720D01*
X75918841Y-86752952D01*
X75907934Y-86743066D01*
X75898048Y-86732159D01*
X75889280Y-86720336D01*
X75881712Y-86707710D01*
X75875418Y-86694403D01*
X75870459Y-86680543D01*
X75866882Y-86666264D01*
X75864722Y-86651703D01*
X75864000Y-86637000D01*
X75864000Y-86337000D01*
X75864722Y-86322297D01*
X75866882Y-86307736D01*
X75870459Y-86293457D01*
X75875418Y-86279597D01*
X75881712Y-86266290D01*
X75889280Y-86253664D01*
X75898048Y-86241841D01*
X75907934Y-86230934D01*
X75918841Y-86221048D01*
X75930664Y-86212280D01*
X75943290Y-86204712D01*
X75956597Y-86198418D01*
X75970457Y-86193459D01*
X75984736Y-86189882D01*
X75999297Y-86187722D01*
X76014000Y-86187000D01*
X77314000Y-86187000D01*
X77328703Y-86187722D01*
X77328703Y-86187722D01*
G37*
D12*
X76664000Y-86487000D03*
D11*
G36*
X77328703Y-84917722D02*
G01*
X77343264Y-84919882D01*
X77357543Y-84923459D01*
X77371403Y-84928418D01*
X77384710Y-84934712D01*
X77397336Y-84942280D01*
X77409159Y-84951048D01*
X77420066Y-84960934D01*
X77429952Y-84971841D01*
X77438720Y-84983664D01*
X77446288Y-84996290D01*
X77452582Y-85009597D01*
X77457541Y-85023457D01*
X77461118Y-85037736D01*
X77463278Y-85052297D01*
X77464000Y-85067000D01*
X77464000Y-85367000D01*
X77463278Y-85381703D01*
X77461118Y-85396264D01*
X77457541Y-85410543D01*
X77452582Y-85424403D01*
X77446288Y-85437710D01*
X77438720Y-85450336D01*
X77429952Y-85462159D01*
X77420066Y-85473066D01*
X77409159Y-85482952D01*
X77397336Y-85491720D01*
X77384710Y-85499288D01*
X77371403Y-85505582D01*
X77357543Y-85510541D01*
X77343264Y-85514118D01*
X77328703Y-85516278D01*
X77314000Y-85517000D01*
X76014000Y-85517000D01*
X75999297Y-85516278D01*
X75984736Y-85514118D01*
X75970457Y-85510541D01*
X75956597Y-85505582D01*
X75943290Y-85499288D01*
X75930664Y-85491720D01*
X75918841Y-85482952D01*
X75907934Y-85473066D01*
X75898048Y-85462159D01*
X75889280Y-85450336D01*
X75881712Y-85437710D01*
X75875418Y-85424403D01*
X75870459Y-85410543D01*
X75866882Y-85396264D01*
X75864722Y-85381703D01*
X75864000Y-85367000D01*
X75864000Y-85067000D01*
X75864722Y-85052297D01*
X75866882Y-85037736D01*
X75870459Y-85023457D01*
X75875418Y-85009597D01*
X75881712Y-84996290D01*
X75889280Y-84983664D01*
X75898048Y-84971841D01*
X75907934Y-84960934D01*
X75918841Y-84951048D01*
X75930664Y-84942280D01*
X75943290Y-84934712D01*
X75956597Y-84928418D01*
X75970457Y-84923459D01*
X75984736Y-84919882D01*
X75999297Y-84917722D01*
X76014000Y-84917000D01*
X77314000Y-84917000D01*
X77328703Y-84917722D01*
X77328703Y-84917722D01*
G37*
D12*
X76664000Y-85217000D03*
D11*
G36*
X84528703Y-84917722D02*
G01*
X84543264Y-84919882D01*
X84557543Y-84923459D01*
X84571403Y-84928418D01*
X84584710Y-84934712D01*
X84597336Y-84942280D01*
X84609159Y-84951048D01*
X84620066Y-84960934D01*
X84629952Y-84971841D01*
X84638720Y-84983664D01*
X84646288Y-84996290D01*
X84652582Y-85009597D01*
X84657541Y-85023457D01*
X84661118Y-85037736D01*
X84663278Y-85052297D01*
X84664000Y-85067000D01*
X84664000Y-85367000D01*
X84663278Y-85381703D01*
X84661118Y-85396264D01*
X84657541Y-85410543D01*
X84652582Y-85424403D01*
X84646288Y-85437710D01*
X84638720Y-85450336D01*
X84629952Y-85462159D01*
X84620066Y-85473066D01*
X84609159Y-85482952D01*
X84597336Y-85491720D01*
X84584710Y-85499288D01*
X84571403Y-85505582D01*
X84557543Y-85510541D01*
X84543264Y-85514118D01*
X84528703Y-85516278D01*
X84514000Y-85517000D01*
X83214000Y-85517000D01*
X83199297Y-85516278D01*
X83184736Y-85514118D01*
X83170457Y-85510541D01*
X83156597Y-85505582D01*
X83143290Y-85499288D01*
X83130664Y-85491720D01*
X83118841Y-85482952D01*
X83107934Y-85473066D01*
X83098048Y-85462159D01*
X83089280Y-85450336D01*
X83081712Y-85437710D01*
X83075418Y-85424403D01*
X83070459Y-85410543D01*
X83066882Y-85396264D01*
X83064722Y-85381703D01*
X83064000Y-85367000D01*
X83064000Y-85067000D01*
X83064722Y-85052297D01*
X83066882Y-85037736D01*
X83070459Y-85023457D01*
X83075418Y-85009597D01*
X83081712Y-84996290D01*
X83089280Y-84983664D01*
X83098048Y-84971841D01*
X83107934Y-84960934D01*
X83118841Y-84951048D01*
X83130664Y-84942280D01*
X83143290Y-84934712D01*
X83156597Y-84928418D01*
X83170457Y-84923459D01*
X83184736Y-84919882D01*
X83199297Y-84917722D01*
X83214000Y-84917000D01*
X84514000Y-84917000D01*
X84528703Y-84917722D01*
X84528703Y-84917722D01*
G37*
D12*
X83864000Y-85217000D03*
D11*
G36*
X84528703Y-86187722D02*
G01*
X84543264Y-86189882D01*
X84557543Y-86193459D01*
X84571403Y-86198418D01*
X84584710Y-86204712D01*
X84597336Y-86212280D01*
X84609159Y-86221048D01*
X84620066Y-86230934D01*
X84629952Y-86241841D01*
X84638720Y-86253664D01*
X84646288Y-86266290D01*
X84652582Y-86279597D01*
X84657541Y-86293457D01*
X84661118Y-86307736D01*
X84663278Y-86322297D01*
X84664000Y-86337000D01*
X84664000Y-86637000D01*
X84663278Y-86651703D01*
X84661118Y-86666264D01*
X84657541Y-86680543D01*
X84652582Y-86694403D01*
X84646288Y-86707710D01*
X84638720Y-86720336D01*
X84629952Y-86732159D01*
X84620066Y-86743066D01*
X84609159Y-86752952D01*
X84597336Y-86761720D01*
X84584710Y-86769288D01*
X84571403Y-86775582D01*
X84557543Y-86780541D01*
X84543264Y-86784118D01*
X84528703Y-86786278D01*
X84514000Y-86787000D01*
X83214000Y-86787000D01*
X83199297Y-86786278D01*
X83184736Y-86784118D01*
X83170457Y-86780541D01*
X83156597Y-86775582D01*
X83143290Y-86769288D01*
X83130664Y-86761720D01*
X83118841Y-86752952D01*
X83107934Y-86743066D01*
X83098048Y-86732159D01*
X83089280Y-86720336D01*
X83081712Y-86707710D01*
X83075418Y-86694403D01*
X83070459Y-86680543D01*
X83066882Y-86666264D01*
X83064722Y-86651703D01*
X83064000Y-86637000D01*
X83064000Y-86337000D01*
X83064722Y-86322297D01*
X83066882Y-86307736D01*
X83070459Y-86293457D01*
X83075418Y-86279597D01*
X83081712Y-86266290D01*
X83089280Y-86253664D01*
X83098048Y-86241841D01*
X83107934Y-86230934D01*
X83118841Y-86221048D01*
X83130664Y-86212280D01*
X83143290Y-86204712D01*
X83156597Y-86198418D01*
X83170457Y-86193459D01*
X83184736Y-86189882D01*
X83199297Y-86187722D01*
X83214000Y-86187000D01*
X84514000Y-86187000D01*
X84528703Y-86187722D01*
X84528703Y-86187722D01*
G37*
D12*
X83864000Y-86487000D03*
D11*
G36*
X84528703Y-87457722D02*
G01*
X84543264Y-87459882D01*
X84557543Y-87463459D01*
X84571403Y-87468418D01*
X84584710Y-87474712D01*
X84597336Y-87482280D01*
X84609159Y-87491048D01*
X84620066Y-87500934D01*
X84629952Y-87511841D01*
X84638720Y-87523664D01*
X84646288Y-87536290D01*
X84652582Y-87549597D01*
X84657541Y-87563457D01*
X84661118Y-87577736D01*
X84663278Y-87592297D01*
X84664000Y-87607000D01*
X84664000Y-87907000D01*
X84663278Y-87921703D01*
X84661118Y-87936264D01*
X84657541Y-87950543D01*
X84652582Y-87964403D01*
X84646288Y-87977710D01*
X84638720Y-87990336D01*
X84629952Y-88002159D01*
X84620066Y-88013066D01*
X84609159Y-88022952D01*
X84597336Y-88031720D01*
X84584710Y-88039288D01*
X84571403Y-88045582D01*
X84557543Y-88050541D01*
X84543264Y-88054118D01*
X84528703Y-88056278D01*
X84514000Y-88057000D01*
X83214000Y-88057000D01*
X83199297Y-88056278D01*
X83184736Y-88054118D01*
X83170457Y-88050541D01*
X83156597Y-88045582D01*
X83143290Y-88039288D01*
X83130664Y-88031720D01*
X83118841Y-88022952D01*
X83107934Y-88013066D01*
X83098048Y-88002159D01*
X83089280Y-87990336D01*
X83081712Y-87977710D01*
X83075418Y-87964403D01*
X83070459Y-87950543D01*
X83066882Y-87936264D01*
X83064722Y-87921703D01*
X83064000Y-87907000D01*
X83064000Y-87607000D01*
X83064722Y-87592297D01*
X83066882Y-87577736D01*
X83070459Y-87563457D01*
X83075418Y-87549597D01*
X83081712Y-87536290D01*
X83089280Y-87523664D01*
X83098048Y-87511841D01*
X83107934Y-87500934D01*
X83118841Y-87491048D01*
X83130664Y-87482280D01*
X83143290Y-87474712D01*
X83156597Y-87468418D01*
X83170457Y-87463459D01*
X83184736Y-87459882D01*
X83199297Y-87457722D01*
X83214000Y-87457000D01*
X84514000Y-87457000D01*
X84528703Y-87457722D01*
X84528703Y-87457722D01*
G37*
D12*
X83864000Y-87757000D03*
D11*
G36*
X84528703Y-88727722D02*
G01*
X84543264Y-88729882D01*
X84557543Y-88733459D01*
X84571403Y-88738418D01*
X84584710Y-88744712D01*
X84597336Y-88752280D01*
X84609159Y-88761048D01*
X84620066Y-88770934D01*
X84629952Y-88781841D01*
X84638720Y-88793664D01*
X84646288Y-88806290D01*
X84652582Y-88819597D01*
X84657541Y-88833457D01*
X84661118Y-88847736D01*
X84663278Y-88862297D01*
X84664000Y-88877000D01*
X84664000Y-89177000D01*
X84663278Y-89191703D01*
X84661118Y-89206264D01*
X84657541Y-89220543D01*
X84652582Y-89234403D01*
X84646288Y-89247710D01*
X84638720Y-89260336D01*
X84629952Y-89272159D01*
X84620066Y-89283066D01*
X84609159Y-89292952D01*
X84597336Y-89301720D01*
X84584710Y-89309288D01*
X84571403Y-89315582D01*
X84557543Y-89320541D01*
X84543264Y-89324118D01*
X84528703Y-89326278D01*
X84514000Y-89327000D01*
X83214000Y-89327000D01*
X83199297Y-89326278D01*
X83184736Y-89324118D01*
X83170457Y-89320541D01*
X83156597Y-89315582D01*
X83143290Y-89309288D01*
X83130664Y-89301720D01*
X83118841Y-89292952D01*
X83107934Y-89283066D01*
X83098048Y-89272159D01*
X83089280Y-89260336D01*
X83081712Y-89247710D01*
X83075418Y-89234403D01*
X83070459Y-89220543D01*
X83066882Y-89206264D01*
X83064722Y-89191703D01*
X83064000Y-89177000D01*
X83064000Y-88877000D01*
X83064722Y-88862297D01*
X83066882Y-88847736D01*
X83070459Y-88833457D01*
X83075418Y-88819597D01*
X83081712Y-88806290D01*
X83089280Y-88793664D01*
X83098048Y-88781841D01*
X83107934Y-88770934D01*
X83118841Y-88761048D01*
X83130664Y-88752280D01*
X83143290Y-88744712D01*
X83156597Y-88738418D01*
X83170457Y-88733459D01*
X83184736Y-88729882D01*
X83199297Y-88727722D01*
X83214000Y-88727000D01*
X84514000Y-88727000D01*
X84528703Y-88727722D01*
X84528703Y-88727722D01*
G37*
D12*
X83864000Y-89027000D03*
D13*
X61923000Y-90424000D03*
X61923000Y-82804000D03*
D14*
X62173000Y-85314000D03*
X62173000Y-87914000D03*
D11*
G36*
X85787142Y-82359174D02*
G01*
X85810803Y-82362684D01*
X85834007Y-82368496D01*
X85856529Y-82376554D01*
X85878153Y-82386782D01*
X85898670Y-82399079D01*
X85917883Y-82413329D01*
X85935607Y-82429393D01*
X85951671Y-82447117D01*
X85965921Y-82466330D01*
X85978218Y-82486847D01*
X85988446Y-82508471D01*
X85996504Y-82530993D01*
X86002316Y-82554197D01*
X86005826Y-82577858D01*
X86007000Y-82601750D01*
X86007000Y-83514250D01*
X86005826Y-83538142D01*
X86002316Y-83561803D01*
X85996504Y-83585007D01*
X85988446Y-83607529D01*
X85978218Y-83629153D01*
X85965921Y-83649670D01*
X85951671Y-83668883D01*
X85935607Y-83686607D01*
X85917883Y-83702671D01*
X85898670Y-83716921D01*
X85878153Y-83729218D01*
X85856529Y-83739446D01*
X85834007Y-83747504D01*
X85810803Y-83753316D01*
X85787142Y-83756826D01*
X85763250Y-83758000D01*
X85275750Y-83758000D01*
X85251858Y-83756826D01*
X85228197Y-83753316D01*
X85204993Y-83747504D01*
X85182471Y-83739446D01*
X85160847Y-83729218D01*
X85140330Y-83716921D01*
X85121117Y-83702671D01*
X85103393Y-83686607D01*
X85087329Y-83668883D01*
X85073079Y-83649670D01*
X85060782Y-83629153D01*
X85050554Y-83607529D01*
X85042496Y-83585007D01*
X85036684Y-83561803D01*
X85033174Y-83538142D01*
X85032000Y-83514250D01*
X85032000Y-82601750D01*
X85033174Y-82577858D01*
X85036684Y-82554197D01*
X85042496Y-82530993D01*
X85050554Y-82508471D01*
X85060782Y-82486847D01*
X85073079Y-82466330D01*
X85087329Y-82447117D01*
X85103393Y-82429393D01*
X85121117Y-82413329D01*
X85140330Y-82399079D01*
X85160847Y-82386782D01*
X85182471Y-82376554D01*
X85204993Y-82368496D01*
X85228197Y-82362684D01*
X85251858Y-82359174D01*
X85275750Y-82358000D01*
X85763250Y-82358000D01*
X85787142Y-82359174D01*
X85787142Y-82359174D01*
G37*
D15*
X85519500Y-83058000D03*
D11*
G36*
X83912142Y-82359174D02*
G01*
X83935803Y-82362684D01*
X83959007Y-82368496D01*
X83981529Y-82376554D01*
X84003153Y-82386782D01*
X84023670Y-82399079D01*
X84042883Y-82413329D01*
X84060607Y-82429393D01*
X84076671Y-82447117D01*
X84090921Y-82466330D01*
X84103218Y-82486847D01*
X84113446Y-82508471D01*
X84121504Y-82530993D01*
X84127316Y-82554197D01*
X84130826Y-82577858D01*
X84132000Y-82601750D01*
X84132000Y-83514250D01*
X84130826Y-83538142D01*
X84127316Y-83561803D01*
X84121504Y-83585007D01*
X84113446Y-83607529D01*
X84103218Y-83629153D01*
X84090921Y-83649670D01*
X84076671Y-83668883D01*
X84060607Y-83686607D01*
X84042883Y-83702671D01*
X84023670Y-83716921D01*
X84003153Y-83729218D01*
X83981529Y-83739446D01*
X83959007Y-83747504D01*
X83935803Y-83753316D01*
X83912142Y-83756826D01*
X83888250Y-83758000D01*
X83400750Y-83758000D01*
X83376858Y-83756826D01*
X83353197Y-83753316D01*
X83329993Y-83747504D01*
X83307471Y-83739446D01*
X83285847Y-83729218D01*
X83265330Y-83716921D01*
X83246117Y-83702671D01*
X83228393Y-83686607D01*
X83212329Y-83668883D01*
X83198079Y-83649670D01*
X83185782Y-83629153D01*
X83175554Y-83607529D01*
X83167496Y-83585007D01*
X83161684Y-83561803D01*
X83158174Y-83538142D01*
X83157000Y-83514250D01*
X83157000Y-82601750D01*
X83158174Y-82577858D01*
X83161684Y-82554197D01*
X83167496Y-82530993D01*
X83175554Y-82508471D01*
X83185782Y-82486847D01*
X83198079Y-82466330D01*
X83212329Y-82447117D01*
X83228393Y-82429393D01*
X83246117Y-82413329D01*
X83265330Y-82399079D01*
X83285847Y-82386782D01*
X83307471Y-82376554D01*
X83329993Y-82368496D01*
X83353197Y-82362684D01*
X83376858Y-82359174D01*
X83400750Y-82358000D01*
X83888250Y-82358000D01*
X83912142Y-82359174D01*
X83912142Y-82359174D01*
G37*
D15*
X83644500Y-83058000D03*
D11*
G36*
X80102142Y-82359174D02*
G01*
X80125803Y-82362684D01*
X80149007Y-82368496D01*
X80171529Y-82376554D01*
X80193153Y-82386782D01*
X80213670Y-82399079D01*
X80232883Y-82413329D01*
X80250607Y-82429393D01*
X80266671Y-82447117D01*
X80280921Y-82466330D01*
X80293218Y-82486847D01*
X80303446Y-82508471D01*
X80311504Y-82530993D01*
X80317316Y-82554197D01*
X80320826Y-82577858D01*
X80322000Y-82601750D01*
X80322000Y-83514250D01*
X80320826Y-83538142D01*
X80317316Y-83561803D01*
X80311504Y-83585007D01*
X80303446Y-83607529D01*
X80293218Y-83629153D01*
X80280921Y-83649670D01*
X80266671Y-83668883D01*
X80250607Y-83686607D01*
X80232883Y-83702671D01*
X80213670Y-83716921D01*
X80193153Y-83729218D01*
X80171529Y-83739446D01*
X80149007Y-83747504D01*
X80125803Y-83753316D01*
X80102142Y-83756826D01*
X80078250Y-83758000D01*
X79590750Y-83758000D01*
X79566858Y-83756826D01*
X79543197Y-83753316D01*
X79519993Y-83747504D01*
X79497471Y-83739446D01*
X79475847Y-83729218D01*
X79455330Y-83716921D01*
X79436117Y-83702671D01*
X79418393Y-83686607D01*
X79402329Y-83668883D01*
X79388079Y-83649670D01*
X79375782Y-83629153D01*
X79365554Y-83607529D01*
X79357496Y-83585007D01*
X79351684Y-83561803D01*
X79348174Y-83538142D01*
X79347000Y-83514250D01*
X79347000Y-82601750D01*
X79348174Y-82577858D01*
X79351684Y-82554197D01*
X79357496Y-82530993D01*
X79365554Y-82508471D01*
X79375782Y-82486847D01*
X79388079Y-82466330D01*
X79402329Y-82447117D01*
X79418393Y-82429393D01*
X79436117Y-82413329D01*
X79455330Y-82399079D01*
X79475847Y-82386782D01*
X79497471Y-82376554D01*
X79519993Y-82368496D01*
X79543197Y-82362684D01*
X79566858Y-82359174D01*
X79590750Y-82358000D01*
X80078250Y-82358000D01*
X80102142Y-82359174D01*
X80102142Y-82359174D01*
G37*
D15*
X79834500Y-83058000D03*
D11*
G36*
X81977142Y-82359174D02*
G01*
X82000803Y-82362684D01*
X82024007Y-82368496D01*
X82046529Y-82376554D01*
X82068153Y-82386782D01*
X82088670Y-82399079D01*
X82107883Y-82413329D01*
X82125607Y-82429393D01*
X82141671Y-82447117D01*
X82155921Y-82466330D01*
X82168218Y-82486847D01*
X82178446Y-82508471D01*
X82186504Y-82530993D01*
X82192316Y-82554197D01*
X82195826Y-82577858D01*
X82197000Y-82601750D01*
X82197000Y-83514250D01*
X82195826Y-83538142D01*
X82192316Y-83561803D01*
X82186504Y-83585007D01*
X82178446Y-83607529D01*
X82168218Y-83629153D01*
X82155921Y-83649670D01*
X82141671Y-83668883D01*
X82125607Y-83686607D01*
X82107883Y-83702671D01*
X82088670Y-83716921D01*
X82068153Y-83729218D01*
X82046529Y-83739446D01*
X82024007Y-83747504D01*
X82000803Y-83753316D01*
X81977142Y-83756826D01*
X81953250Y-83758000D01*
X81465750Y-83758000D01*
X81441858Y-83756826D01*
X81418197Y-83753316D01*
X81394993Y-83747504D01*
X81372471Y-83739446D01*
X81350847Y-83729218D01*
X81330330Y-83716921D01*
X81311117Y-83702671D01*
X81293393Y-83686607D01*
X81277329Y-83668883D01*
X81263079Y-83649670D01*
X81250782Y-83629153D01*
X81240554Y-83607529D01*
X81232496Y-83585007D01*
X81226684Y-83561803D01*
X81223174Y-83538142D01*
X81222000Y-83514250D01*
X81222000Y-82601750D01*
X81223174Y-82577858D01*
X81226684Y-82554197D01*
X81232496Y-82530993D01*
X81240554Y-82508471D01*
X81250782Y-82486847D01*
X81263079Y-82466330D01*
X81277329Y-82447117D01*
X81293393Y-82429393D01*
X81311117Y-82413329D01*
X81330330Y-82399079D01*
X81350847Y-82386782D01*
X81372471Y-82376554D01*
X81394993Y-82368496D01*
X81418197Y-82362684D01*
X81441858Y-82359174D01*
X81465750Y-82358000D01*
X81953250Y-82358000D01*
X81977142Y-82359174D01*
X81977142Y-82359174D01*
G37*
D15*
X81709500Y-83058000D03*
D11*
G36*
X86586142Y-89000174D02*
G01*
X86609803Y-89003684D01*
X86633007Y-89009496D01*
X86655529Y-89017554D01*
X86677153Y-89027782D01*
X86697670Y-89040079D01*
X86716883Y-89054329D01*
X86734607Y-89070393D01*
X86750671Y-89088117D01*
X86764921Y-89107330D01*
X86777218Y-89127847D01*
X86787446Y-89149471D01*
X86795504Y-89171993D01*
X86801316Y-89195197D01*
X86804826Y-89218858D01*
X86806000Y-89242750D01*
X86806000Y-89730250D01*
X86804826Y-89754142D01*
X86801316Y-89777803D01*
X86795504Y-89801007D01*
X86787446Y-89823529D01*
X86777218Y-89845153D01*
X86764921Y-89865670D01*
X86750671Y-89884883D01*
X86734607Y-89902607D01*
X86716883Y-89918671D01*
X86697670Y-89932921D01*
X86677153Y-89945218D01*
X86655529Y-89955446D01*
X86633007Y-89963504D01*
X86609803Y-89969316D01*
X86586142Y-89972826D01*
X86562250Y-89974000D01*
X85649750Y-89974000D01*
X85625858Y-89972826D01*
X85602197Y-89969316D01*
X85578993Y-89963504D01*
X85556471Y-89955446D01*
X85534847Y-89945218D01*
X85514330Y-89932921D01*
X85495117Y-89918671D01*
X85477393Y-89902607D01*
X85461329Y-89884883D01*
X85447079Y-89865670D01*
X85434782Y-89845153D01*
X85424554Y-89823529D01*
X85416496Y-89801007D01*
X85410684Y-89777803D01*
X85407174Y-89754142D01*
X85406000Y-89730250D01*
X85406000Y-89242750D01*
X85407174Y-89218858D01*
X85410684Y-89195197D01*
X85416496Y-89171993D01*
X85424554Y-89149471D01*
X85434782Y-89127847D01*
X85447079Y-89107330D01*
X85461329Y-89088117D01*
X85477393Y-89070393D01*
X85495117Y-89054329D01*
X85514330Y-89040079D01*
X85534847Y-89027782D01*
X85556471Y-89017554D01*
X85578993Y-89009496D01*
X85602197Y-89003684D01*
X85625858Y-89000174D01*
X85649750Y-88999000D01*
X86562250Y-88999000D01*
X86586142Y-89000174D01*
X86586142Y-89000174D01*
G37*
D15*
X86106000Y-89486500D03*
D11*
G36*
X86586142Y-90875174D02*
G01*
X86609803Y-90878684D01*
X86633007Y-90884496D01*
X86655529Y-90892554D01*
X86677153Y-90902782D01*
X86697670Y-90915079D01*
X86716883Y-90929329D01*
X86734607Y-90945393D01*
X86750671Y-90963117D01*
X86764921Y-90982330D01*
X86777218Y-91002847D01*
X86787446Y-91024471D01*
X86795504Y-91046993D01*
X86801316Y-91070197D01*
X86804826Y-91093858D01*
X86806000Y-91117750D01*
X86806000Y-91605250D01*
X86804826Y-91629142D01*
X86801316Y-91652803D01*
X86795504Y-91676007D01*
X86787446Y-91698529D01*
X86777218Y-91720153D01*
X86764921Y-91740670D01*
X86750671Y-91759883D01*
X86734607Y-91777607D01*
X86716883Y-91793671D01*
X86697670Y-91807921D01*
X86677153Y-91820218D01*
X86655529Y-91830446D01*
X86633007Y-91838504D01*
X86609803Y-91844316D01*
X86586142Y-91847826D01*
X86562250Y-91849000D01*
X85649750Y-91849000D01*
X85625858Y-91847826D01*
X85602197Y-91844316D01*
X85578993Y-91838504D01*
X85556471Y-91830446D01*
X85534847Y-91820218D01*
X85514330Y-91807921D01*
X85495117Y-91793671D01*
X85477393Y-91777607D01*
X85461329Y-91759883D01*
X85447079Y-91740670D01*
X85434782Y-91720153D01*
X85424554Y-91698529D01*
X85416496Y-91676007D01*
X85410684Y-91652803D01*
X85407174Y-91629142D01*
X85406000Y-91605250D01*
X85406000Y-91117750D01*
X85407174Y-91093858D01*
X85410684Y-91070197D01*
X85416496Y-91046993D01*
X85424554Y-91024471D01*
X85434782Y-91002847D01*
X85447079Y-90982330D01*
X85461329Y-90963117D01*
X85477393Y-90945393D01*
X85495117Y-90929329D01*
X85514330Y-90915079D01*
X85534847Y-90902782D01*
X85556471Y-90892554D01*
X85578993Y-90884496D01*
X85602197Y-90878684D01*
X85625858Y-90875174D01*
X85649750Y-90874000D01*
X86562250Y-90874000D01*
X86586142Y-90875174D01*
X86586142Y-90875174D01*
G37*
D15*
X86106000Y-91361500D03*
D16*
X71072500Y-85664000D03*
X71072500Y-87564000D03*
X73072500Y-86614000D03*
D11*
G36*
X77913142Y-82359174D02*
G01*
X77936803Y-82362684D01*
X77960007Y-82368496D01*
X77982529Y-82376554D01*
X78004153Y-82386782D01*
X78024670Y-82399079D01*
X78043883Y-82413329D01*
X78061607Y-82429393D01*
X78077671Y-82447117D01*
X78091921Y-82466330D01*
X78104218Y-82486847D01*
X78114446Y-82508471D01*
X78122504Y-82530993D01*
X78128316Y-82554197D01*
X78131826Y-82577858D01*
X78133000Y-82601750D01*
X78133000Y-83514250D01*
X78131826Y-83538142D01*
X78128316Y-83561803D01*
X78122504Y-83585007D01*
X78114446Y-83607529D01*
X78104218Y-83629153D01*
X78091921Y-83649670D01*
X78077671Y-83668883D01*
X78061607Y-83686607D01*
X78043883Y-83702671D01*
X78024670Y-83716921D01*
X78004153Y-83729218D01*
X77982529Y-83739446D01*
X77960007Y-83747504D01*
X77936803Y-83753316D01*
X77913142Y-83756826D01*
X77889250Y-83758000D01*
X77401750Y-83758000D01*
X77377858Y-83756826D01*
X77354197Y-83753316D01*
X77330993Y-83747504D01*
X77308471Y-83739446D01*
X77286847Y-83729218D01*
X77266330Y-83716921D01*
X77247117Y-83702671D01*
X77229393Y-83686607D01*
X77213329Y-83668883D01*
X77199079Y-83649670D01*
X77186782Y-83629153D01*
X77176554Y-83607529D01*
X77168496Y-83585007D01*
X77162684Y-83561803D01*
X77159174Y-83538142D01*
X77158000Y-83514250D01*
X77158000Y-82601750D01*
X77159174Y-82577858D01*
X77162684Y-82554197D01*
X77168496Y-82530993D01*
X77176554Y-82508471D01*
X77186782Y-82486847D01*
X77199079Y-82466330D01*
X77213329Y-82447117D01*
X77229393Y-82429393D01*
X77247117Y-82413329D01*
X77266330Y-82399079D01*
X77286847Y-82386782D01*
X77308471Y-82376554D01*
X77330993Y-82368496D01*
X77354197Y-82362684D01*
X77377858Y-82359174D01*
X77401750Y-82358000D01*
X77889250Y-82358000D01*
X77913142Y-82359174D01*
X77913142Y-82359174D01*
G37*
D15*
X77645500Y-83058000D03*
D11*
G36*
X76038142Y-82359174D02*
G01*
X76061803Y-82362684D01*
X76085007Y-82368496D01*
X76107529Y-82376554D01*
X76129153Y-82386782D01*
X76149670Y-82399079D01*
X76168883Y-82413329D01*
X76186607Y-82429393D01*
X76202671Y-82447117D01*
X76216921Y-82466330D01*
X76229218Y-82486847D01*
X76239446Y-82508471D01*
X76247504Y-82530993D01*
X76253316Y-82554197D01*
X76256826Y-82577858D01*
X76258000Y-82601750D01*
X76258000Y-83514250D01*
X76256826Y-83538142D01*
X76253316Y-83561803D01*
X76247504Y-83585007D01*
X76239446Y-83607529D01*
X76229218Y-83629153D01*
X76216921Y-83649670D01*
X76202671Y-83668883D01*
X76186607Y-83686607D01*
X76168883Y-83702671D01*
X76149670Y-83716921D01*
X76129153Y-83729218D01*
X76107529Y-83739446D01*
X76085007Y-83747504D01*
X76061803Y-83753316D01*
X76038142Y-83756826D01*
X76014250Y-83758000D01*
X75526750Y-83758000D01*
X75502858Y-83756826D01*
X75479197Y-83753316D01*
X75455993Y-83747504D01*
X75433471Y-83739446D01*
X75411847Y-83729218D01*
X75391330Y-83716921D01*
X75372117Y-83702671D01*
X75354393Y-83686607D01*
X75338329Y-83668883D01*
X75324079Y-83649670D01*
X75311782Y-83629153D01*
X75301554Y-83607529D01*
X75293496Y-83585007D01*
X75287684Y-83561803D01*
X75284174Y-83538142D01*
X75283000Y-83514250D01*
X75283000Y-82601750D01*
X75284174Y-82577858D01*
X75287684Y-82554197D01*
X75293496Y-82530993D01*
X75301554Y-82508471D01*
X75311782Y-82486847D01*
X75324079Y-82466330D01*
X75338329Y-82447117D01*
X75354393Y-82429393D01*
X75372117Y-82413329D01*
X75391330Y-82399079D01*
X75411847Y-82386782D01*
X75433471Y-82376554D01*
X75455993Y-82368496D01*
X75479197Y-82362684D01*
X75502858Y-82359174D01*
X75526750Y-82358000D01*
X76014250Y-82358000D01*
X76038142Y-82359174D01*
X76038142Y-82359174D01*
G37*
D15*
X75770500Y-83058000D03*
D11*
G36*
X86586142Y-84936174D02*
G01*
X86609803Y-84939684D01*
X86633007Y-84945496D01*
X86655529Y-84953554D01*
X86677153Y-84963782D01*
X86697670Y-84976079D01*
X86716883Y-84990329D01*
X86734607Y-85006393D01*
X86750671Y-85024117D01*
X86764921Y-85043330D01*
X86777218Y-85063847D01*
X86787446Y-85085471D01*
X86795504Y-85107993D01*
X86801316Y-85131197D01*
X86804826Y-85154858D01*
X86806000Y-85178750D01*
X86806000Y-85666250D01*
X86804826Y-85690142D01*
X86801316Y-85713803D01*
X86795504Y-85737007D01*
X86787446Y-85759529D01*
X86777218Y-85781153D01*
X86764921Y-85801670D01*
X86750671Y-85820883D01*
X86734607Y-85838607D01*
X86716883Y-85854671D01*
X86697670Y-85868921D01*
X86677153Y-85881218D01*
X86655529Y-85891446D01*
X86633007Y-85899504D01*
X86609803Y-85905316D01*
X86586142Y-85908826D01*
X86562250Y-85910000D01*
X85649750Y-85910000D01*
X85625858Y-85908826D01*
X85602197Y-85905316D01*
X85578993Y-85899504D01*
X85556471Y-85891446D01*
X85534847Y-85881218D01*
X85514330Y-85868921D01*
X85495117Y-85854671D01*
X85477393Y-85838607D01*
X85461329Y-85820883D01*
X85447079Y-85801670D01*
X85434782Y-85781153D01*
X85424554Y-85759529D01*
X85416496Y-85737007D01*
X85410684Y-85713803D01*
X85407174Y-85690142D01*
X85406000Y-85666250D01*
X85406000Y-85178750D01*
X85407174Y-85154858D01*
X85410684Y-85131197D01*
X85416496Y-85107993D01*
X85424554Y-85085471D01*
X85434782Y-85063847D01*
X85447079Y-85043330D01*
X85461329Y-85024117D01*
X85477393Y-85006393D01*
X85495117Y-84990329D01*
X85514330Y-84976079D01*
X85534847Y-84963782D01*
X85556471Y-84953554D01*
X85578993Y-84945496D01*
X85602197Y-84939684D01*
X85625858Y-84936174D01*
X85649750Y-84935000D01*
X86562250Y-84935000D01*
X86586142Y-84936174D01*
X86586142Y-84936174D01*
G37*
D15*
X86106000Y-85422500D03*
D11*
G36*
X86586142Y-86811174D02*
G01*
X86609803Y-86814684D01*
X86633007Y-86820496D01*
X86655529Y-86828554D01*
X86677153Y-86838782D01*
X86697670Y-86851079D01*
X86716883Y-86865329D01*
X86734607Y-86881393D01*
X86750671Y-86899117D01*
X86764921Y-86918330D01*
X86777218Y-86938847D01*
X86787446Y-86960471D01*
X86795504Y-86982993D01*
X86801316Y-87006197D01*
X86804826Y-87029858D01*
X86806000Y-87053750D01*
X86806000Y-87541250D01*
X86804826Y-87565142D01*
X86801316Y-87588803D01*
X86795504Y-87612007D01*
X86787446Y-87634529D01*
X86777218Y-87656153D01*
X86764921Y-87676670D01*
X86750671Y-87695883D01*
X86734607Y-87713607D01*
X86716883Y-87729671D01*
X86697670Y-87743921D01*
X86677153Y-87756218D01*
X86655529Y-87766446D01*
X86633007Y-87774504D01*
X86609803Y-87780316D01*
X86586142Y-87783826D01*
X86562250Y-87785000D01*
X85649750Y-87785000D01*
X85625858Y-87783826D01*
X85602197Y-87780316D01*
X85578993Y-87774504D01*
X85556471Y-87766446D01*
X85534847Y-87756218D01*
X85514330Y-87743921D01*
X85495117Y-87729671D01*
X85477393Y-87713607D01*
X85461329Y-87695883D01*
X85447079Y-87676670D01*
X85434782Y-87656153D01*
X85424554Y-87634529D01*
X85416496Y-87612007D01*
X85410684Y-87588803D01*
X85407174Y-87565142D01*
X85406000Y-87541250D01*
X85406000Y-87053750D01*
X85407174Y-87029858D01*
X85410684Y-87006197D01*
X85416496Y-86982993D01*
X85424554Y-86960471D01*
X85434782Y-86938847D01*
X85447079Y-86918330D01*
X85461329Y-86899117D01*
X85477393Y-86881393D01*
X85495117Y-86865329D01*
X85514330Y-86851079D01*
X85534847Y-86838782D01*
X85556471Y-86828554D01*
X85578993Y-86820496D01*
X85602197Y-86814684D01*
X85625858Y-86811174D01*
X85649750Y-86810000D01*
X86562250Y-86810000D01*
X86586142Y-86811174D01*
X86586142Y-86811174D01*
G37*
D15*
X86106000Y-87297500D03*
D11*
G36*
X72228142Y-82359174D02*
G01*
X72251803Y-82362684D01*
X72275007Y-82368496D01*
X72297529Y-82376554D01*
X72319153Y-82386782D01*
X72339670Y-82399079D01*
X72358883Y-82413329D01*
X72376607Y-82429393D01*
X72392671Y-82447117D01*
X72406921Y-82466330D01*
X72419218Y-82486847D01*
X72429446Y-82508471D01*
X72437504Y-82530993D01*
X72443316Y-82554197D01*
X72446826Y-82577858D01*
X72448000Y-82601750D01*
X72448000Y-83514250D01*
X72446826Y-83538142D01*
X72443316Y-83561803D01*
X72437504Y-83585007D01*
X72429446Y-83607529D01*
X72419218Y-83629153D01*
X72406921Y-83649670D01*
X72392671Y-83668883D01*
X72376607Y-83686607D01*
X72358883Y-83702671D01*
X72339670Y-83716921D01*
X72319153Y-83729218D01*
X72297529Y-83739446D01*
X72275007Y-83747504D01*
X72251803Y-83753316D01*
X72228142Y-83756826D01*
X72204250Y-83758000D01*
X71716750Y-83758000D01*
X71692858Y-83756826D01*
X71669197Y-83753316D01*
X71645993Y-83747504D01*
X71623471Y-83739446D01*
X71601847Y-83729218D01*
X71581330Y-83716921D01*
X71562117Y-83702671D01*
X71544393Y-83686607D01*
X71528329Y-83668883D01*
X71514079Y-83649670D01*
X71501782Y-83629153D01*
X71491554Y-83607529D01*
X71483496Y-83585007D01*
X71477684Y-83561803D01*
X71474174Y-83538142D01*
X71473000Y-83514250D01*
X71473000Y-82601750D01*
X71474174Y-82577858D01*
X71477684Y-82554197D01*
X71483496Y-82530993D01*
X71491554Y-82508471D01*
X71501782Y-82486847D01*
X71514079Y-82466330D01*
X71528329Y-82447117D01*
X71544393Y-82429393D01*
X71562117Y-82413329D01*
X71581330Y-82399079D01*
X71601847Y-82386782D01*
X71623471Y-82376554D01*
X71645993Y-82368496D01*
X71669197Y-82362684D01*
X71692858Y-82359174D01*
X71716750Y-82358000D01*
X72204250Y-82358000D01*
X72228142Y-82359174D01*
X72228142Y-82359174D01*
G37*
D15*
X71960500Y-83058000D03*
D11*
G36*
X74103142Y-82359174D02*
G01*
X74126803Y-82362684D01*
X74150007Y-82368496D01*
X74172529Y-82376554D01*
X74194153Y-82386782D01*
X74214670Y-82399079D01*
X74233883Y-82413329D01*
X74251607Y-82429393D01*
X74267671Y-82447117D01*
X74281921Y-82466330D01*
X74294218Y-82486847D01*
X74304446Y-82508471D01*
X74312504Y-82530993D01*
X74318316Y-82554197D01*
X74321826Y-82577858D01*
X74323000Y-82601750D01*
X74323000Y-83514250D01*
X74321826Y-83538142D01*
X74318316Y-83561803D01*
X74312504Y-83585007D01*
X74304446Y-83607529D01*
X74294218Y-83629153D01*
X74281921Y-83649670D01*
X74267671Y-83668883D01*
X74251607Y-83686607D01*
X74233883Y-83702671D01*
X74214670Y-83716921D01*
X74194153Y-83729218D01*
X74172529Y-83739446D01*
X74150007Y-83747504D01*
X74126803Y-83753316D01*
X74103142Y-83756826D01*
X74079250Y-83758000D01*
X73591750Y-83758000D01*
X73567858Y-83756826D01*
X73544197Y-83753316D01*
X73520993Y-83747504D01*
X73498471Y-83739446D01*
X73476847Y-83729218D01*
X73456330Y-83716921D01*
X73437117Y-83702671D01*
X73419393Y-83686607D01*
X73403329Y-83668883D01*
X73389079Y-83649670D01*
X73376782Y-83629153D01*
X73366554Y-83607529D01*
X73358496Y-83585007D01*
X73352684Y-83561803D01*
X73349174Y-83538142D01*
X73348000Y-83514250D01*
X73348000Y-82601750D01*
X73349174Y-82577858D01*
X73352684Y-82554197D01*
X73358496Y-82530993D01*
X73366554Y-82508471D01*
X73376782Y-82486847D01*
X73389079Y-82466330D01*
X73403329Y-82447117D01*
X73419393Y-82429393D01*
X73437117Y-82413329D01*
X73456330Y-82399079D01*
X73476847Y-82386782D01*
X73498471Y-82376554D01*
X73520993Y-82368496D01*
X73544197Y-82362684D01*
X73567858Y-82359174D01*
X73591750Y-82358000D01*
X74079250Y-82358000D01*
X74103142Y-82359174D01*
X74103142Y-82359174D01*
G37*
D15*
X73835500Y-83058000D03*
D11*
G36*
X74103142Y-89471174D02*
G01*
X74126803Y-89474684D01*
X74150007Y-89480496D01*
X74172529Y-89488554D01*
X74194153Y-89498782D01*
X74214670Y-89511079D01*
X74233883Y-89525329D01*
X74251607Y-89541393D01*
X74267671Y-89559117D01*
X74281921Y-89578330D01*
X74294218Y-89598847D01*
X74304446Y-89620471D01*
X74312504Y-89642993D01*
X74318316Y-89666197D01*
X74321826Y-89689858D01*
X74323000Y-89713750D01*
X74323000Y-90626250D01*
X74321826Y-90650142D01*
X74318316Y-90673803D01*
X74312504Y-90697007D01*
X74304446Y-90719529D01*
X74294218Y-90741153D01*
X74281921Y-90761670D01*
X74267671Y-90780883D01*
X74251607Y-90798607D01*
X74233883Y-90814671D01*
X74214670Y-90828921D01*
X74194153Y-90841218D01*
X74172529Y-90851446D01*
X74150007Y-90859504D01*
X74126803Y-90865316D01*
X74103142Y-90868826D01*
X74079250Y-90870000D01*
X73591750Y-90870000D01*
X73567858Y-90868826D01*
X73544197Y-90865316D01*
X73520993Y-90859504D01*
X73498471Y-90851446D01*
X73476847Y-90841218D01*
X73456330Y-90828921D01*
X73437117Y-90814671D01*
X73419393Y-90798607D01*
X73403329Y-90780883D01*
X73389079Y-90761670D01*
X73376782Y-90741153D01*
X73366554Y-90719529D01*
X73358496Y-90697007D01*
X73352684Y-90673803D01*
X73349174Y-90650142D01*
X73348000Y-90626250D01*
X73348000Y-89713750D01*
X73349174Y-89689858D01*
X73352684Y-89666197D01*
X73358496Y-89642993D01*
X73366554Y-89620471D01*
X73376782Y-89598847D01*
X73389079Y-89578330D01*
X73403329Y-89559117D01*
X73419393Y-89541393D01*
X73437117Y-89525329D01*
X73456330Y-89511079D01*
X73476847Y-89498782D01*
X73498471Y-89488554D01*
X73520993Y-89480496D01*
X73544197Y-89474684D01*
X73567858Y-89471174D01*
X73591750Y-89470000D01*
X74079250Y-89470000D01*
X74103142Y-89471174D01*
X74103142Y-89471174D01*
G37*
D15*
X73835500Y-90170000D03*
D11*
G36*
X72228142Y-89471174D02*
G01*
X72251803Y-89474684D01*
X72275007Y-89480496D01*
X72297529Y-89488554D01*
X72319153Y-89498782D01*
X72339670Y-89511079D01*
X72358883Y-89525329D01*
X72376607Y-89541393D01*
X72392671Y-89559117D01*
X72406921Y-89578330D01*
X72419218Y-89598847D01*
X72429446Y-89620471D01*
X72437504Y-89642993D01*
X72443316Y-89666197D01*
X72446826Y-89689858D01*
X72448000Y-89713750D01*
X72448000Y-90626250D01*
X72446826Y-90650142D01*
X72443316Y-90673803D01*
X72437504Y-90697007D01*
X72429446Y-90719529D01*
X72419218Y-90741153D01*
X72406921Y-90761670D01*
X72392671Y-90780883D01*
X72376607Y-90798607D01*
X72358883Y-90814671D01*
X72339670Y-90828921D01*
X72319153Y-90841218D01*
X72297529Y-90851446D01*
X72275007Y-90859504D01*
X72251803Y-90865316D01*
X72228142Y-90868826D01*
X72204250Y-90870000D01*
X71716750Y-90870000D01*
X71692858Y-90868826D01*
X71669197Y-90865316D01*
X71645993Y-90859504D01*
X71623471Y-90851446D01*
X71601847Y-90841218D01*
X71581330Y-90828921D01*
X71562117Y-90814671D01*
X71544393Y-90798607D01*
X71528329Y-90780883D01*
X71514079Y-90761670D01*
X71501782Y-90741153D01*
X71491554Y-90719529D01*
X71483496Y-90697007D01*
X71477684Y-90673803D01*
X71474174Y-90650142D01*
X71473000Y-90626250D01*
X71473000Y-89713750D01*
X71474174Y-89689858D01*
X71477684Y-89666197D01*
X71483496Y-89642993D01*
X71491554Y-89620471D01*
X71501782Y-89598847D01*
X71514079Y-89578330D01*
X71528329Y-89559117D01*
X71544393Y-89541393D01*
X71562117Y-89525329D01*
X71581330Y-89511079D01*
X71601847Y-89498782D01*
X71623471Y-89488554D01*
X71645993Y-89480496D01*
X71669197Y-89474684D01*
X71692858Y-89471174D01*
X71716750Y-89470000D01*
X72204250Y-89470000D01*
X72228142Y-89471174D01*
X72228142Y-89471174D01*
G37*
D15*
X71960500Y-90170000D03*
D11*
G36*
X81245142Y-90614174D02*
G01*
X81268803Y-90617684D01*
X81292007Y-90623496D01*
X81314529Y-90631554D01*
X81336153Y-90641782D01*
X81356670Y-90654079D01*
X81375883Y-90668329D01*
X81393607Y-90684393D01*
X81409671Y-90702117D01*
X81423921Y-90721330D01*
X81436218Y-90741847D01*
X81446446Y-90763471D01*
X81454504Y-90785993D01*
X81460316Y-90809197D01*
X81463826Y-90832858D01*
X81465000Y-90856750D01*
X81465000Y-91769250D01*
X81463826Y-91793142D01*
X81460316Y-91816803D01*
X81454504Y-91840007D01*
X81446446Y-91862529D01*
X81436218Y-91884153D01*
X81423921Y-91904670D01*
X81409671Y-91923883D01*
X81393607Y-91941607D01*
X81375883Y-91957671D01*
X81356670Y-91971921D01*
X81336153Y-91984218D01*
X81314529Y-91994446D01*
X81292007Y-92002504D01*
X81268803Y-92008316D01*
X81245142Y-92011826D01*
X81221250Y-92013000D01*
X80733750Y-92013000D01*
X80709858Y-92011826D01*
X80686197Y-92008316D01*
X80662993Y-92002504D01*
X80640471Y-91994446D01*
X80618847Y-91984218D01*
X80598330Y-91971921D01*
X80579117Y-91957671D01*
X80561393Y-91941607D01*
X80545329Y-91923883D01*
X80531079Y-91904670D01*
X80518782Y-91884153D01*
X80508554Y-91862529D01*
X80500496Y-91840007D01*
X80494684Y-91816803D01*
X80491174Y-91793142D01*
X80490000Y-91769250D01*
X80490000Y-90856750D01*
X80491174Y-90832858D01*
X80494684Y-90809197D01*
X80500496Y-90785993D01*
X80508554Y-90763471D01*
X80518782Y-90741847D01*
X80531079Y-90721330D01*
X80545329Y-90702117D01*
X80561393Y-90684393D01*
X80579117Y-90668329D01*
X80598330Y-90654079D01*
X80618847Y-90641782D01*
X80640471Y-90631554D01*
X80662993Y-90623496D01*
X80686197Y-90617684D01*
X80709858Y-90614174D01*
X80733750Y-90613000D01*
X81221250Y-90613000D01*
X81245142Y-90614174D01*
X81245142Y-90614174D01*
G37*
D15*
X80977500Y-91313000D03*
D11*
G36*
X83120142Y-90614174D02*
G01*
X83143803Y-90617684D01*
X83167007Y-90623496D01*
X83189529Y-90631554D01*
X83211153Y-90641782D01*
X83231670Y-90654079D01*
X83250883Y-90668329D01*
X83268607Y-90684393D01*
X83284671Y-90702117D01*
X83298921Y-90721330D01*
X83311218Y-90741847D01*
X83321446Y-90763471D01*
X83329504Y-90785993D01*
X83335316Y-90809197D01*
X83338826Y-90832858D01*
X83340000Y-90856750D01*
X83340000Y-91769250D01*
X83338826Y-91793142D01*
X83335316Y-91816803D01*
X83329504Y-91840007D01*
X83321446Y-91862529D01*
X83311218Y-91884153D01*
X83298921Y-91904670D01*
X83284671Y-91923883D01*
X83268607Y-91941607D01*
X83250883Y-91957671D01*
X83231670Y-91971921D01*
X83211153Y-91984218D01*
X83189529Y-91994446D01*
X83167007Y-92002504D01*
X83143803Y-92008316D01*
X83120142Y-92011826D01*
X83096250Y-92013000D01*
X82608750Y-92013000D01*
X82584858Y-92011826D01*
X82561197Y-92008316D01*
X82537993Y-92002504D01*
X82515471Y-91994446D01*
X82493847Y-91984218D01*
X82473330Y-91971921D01*
X82454117Y-91957671D01*
X82436393Y-91941607D01*
X82420329Y-91923883D01*
X82406079Y-91904670D01*
X82393782Y-91884153D01*
X82383554Y-91862529D01*
X82375496Y-91840007D01*
X82369684Y-91816803D01*
X82366174Y-91793142D01*
X82365000Y-91769250D01*
X82365000Y-90856750D01*
X82366174Y-90832858D01*
X82369684Y-90809197D01*
X82375496Y-90785993D01*
X82383554Y-90763471D01*
X82393782Y-90741847D01*
X82406079Y-90721330D01*
X82420329Y-90702117D01*
X82436393Y-90684393D01*
X82454117Y-90668329D01*
X82473330Y-90654079D01*
X82493847Y-90641782D01*
X82515471Y-90631554D01*
X82537993Y-90623496D01*
X82561197Y-90617684D01*
X82584858Y-90614174D01*
X82608750Y-90613000D01*
X83096250Y-90613000D01*
X83120142Y-90614174D01*
X83120142Y-90614174D01*
G37*
D15*
X82852500Y-91313000D03*
D17*
X84376500Y-91361500D03*
X79375000Y-91313000D03*
X69596000Y-82804000D03*
X73914000Y-86614000D03*
X81280000Y-86614000D03*
D18*
X67385010Y-91378010D02*
X75437990Y-91378010D01*
X66431000Y-90424000D02*
X67385010Y-91378010D01*
X61923000Y-90424000D02*
X66431000Y-90424000D01*
X84963263Y-82501763D02*
X85519500Y-83058000D01*
X84311490Y-81849990D02*
X84963263Y-82501763D01*
X81042510Y-81849990D02*
X84311490Y-81849990D01*
X79834500Y-83058000D02*
X81042510Y-81849990D01*
X77789000Y-89027000D02*
X76550000Y-90266000D01*
X75437990Y-91378010D02*
X76550000Y-90266000D01*
X86106000Y-91361500D02*
X84376500Y-91361500D01*
X79834500Y-83858000D02*
X79834500Y-83058000D01*
X79834500Y-88056500D02*
X79834500Y-83858000D01*
X78864000Y-89027000D02*
X79834500Y-88056500D01*
X77789000Y-89027000D02*
X78864000Y-89027000D01*
X78359000Y-89027000D02*
X76664000Y-89027000D01*
X78864000Y-89027000D02*
X78359000Y-89027000D01*
X78691500Y-89027000D02*
X80977500Y-91313000D01*
X76664000Y-89027000D02*
X78691500Y-89027000D01*
X79375000Y-91313000D02*
X80977500Y-91313000D01*
X61923000Y-82804000D02*
X69596000Y-82804000D01*
X82739000Y-83247000D02*
X82739000Y-85217000D01*
X82550000Y-83058000D02*
X82739000Y-83247000D01*
X82550000Y-83058000D02*
X83644500Y-83058000D01*
X73072500Y-86614000D02*
X73914000Y-86614000D01*
X82550000Y-83058000D02*
X81709500Y-83058000D01*
X82739000Y-85217000D02*
X83864000Y-85217000D01*
X82677000Y-85217000D02*
X81280000Y-86614000D01*
X82739000Y-85217000D02*
X82677000Y-85217000D01*
X86106000Y-87297500D02*
X86106000Y-89486500D01*
X70722500Y-85314000D02*
X71072500Y-85664000D01*
X62173000Y-85314000D02*
X70722500Y-85314000D01*
X71072500Y-83946000D02*
X71960500Y-83058000D01*
X71072500Y-85664000D02*
X71072500Y-83946000D01*
X70722500Y-87914000D02*
X71072500Y-87564000D01*
X62173000Y-87914000D02*
X70722500Y-87914000D01*
X71072500Y-89282000D02*
X71960500Y-90170000D01*
X71072500Y-87564000D02*
X71072500Y-89282000D01*
X75448500Y-87757000D02*
X76664000Y-87757000D01*
X73835500Y-89370000D02*
X75448500Y-87757000D01*
X73835500Y-90170000D02*
X73835500Y-89370000D01*
X78486000Y-87376000D02*
X78486000Y-83898500D01*
X78486000Y-83898500D02*
X77645500Y-83058000D01*
X78105000Y-87757000D02*
X78486000Y-87376000D01*
X76664000Y-87757000D02*
X78105000Y-87757000D01*
X75770500Y-84323500D02*
X76664000Y-85217000D01*
X75770500Y-83058000D02*
X75770500Y-84323500D01*
X85041500Y-86487000D02*
X86106000Y-85422500D01*
X83864000Y-86487000D02*
X85041500Y-86487000D01*
X76464500Y-86487000D02*
X76714000Y-86487000D01*
X73835500Y-85138500D02*
X73835500Y-83058000D01*
X75184000Y-86487000D02*
X73835500Y-85138500D01*
X76664000Y-86487000D02*
X75184000Y-86487000D01*
X82852500Y-90038500D02*
X83864000Y-89027000D01*
X82852500Y-91313000D02*
X82852500Y-90038500D01*
M02*
