G04 #@! TF.GenerationSoftware,KiCad,Pcbnew,(5.1.2-1)-1*
G04 #@! TF.CreationDate,2019-10-10T21:18:58-06:00*
G04 #@! TF.ProjectId,usb-target,7573622d-7461-4726-9765-742e6b696361,rev?*
G04 #@! TF.SameCoordinates,Original*
G04 #@! TF.FileFunction,Paste,Top*
G04 #@! TF.FilePolarity,Positive*
%FSLAX46Y46*%
G04 Gerber Fmt 4.6, Leading zero omitted, Abs format (unit mm)*
G04 Created by KiCad (PCBNEW (5.1.2-1)-1) date 2019-10-10 21:18:58*
%MOMM*%
%LPD*%
G04 APERTURE LIST*
%ADD10C,0.100000*%
%ADD11C,0.975000*%
%ADD12R,0.900000X0.800000*%
%ADD13C,0.600000*%
G04 APERTURE END LIST*
D10*
G36*
X85787142Y-82359174D02*
G01*
X85810803Y-82362684D01*
X85834007Y-82368496D01*
X85856529Y-82376554D01*
X85878153Y-82386782D01*
X85898670Y-82399079D01*
X85917883Y-82413329D01*
X85935607Y-82429393D01*
X85951671Y-82447117D01*
X85965921Y-82466330D01*
X85978218Y-82486847D01*
X85988446Y-82508471D01*
X85996504Y-82530993D01*
X86002316Y-82554197D01*
X86005826Y-82577858D01*
X86007000Y-82601750D01*
X86007000Y-83514250D01*
X86005826Y-83538142D01*
X86002316Y-83561803D01*
X85996504Y-83585007D01*
X85988446Y-83607529D01*
X85978218Y-83629153D01*
X85965921Y-83649670D01*
X85951671Y-83668883D01*
X85935607Y-83686607D01*
X85917883Y-83702671D01*
X85898670Y-83716921D01*
X85878153Y-83729218D01*
X85856529Y-83739446D01*
X85834007Y-83747504D01*
X85810803Y-83753316D01*
X85787142Y-83756826D01*
X85763250Y-83758000D01*
X85275750Y-83758000D01*
X85251858Y-83756826D01*
X85228197Y-83753316D01*
X85204993Y-83747504D01*
X85182471Y-83739446D01*
X85160847Y-83729218D01*
X85140330Y-83716921D01*
X85121117Y-83702671D01*
X85103393Y-83686607D01*
X85087329Y-83668883D01*
X85073079Y-83649670D01*
X85060782Y-83629153D01*
X85050554Y-83607529D01*
X85042496Y-83585007D01*
X85036684Y-83561803D01*
X85033174Y-83538142D01*
X85032000Y-83514250D01*
X85032000Y-82601750D01*
X85033174Y-82577858D01*
X85036684Y-82554197D01*
X85042496Y-82530993D01*
X85050554Y-82508471D01*
X85060782Y-82486847D01*
X85073079Y-82466330D01*
X85087329Y-82447117D01*
X85103393Y-82429393D01*
X85121117Y-82413329D01*
X85140330Y-82399079D01*
X85160847Y-82386782D01*
X85182471Y-82376554D01*
X85204993Y-82368496D01*
X85228197Y-82362684D01*
X85251858Y-82359174D01*
X85275750Y-82358000D01*
X85763250Y-82358000D01*
X85787142Y-82359174D01*
X85787142Y-82359174D01*
G37*
D11*
X85519500Y-83058000D03*
D10*
G36*
X83912142Y-82359174D02*
G01*
X83935803Y-82362684D01*
X83959007Y-82368496D01*
X83981529Y-82376554D01*
X84003153Y-82386782D01*
X84023670Y-82399079D01*
X84042883Y-82413329D01*
X84060607Y-82429393D01*
X84076671Y-82447117D01*
X84090921Y-82466330D01*
X84103218Y-82486847D01*
X84113446Y-82508471D01*
X84121504Y-82530993D01*
X84127316Y-82554197D01*
X84130826Y-82577858D01*
X84132000Y-82601750D01*
X84132000Y-83514250D01*
X84130826Y-83538142D01*
X84127316Y-83561803D01*
X84121504Y-83585007D01*
X84113446Y-83607529D01*
X84103218Y-83629153D01*
X84090921Y-83649670D01*
X84076671Y-83668883D01*
X84060607Y-83686607D01*
X84042883Y-83702671D01*
X84023670Y-83716921D01*
X84003153Y-83729218D01*
X83981529Y-83739446D01*
X83959007Y-83747504D01*
X83935803Y-83753316D01*
X83912142Y-83756826D01*
X83888250Y-83758000D01*
X83400750Y-83758000D01*
X83376858Y-83756826D01*
X83353197Y-83753316D01*
X83329993Y-83747504D01*
X83307471Y-83739446D01*
X83285847Y-83729218D01*
X83265330Y-83716921D01*
X83246117Y-83702671D01*
X83228393Y-83686607D01*
X83212329Y-83668883D01*
X83198079Y-83649670D01*
X83185782Y-83629153D01*
X83175554Y-83607529D01*
X83167496Y-83585007D01*
X83161684Y-83561803D01*
X83158174Y-83538142D01*
X83157000Y-83514250D01*
X83157000Y-82601750D01*
X83158174Y-82577858D01*
X83161684Y-82554197D01*
X83167496Y-82530993D01*
X83175554Y-82508471D01*
X83185782Y-82486847D01*
X83198079Y-82466330D01*
X83212329Y-82447117D01*
X83228393Y-82429393D01*
X83246117Y-82413329D01*
X83265330Y-82399079D01*
X83285847Y-82386782D01*
X83307471Y-82376554D01*
X83329993Y-82368496D01*
X83353197Y-82362684D01*
X83376858Y-82359174D01*
X83400750Y-82358000D01*
X83888250Y-82358000D01*
X83912142Y-82359174D01*
X83912142Y-82359174D01*
G37*
D11*
X83644500Y-83058000D03*
D10*
G36*
X80102142Y-82359174D02*
G01*
X80125803Y-82362684D01*
X80149007Y-82368496D01*
X80171529Y-82376554D01*
X80193153Y-82386782D01*
X80213670Y-82399079D01*
X80232883Y-82413329D01*
X80250607Y-82429393D01*
X80266671Y-82447117D01*
X80280921Y-82466330D01*
X80293218Y-82486847D01*
X80303446Y-82508471D01*
X80311504Y-82530993D01*
X80317316Y-82554197D01*
X80320826Y-82577858D01*
X80322000Y-82601750D01*
X80322000Y-83514250D01*
X80320826Y-83538142D01*
X80317316Y-83561803D01*
X80311504Y-83585007D01*
X80303446Y-83607529D01*
X80293218Y-83629153D01*
X80280921Y-83649670D01*
X80266671Y-83668883D01*
X80250607Y-83686607D01*
X80232883Y-83702671D01*
X80213670Y-83716921D01*
X80193153Y-83729218D01*
X80171529Y-83739446D01*
X80149007Y-83747504D01*
X80125803Y-83753316D01*
X80102142Y-83756826D01*
X80078250Y-83758000D01*
X79590750Y-83758000D01*
X79566858Y-83756826D01*
X79543197Y-83753316D01*
X79519993Y-83747504D01*
X79497471Y-83739446D01*
X79475847Y-83729218D01*
X79455330Y-83716921D01*
X79436117Y-83702671D01*
X79418393Y-83686607D01*
X79402329Y-83668883D01*
X79388079Y-83649670D01*
X79375782Y-83629153D01*
X79365554Y-83607529D01*
X79357496Y-83585007D01*
X79351684Y-83561803D01*
X79348174Y-83538142D01*
X79347000Y-83514250D01*
X79347000Y-82601750D01*
X79348174Y-82577858D01*
X79351684Y-82554197D01*
X79357496Y-82530993D01*
X79365554Y-82508471D01*
X79375782Y-82486847D01*
X79388079Y-82466330D01*
X79402329Y-82447117D01*
X79418393Y-82429393D01*
X79436117Y-82413329D01*
X79455330Y-82399079D01*
X79475847Y-82386782D01*
X79497471Y-82376554D01*
X79519993Y-82368496D01*
X79543197Y-82362684D01*
X79566858Y-82359174D01*
X79590750Y-82358000D01*
X80078250Y-82358000D01*
X80102142Y-82359174D01*
X80102142Y-82359174D01*
G37*
D11*
X79834500Y-83058000D03*
D10*
G36*
X81977142Y-82359174D02*
G01*
X82000803Y-82362684D01*
X82024007Y-82368496D01*
X82046529Y-82376554D01*
X82068153Y-82386782D01*
X82088670Y-82399079D01*
X82107883Y-82413329D01*
X82125607Y-82429393D01*
X82141671Y-82447117D01*
X82155921Y-82466330D01*
X82168218Y-82486847D01*
X82178446Y-82508471D01*
X82186504Y-82530993D01*
X82192316Y-82554197D01*
X82195826Y-82577858D01*
X82197000Y-82601750D01*
X82197000Y-83514250D01*
X82195826Y-83538142D01*
X82192316Y-83561803D01*
X82186504Y-83585007D01*
X82178446Y-83607529D01*
X82168218Y-83629153D01*
X82155921Y-83649670D01*
X82141671Y-83668883D01*
X82125607Y-83686607D01*
X82107883Y-83702671D01*
X82088670Y-83716921D01*
X82068153Y-83729218D01*
X82046529Y-83739446D01*
X82024007Y-83747504D01*
X82000803Y-83753316D01*
X81977142Y-83756826D01*
X81953250Y-83758000D01*
X81465750Y-83758000D01*
X81441858Y-83756826D01*
X81418197Y-83753316D01*
X81394993Y-83747504D01*
X81372471Y-83739446D01*
X81350847Y-83729218D01*
X81330330Y-83716921D01*
X81311117Y-83702671D01*
X81293393Y-83686607D01*
X81277329Y-83668883D01*
X81263079Y-83649670D01*
X81250782Y-83629153D01*
X81240554Y-83607529D01*
X81232496Y-83585007D01*
X81226684Y-83561803D01*
X81223174Y-83538142D01*
X81222000Y-83514250D01*
X81222000Y-82601750D01*
X81223174Y-82577858D01*
X81226684Y-82554197D01*
X81232496Y-82530993D01*
X81240554Y-82508471D01*
X81250782Y-82486847D01*
X81263079Y-82466330D01*
X81277329Y-82447117D01*
X81293393Y-82429393D01*
X81311117Y-82413329D01*
X81330330Y-82399079D01*
X81350847Y-82386782D01*
X81372471Y-82376554D01*
X81394993Y-82368496D01*
X81418197Y-82362684D01*
X81441858Y-82359174D01*
X81465750Y-82358000D01*
X81953250Y-82358000D01*
X81977142Y-82359174D01*
X81977142Y-82359174D01*
G37*
D11*
X81709500Y-83058000D03*
D10*
G36*
X86586142Y-89000174D02*
G01*
X86609803Y-89003684D01*
X86633007Y-89009496D01*
X86655529Y-89017554D01*
X86677153Y-89027782D01*
X86697670Y-89040079D01*
X86716883Y-89054329D01*
X86734607Y-89070393D01*
X86750671Y-89088117D01*
X86764921Y-89107330D01*
X86777218Y-89127847D01*
X86787446Y-89149471D01*
X86795504Y-89171993D01*
X86801316Y-89195197D01*
X86804826Y-89218858D01*
X86806000Y-89242750D01*
X86806000Y-89730250D01*
X86804826Y-89754142D01*
X86801316Y-89777803D01*
X86795504Y-89801007D01*
X86787446Y-89823529D01*
X86777218Y-89845153D01*
X86764921Y-89865670D01*
X86750671Y-89884883D01*
X86734607Y-89902607D01*
X86716883Y-89918671D01*
X86697670Y-89932921D01*
X86677153Y-89945218D01*
X86655529Y-89955446D01*
X86633007Y-89963504D01*
X86609803Y-89969316D01*
X86586142Y-89972826D01*
X86562250Y-89974000D01*
X85649750Y-89974000D01*
X85625858Y-89972826D01*
X85602197Y-89969316D01*
X85578993Y-89963504D01*
X85556471Y-89955446D01*
X85534847Y-89945218D01*
X85514330Y-89932921D01*
X85495117Y-89918671D01*
X85477393Y-89902607D01*
X85461329Y-89884883D01*
X85447079Y-89865670D01*
X85434782Y-89845153D01*
X85424554Y-89823529D01*
X85416496Y-89801007D01*
X85410684Y-89777803D01*
X85407174Y-89754142D01*
X85406000Y-89730250D01*
X85406000Y-89242750D01*
X85407174Y-89218858D01*
X85410684Y-89195197D01*
X85416496Y-89171993D01*
X85424554Y-89149471D01*
X85434782Y-89127847D01*
X85447079Y-89107330D01*
X85461329Y-89088117D01*
X85477393Y-89070393D01*
X85495117Y-89054329D01*
X85514330Y-89040079D01*
X85534847Y-89027782D01*
X85556471Y-89017554D01*
X85578993Y-89009496D01*
X85602197Y-89003684D01*
X85625858Y-89000174D01*
X85649750Y-88999000D01*
X86562250Y-88999000D01*
X86586142Y-89000174D01*
X86586142Y-89000174D01*
G37*
D11*
X86106000Y-89486500D03*
D10*
G36*
X86586142Y-90875174D02*
G01*
X86609803Y-90878684D01*
X86633007Y-90884496D01*
X86655529Y-90892554D01*
X86677153Y-90902782D01*
X86697670Y-90915079D01*
X86716883Y-90929329D01*
X86734607Y-90945393D01*
X86750671Y-90963117D01*
X86764921Y-90982330D01*
X86777218Y-91002847D01*
X86787446Y-91024471D01*
X86795504Y-91046993D01*
X86801316Y-91070197D01*
X86804826Y-91093858D01*
X86806000Y-91117750D01*
X86806000Y-91605250D01*
X86804826Y-91629142D01*
X86801316Y-91652803D01*
X86795504Y-91676007D01*
X86787446Y-91698529D01*
X86777218Y-91720153D01*
X86764921Y-91740670D01*
X86750671Y-91759883D01*
X86734607Y-91777607D01*
X86716883Y-91793671D01*
X86697670Y-91807921D01*
X86677153Y-91820218D01*
X86655529Y-91830446D01*
X86633007Y-91838504D01*
X86609803Y-91844316D01*
X86586142Y-91847826D01*
X86562250Y-91849000D01*
X85649750Y-91849000D01*
X85625858Y-91847826D01*
X85602197Y-91844316D01*
X85578993Y-91838504D01*
X85556471Y-91830446D01*
X85534847Y-91820218D01*
X85514330Y-91807921D01*
X85495117Y-91793671D01*
X85477393Y-91777607D01*
X85461329Y-91759883D01*
X85447079Y-91740670D01*
X85434782Y-91720153D01*
X85424554Y-91698529D01*
X85416496Y-91676007D01*
X85410684Y-91652803D01*
X85407174Y-91629142D01*
X85406000Y-91605250D01*
X85406000Y-91117750D01*
X85407174Y-91093858D01*
X85410684Y-91070197D01*
X85416496Y-91046993D01*
X85424554Y-91024471D01*
X85434782Y-91002847D01*
X85447079Y-90982330D01*
X85461329Y-90963117D01*
X85477393Y-90945393D01*
X85495117Y-90929329D01*
X85514330Y-90915079D01*
X85534847Y-90902782D01*
X85556471Y-90892554D01*
X85578993Y-90884496D01*
X85602197Y-90878684D01*
X85625858Y-90875174D01*
X85649750Y-90874000D01*
X86562250Y-90874000D01*
X86586142Y-90875174D01*
X86586142Y-90875174D01*
G37*
D11*
X86106000Y-91361500D03*
D12*
X71072500Y-85664000D03*
X71072500Y-87564000D03*
X73072500Y-86614000D03*
D10*
G36*
X76038142Y-82359174D02*
G01*
X76061803Y-82362684D01*
X76085007Y-82368496D01*
X76107529Y-82376554D01*
X76129153Y-82386782D01*
X76149670Y-82399079D01*
X76168883Y-82413329D01*
X76186607Y-82429393D01*
X76202671Y-82447117D01*
X76216921Y-82466330D01*
X76229218Y-82486847D01*
X76239446Y-82508471D01*
X76247504Y-82530993D01*
X76253316Y-82554197D01*
X76256826Y-82577858D01*
X76258000Y-82601750D01*
X76258000Y-83514250D01*
X76256826Y-83538142D01*
X76253316Y-83561803D01*
X76247504Y-83585007D01*
X76239446Y-83607529D01*
X76229218Y-83629153D01*
X76216921Y-83649670D01*
X76202671Y-83668883D01*
X76186607Y-83686607D01*
X76168883Y-83702671D01*
X76149670Y-83716921D01*
X76129153Y-83729218D01*
X76107529Y-83739446D01*
X76085007Y-83747504D01*
X76061803Y-83753316D01*
X76038142Y-83756826D01*
X76014250Y-83758000D01*
X75526750Y-83758000D01*
X75502858Y-83756826D01*
X75479197Y-83753316D01*
X75455993Y-83747504D01*
X75433471Y-83739446D01*
X75411847Y-83729218D01*
X75391330Y-83716921D01*
X75372117Y-83702671D01*
X75354393Y-83686607D01*
X75338329Y-83668883D01*
X75324079Y-83649670D01*
X75311782Y-83629153D01*
X75301554Y-83607529D01*
X75293496Y-83585007D01*
X75287684Y-83561803D01*
X75284174Y-83538142D01*
X75283000Y-83514250D01*
X75283000Y-82601750D01*
X75284174Y-82577858D01*
X75287684Y-82554197D01*
X75293496Y-82530993D01*
X75301554Y-82508471D01*
X75311782Y-82486847D01*
X75324079Y-82466330D01*
X75338329Y-82447117D01*
X75354393Y-82429393D01*
X75372117Y-82413329D01*
X75391330Y-82399079D01*
X75411847Y-82386782D01*
X75433471Y-82376554D01*
X75455993Y-82368496D01*
X75479197Y-82362684D01*
X75502858Y-82359174D01*
X75526750Y-82358000D01*
X76014250Y-82358000D01*
X76038142Y-82359174D01*
X76038142Y-82359174D01*
G37*
D11*
X75770500Y-83058000D03*
D10*
G36*
X77913142Y-82359174D02*
G01*
X77936803Y-82362684D01*
X77960007Y-82368496D01*
X77982529Y-82376554D01*
X78004153Y-82386782D01*
X78024670Y-82399079D01*
X78043883Y-82413329D01*
X78061607Y-82429393D01*
X78077671Y-82447117D01*
X78091921Y-82466330D01*
X78104218Y-82486847D01*
X78114446Y-82508471D01*
X78122504Y-82530993D01*
X78128316Y-82554197D01*
X78131826Y-82577858D01*
X78133000Y-82601750D01*
X78133000Y-83514250D01*
X78131826Y-83538142D01*
X78128316Y-83561803D01*
X78122504Y-83585007D01*
X78114446Y-83607529D01*
X78104218Y-83629153D01*
X78091921Y-83649670D01*
X78077671Y-83668883D01*
X78061607Y-83686607D01*
X78043883Y-83702671D01*
X78024670Y-83716921D01*
X78004153Y-83729218D01*
X77982529Y-83739446D01*
X77960007Y-83747504D01*
X77936803Y-83753316D01*
X77913142Y-83756826D01*
X77889250Y-83758000D01*
X77401750Y-83758000D01*
X77377858Y-83756826D01*
X77354197Y-83753316D01*
X77330993Y-83747504D01*
X77308471Y-83739446D01*
X77286847Y-83729218D01*
X77266330Y-83716921D01*
X77247117Y-83702671D01*
X77229393Y-83686607D01*
X77213329Y-83668883D01*
X77199079Y-83649670D01*
X77186782Y-83629153D01*
X77176554Y-83607529D01*
X77168496Y-83585007D01*
X77162684Y-83561803D01*
X77159174Y-83538142D01*
X77158000Y-83514250D01*
X77158000Y-82601750D01*
X77159174Y-82577858D01*
X77162684Y-82554197D01*
X77168496Y-82530993D01*
X77176554Y-82508471D01*
X77186782Y-82486847D01*
X77199079Y-82466330D01*
X77213329Y-82447117D01*
X77229393Y-82429393D01*
X77247117Y-82413329D01*
X77266330Y-82399079D01*
X77286847Y-82386782D01*
X77308471Y-82376554D01*
X77330993Y-82368496D01*
X77354197Y-82362684D01*
X77377858Y-82359174D01*
X77401750Y-82358000D01*
X77889250Y-82358000D01*
X77913142Y-82359174D01*
X77913142Y-82359174D01*
G37*
D11*
X77645500Y-83058000D03*
D10*
G36*
X86586142Y-84936174D02*
G01*
X86609803Y-84939684D01*
X86633007Y-84945496D01*
X86655529Y-84953554D01*
X86677153Y-84963782D01*
X86697670Y-84976079D01*
X86716883Y-84990329D01*
X86734607Y-85006393D01*
X86750671Y-85024117D01*
X86764921Y-85043330D01*
X86777218Y-85063847D01*
X86787446Y-85085471D01*
X86795504Y-85107993D01*
X86801316Y-85131197D01*
X86804826Y-85154858D01*
X86806000Y-85178750D01*
X86806000Y-85666250D01*
X86804826Y-85690142D01*
X86801316Y-85713803D01*
X86795504Y-85737007D01*
X86787446Y-85759529D01*
X86777218Y-85781153D01*
X86764921Y-85801670D01*
X86750671Y-85820883D01*
X86734607Y-85838607D01*
X86716883Y-85854671D01*
X86697670Y-85868921D01*
X86677153Y-85881218D01*
X86655529Y-85891446D01*
X86633007Y-85899504D01*
X86609803Y-85905316D01*
X86586142Y-85908826D01*
X86562250Y-85910000D01*
X85649750Y-85910000D01*
X85625858Y-85908826D01*
X85602197Y-85905316D01*
X85578993Y-85899504D01*
X85556471Y-85891446D01*
X85534847Y-85881218D01*
X85514330Y-85868921D01*
X85495117Y-85854671D01*
X85477393Y-85838607D01*
X85461329Y-85820883D01*
X85447079Y-85801670D01*
X85434782Y-85781153D01*
X85424554Y-85759529D01*
X85416496Y-85737007D01*
X85410684Y-85713803D01*
X85407174Y-85690142D01*
X85406000Y-85666250D01*
X85406000Y-85178750D01*
X85407174Y-85154858D01*
X85410684Y-85131197D01*
X85416496Y-85107993D01*
X85424554Y-85085471D01*
X85434782Y-85063847D01*
X85447079Y-85043330D01*
X85461329Y-85024117D01*
X85477393Y-85006393D01*
X85495117Y-84990329D01*
X85514330Y-84976079D01*
X85534847Y-84963782D01*
X85556471Y-84953554D01*
X85578993Y-84945496D01*
X85602197Y-84939684D01*
X85625858Y-84936174D01*
X85649750Y-84935000D01*
X86562250Y-84935000D01*
X86586142Y-84936174D01*
X86586142Y-84936174D01*
G37*
D11*
X86106000Y-85422500D03*
D10*
G36*
X86586142Y-86811174D02*
G01*
X86609803Y-86814684D01*
X86633007Y-86820496D01*
X86655529Y-86828554D01*
X86677153Y-86838782D01*
X86697670Y-86851079D01*
X86716883Y-86865329D01*
X86734607Y-86881393D01*
X86750671Y-86899117D01*
X86764921Y-86918330D01*
X86777218Y-86938847D01*
X86787446Y-86960471D01*
X86795504Y-86982993D01*
X86801316Y-87006197D01*
X86804826Y-87029858D01*
X86806000Y-87053750D01*
X86806000Y-87541250D01*
X86804826Y-87565142D01*
X86801316Y-87588803D01*
X86795504Y-87612007D01*
X86787446Y-87634529D01*
X86777218Y-87656153D01*
X86764921Y-87676670D01*
X86750671Y-87695883D01*
X86734607Y-87713607D01*
X86716883Y-87729671D01*
X86697670Y-87743921D01*
X86677153Y-87756218D01*
X86655529Y-87766446D01*
X86633007Y-87774504D01*
X86609803Y-87780316D01*
X86586142Y-87783826D01*
X86562250Y-87785000D01*
X85649750Y-87785000D01*
X85625858Y-87783826D01*
X85602197Y-87780316D01*
X85578993Y-87774504D01*
X85556471Y-87766446D01*
X85534847Y-87756218D01*
X85514330Y-87743921D01*
X85495117Y-87729671D01*
X85477393Y-87713607D01*
X85461329Y-87695883D01*
X85447079Y-87676670D01*
X85434782Y-87656153D01*
X85424554Y-87634529D01*
X85416496Y-87612007D01*
X85410684Y-87588803D01*
X85407174Y-87565142D01*
X85406000Y-87541250D01*
X85406000Y-87053750D01*
X85407174Y-87029858D01*
X85410684Y-87006197D01*
X85416496Y-86982993D01*
X85424554Y-86960471D01*
X85434782Y-86938847D01*
X85447079Y-86918330D01*
X85461329Y-86899117D01*
X85477393Y-86881393D01*
X85495117Y-86865329D01*
X85514330Y-86851079D01*
X85534847Y-86838782D01*
X85556471Y-86828554D01*
X85578993Y-86820496D01*
X85602197Y-86814684D01*
X85625858Y-86811174D01*
X85649750Y-86810000D01*
X86562250Y-86810000D01*
X86586142Y-86811174D01*
X86586142Y-86811174D01*
G37*
D11*
X86106000Y-87297500D03*
D10*
G36*
X82993142Y-90487174D02*
G01*
X83016803Y-90490684D01*
X83040007Y-90496496D01*
X83062529Y-90504554D01*
X83084153Y-90514782D01*
X83104670Y-90527079D01*
X83123883Y-90541329D01*
X83141607Y-90557393D01*
X83157671Y-90575117D01*
X83171921Y-90594330D01*
X83184218Y-90614847D01*
X83194446Y-90636471D01*
X83202504Y-90658993D01*
X83208316Y-90682197D01*
X83211826Y-90705858D01*
X83213000Y-90729750D01*
X83213000Y-91642250D01*
X83211826Y-91666142D01*
X83208316Y-91689803D01*
X83202504Y-91713007D01*
X83194446Y-91735529D01*
X83184218Y-91757153D01*
X83171921Y-91777670D01*
X83157671Y-91796883D01*
X83141607Y-91814607D01*
X83123883Y-91830671D01*
X83104670Y-91844921D01*
X83084153Y-91857218D01*
X83062529Y-91867446D01*
X83040007Y-91875504D01*
X83016803Y-91881316D01*
X82993142Y-91884826D01*
X82969250Y-91886000D01*
X82481750Y-91886000D01*
X82457858Y-91884826D01*
X82434197Y-91881316D01*
X82410993Y-91875504D01*
X82388471Y-91867446D01*
X82366847Y-91857218D01*
X82346330Y-91844921D01*
X82327117Y-91830671D01*
X82309393Y-91814607D01*
X82293329Y-91796883D01*
X82279079Y-91777670D01*
X82266782Y-91757153D01*
X82256554Y-91735529D01*
X82248496Y-91713007D01*
X82242684Y-91689803D01*
X82239174Y-91666142D01*
X82238000Y-91642250D01*
X82238000Y-90729750D01*
X82239174Y-90705858D01*
X82242684Y-90682197D01*
X82248496Y-90658993D01*
X82256554Y-90636471D01*
X82266782Y-90614847D01*
X82279079Y-90594330D01*
X82293329Y-90575117D01*
X82309393Y-90557393D01*
X82327117Y-90541329D01*
X82346330Y-90527079D01*
X82366847Y-90514782D01*
X82388471Y-90504554D01*
X82410993Y-90496496D01*
X82434197Y-90490684D01*
X82457858Y-90487174D01*
X82481750Y-90486000D01*
X82969250Y-90486000D01*
X82993142Y-90487174D01*
X82993142Y-90487174D01*
G37*
D11*
X82725500Y-91186000D03*
D10*
G36*
X81118142Y-90487174D02*
G01*
X81141803Y-90490684D01*
X81165007Y-90496496D01*
X81187529Y-90504554D01*
X81209153Y-90514782D01*
X81229670Y-90527079D01*
X81248883Y-90541329D01*
X81266607Y-90557393D01*
X81282671Y-90575117D01*
X81296921Y-90594330D01*
X81309218Y-90614847D01*
X81319446Y-90636471D01*
X81327504Y-90658993D01*
X81333316Y-90682197D01*
X81336826Y-90705858D01*
X81338000Y-90729750D01*
X81338000Y-91642250D01*
X81336826Y-91666142D01*
X81333316Y-91689803D01*
X81327504Y-91713007D01*
X81319446Y-91735529D01*
X81309218Y-91757153D01*
X81296921Y-91777670D01*
X81282671Y-91796883D01*
X81266607Y-91814607D01*
X81248883Y-91830671D01*
X81229670Y-91844921D01*
X81209153Y-91857218D01*
X81187529Y-91867446D01*
X81165007Y-91875504D01*
X81141803Y-91881316D01*
X81118142Y-91884826D01*
X81094250Y-91886000D01*
X80606750Y-91886000D01*
X80582858Y-91884826D01*
X80559197Y-91881316D01*
X80535993Y-91875504D01*
X80513471Y-91867446D01*
X80491847Y-91857218D01*
X80471330Y-91844921D01*
X80452117Y-91830671D01*
X80434393Y-91814607D01*
X80418329Y-91796883D01*
X80404079Y-91777670D01*
X80391782Y-91757153D01*
X80381554Y-91735529D01*
X80373496Y-91713007D01*
X80367684Y-91689803D01*
X80364174Y-91666142D01*
X80363000Y-91642250D01*
X80363000Y-90729750D01*
X80364174Y-90705858D01*
X80367684Y-90682197D01*
X80373496Y-90658993D01*
X80381554Y-90636471D01*
X80391782Y-90614847D01*
X80404079Y-90594330D01*
X80418329Y-90575117D01*
X80434393Y-90557393D01*
X80452117Y-90541329D01*
X80471330Y-90527079D01*
X80491847Y-90514782D01*
X80513471Y-90504554D01*
X80535993Y-90496496D01*
X80559197Y-90490684D01*
X80582858Y-90487174D01*
X80606750Y-90486000D01*
X81094250Y-90486000D01*
X81118142Y-90487174D01*
X81118142Y-90487174D01*
G37*
D11*
X80850500Y-91186000D03*
D10*
G36*
X72228142Y-82359174D02*
G01*
X72251803Y-82362684D01*
X72275007Y-82368496D01*
X72297529Y-82376554D01*
X72319153Y-82386782D01*
X72339670Y-82399079D01*
X72358883Y-82413329D01*
X72376607Y-82429393D01*
X72392671Y-82447117D01*
X72406921Y-82466330D01*
X72419218Y-82486847D01*
X72429446Y-82508471D01*
X72437504Y-82530993D01*
X72443316Y-82554197D01*
X72446826Y-82577858D01*
X72448000Y-82601750D01*
X72448000Y-83514250D01*
X72446826Y-83538142D01*
X72443316Y-83561803D01*
X72437504Y-83585007D01*
X72429446Y-83607529D01*
X72419218Y-83629153D01*
X72406921Y-83649670D01*
X72392671Y-83668883D01*
X72376607Y-83686607D01*
X72358883Y-83702671D01*
X72339670Y-83716921D01*
X72319153Y-83729218D01*
X72297529Y-83739446D01*
X72275007Y-83747504D01*
X72251803Y-83753316D01*
X72228142Y-83756826D01*
X72204250Y-83758000D01*
X71716750Y-83758000D01*
X71692858Y-83756826D01*
X71669197Y-83753316D01*
X71645993Y-83747504D01*
X71623471Y-83739446D01*
X71601847Y-83729218D01*
X71581330Y-83716921D01*
X71562117Y-83702671D01*
X71544393Y-83686607D01*
X71528329Y-83668883D01*
X71514079Y-83649670D01*
X71501782Y-83629153D01*
X71491554Y-83607529D01*
X71483496Y-83585007D01*
X71477684Y-83561803D01*
X71474174Y-83538142D01*
X71473000Y-83514250D01*
X71473000Y-82601750D01*
X71474174Y-82577858D01*
X71477684Y-82554197D01*
X71483496Y-82530993D01*
X71491554Y-82508471D01*
X71501782Y-82486847D01*
X71514079Y-82466330D01*
X71528329Y-82447117D01*
X71544393Y-82429393D01*
X71562117Y-82413329D01*
X71581330Y-82399079D01*
X71601847Y-82386782D01*
X71623471Y-82376554D01*
X71645993Y-82368496D01*
X71669197Y-82362684D01*
X71692858Y-82359174D01*
X71716750Y-82358000D01*
X72204250Y-82358000D01*
X72228142Y-82359174D01*
X72228142Y-82359174D01*
G37*
D11*
X71960500Y-83058000D03*
D10*
G36*
X74103142Y-82359174D02*
G01*
X74126803Y-82362684D01*
X74150007Y-82368496D01*
X74172529Y-82376554D01*
X74194153Y-82386782D01*
X74214670Y-82399079D01*
X74233883Y-82413329D01*
X74251607Y-82429393D01*
X74267671Y-82447117D01*
X74281921Y-82466330D01*
X74294218Y-82486847D01*
X74304446Y-82508471D01*
X74312504Y-82530993D01*
X74318316Y-82554197D01*
X74321826Y-82577858D01*
X74323000Y-82601750D01*
X74323000Y-83514250D01*
X74321826Y-83538142D01*
X74318316Y-83561803D01*
X74312504Y-83585007D01*
X74304446Y-83607529D01*
X74294218Y-83629153D01*
X74281921Y-83649670D01*
X74267671Y-83668883D01*
X74251607Y-83686607D01*
X74233883Y-83702671D01*
X74214670Y-83716921D01*
X74194153Y-83729218D01*
X74172529Y-83739446D01*
X74150007Y-83747504D01*
X74126803Y-83753316D01*
X74103142Y-83756826D01*
X74079250Y-83758000D01*
X73591750Y-83758000D01*
X73567858Y-83756826D01*
X73544197Y-83753316D01*
X73520993Y-83747504D01*
X73498471Y-83739446D01*
X73476847Y-83729218D01*
X73456330Y-83716921D01*
X73437117Y-83702671D01*
X73419393Y-83686607D01*
X73403329Y-83668883D01*
X73389079Y-83649670D01*
X73376782Y-83629153D01*
X73366554Y-83607529D01*
X73358496Y-83585007D01*
X73352684Y-83561803D01*
X73349174Y-83538142D01*
X73348000Y-83514250D01*
X73348000Y-82601750D01*
X73349174Y-82577858D01*
X73352684Y-82554197D01*
X73358496Y-82530993D01*
X73366554Y-82508471D01*
X73376782Y-82486847D01*
X73389079Y-82466330D01*
X73403329Y-82447117D01*
X73419393Y-82429393D01*
X73437117Y-82413329D01*
X73456330Y-82399079D01*
X73476847Y-82386782D01*
X73498471Y-82376554D01*
X73520993Y-82368496D01*
X73544197Y-82362684D01*
X73567858Y-82359174D01*
X73591750Y-82358000D01*
X74079250Y-82358000D01*
X74103142Y-82359174D01*
X74103142Y-82359174D01*
G37*
D11*
X73835500Y-83058000D03*
D10*
G36*
X74103142Y-89471174D02*
G01*
X74126803Y-89474684D01*
X74150007Y-89480496D01*
X74172529Y-89488554D01*
X74194153Y-89498782D01*
X74214670Y-89511079D01*
X74233883Y-89525329D01*
X74251607Y-89541393D01*
X74267671Y-89559117D01*
X74281921Y-89578330D01*
X74294218Y-89598847D01*
X74304446Y-89620471D01*
X74312504Y-89642993D01*
X74318316Y-89666197D01*
X74321826Y-89689858D01*
X74323000Y-89713750D01*
X74323000Y-90626250D01*
X74321826Y-90650142D01*
X74318316Y-90673803D01*
X74312504Y-90697007D01*
X74304446Y-90719529D01*
X74294218Y-90741153D01*
X74281921Y-90761670D01*
X74267671Y-90780883D01*
X74251607Y-90798607D01*
X74233883Y-90814671D01*
X74214670Y-90828921D01*
X74194153Y-90841218D01*
X74172529Y-90851446D01*
X74150007Y-90859504D01*
X74126803Y-90865316D01*
X74103142Y-90868826D01*
X74079250Y-90870000D01*
X73591750Y-90870000D01*
X73567858Y-90868826D01*
X73544197Y-90865316D01*
X73520993Y-90859504D01*
X73498471Y-90851446D01*
X73476847Y-90841218D01*
X73456330Y-90828921D01*
X73437117Y-90814671D01*
X73419393Y-90798607D01*
X73403329Y-90780883D01*
X73389079Y-90761670D01*
X73376782Y-90741153D01*
X73366554Y-90719529D01*
X73358496Y-90697007D01*
X73352684Y-90673803D01*
X73349174Y-90650142D01*
X73348000Y-90626250D01*
X73348000Y-89713750D01*
X73349174Y-89689858D01*
X73352684Y-89666197D01*
X73358496Y-89642993D01*
X73366554Y-89620471D01*
X73376782Y-89598847D01*
X73389079Y-89578330D01*
X73403329Y-89559117D01*
X73419393Y-89541393D01*
X73437117Y-89525329D01*
X73456330Y-89511079D01*
X73476847Y-89498782D01*
X73498471Y-89488554D01*
X73520993Y-89480496D01*
X73544197Y-89474684D01*
X73567858Y-89471174D01*
X73591750Y-89470000D01*
X74079250Y-89470000D01*
X74103142Y-89471174D01*
X74103142Y-89471174D01*
G37*
D11*
X73835500Y-90170000D03*
D10*
G36*
X72228142Y-89471174D02*
G01*
X72251803Y-89474684D01*
X72275007Y-89480496D01*
X72297529Y-89488554D01*
X72319153Y-89498782D01*
X72339670Y-89511079D01*
X72358883Y-89525329D01*
X72376607Y-89541393D01*
X72392671Y-89559117D01*
X72406921Y-89578330D01*
X72419218Y-89598847D01*
X72429446Y-89620471D01*
X72437504Y-89642993D01*
X72443316Y-89666197D01*
X72446826Y-89689858D01*
X72448000Y-89713750D01*
X72448000Y-90626250D01*
X72446826Y-90650142D01*
X72443316Y-90673803D01*
X72437504Y-90697007D01*
X72429446Y-90719529D01*
X72419218Y-90741153D01*
X72406921Y-90761670D01*
X72392671Y-90780883D01*
X72376607Y-90798607D01*
X72358883Y-90814671D01*
X72339670Y-90828921D01*
X72319153Y-90841218D01*
X72297529Y-90851446D01*
X72275007Y-90859504D01*
X72251803Y-90865316D01*
X72228142Y-90868826D01*
X72204250Y-90870000D01*
X71716750Y-90870000D01*
X71692858Y-90868826D01*
X71669197Y-90865316D01*
X71645993Y-90859504D01*
X71623471Y-90851446D01*
X71601847Y-90841218D01*
X71581330Y-90828921D01*
X71562117Y-90814671D01*
X71544393Y-90798607D01*
X71528329Y-90780883D01*
X71514079Y-90761670D01*
X71501782Y-90741153D01*
X71491554Y-90719529D01*
X71483496Y-90697007D01*
X71477684Y-90673803D01*
X71474174Y-90650142D01*
X71473000Y-90626250D01*
X71473000Y-89713750D01*
X71474174Y-89689858D01*
X71477684Y-89666197D01*
X71483496Y-89642993D01*
X71491554Y-89620471D01*
X71501782Y-89598847D01*
X71514079Y-89578330D01*
X71528329Y-89559117D01*
X71544393Y-89541393D01*
X71562117Y-89525329D01*
X71581330Y-89511079D01*
X71601847Y-89498782D01*
X71623471Y-89488554D01*
X71645993Y-89480496D01*
X71669197Y-89474684D01*
X71692858Y-89471174D01*
X71716750Y-89470000D01*
X72204250Y-89470000D01*
X72228142Y-89471174D01*
X72228142Y-89471174D01*
G37*
D11*
X71960500Y-90170000D03*
D10*
G36*
X83578703Y-88727722D02*
G01*
X83593264Y-88729882D01*
X83607543Y-88733459D01*
X83621403Y-88738418D01*
X83634710Y-88744712D01*
X83647336Y-88752280D01*
X83659159Y-88761048D01*
X83670066Y-88770934D01*
X83679952Y-88781841D01*
X83688720Y-88793664D01*
X83696288Y-88806290D01*
X83702582Y-88819597D01*
X83707541Y-88833457D01*
X83711118Y-88847736D01*
X83713278Y-88862297D01*
X83714000Y-88877000D01*
X83714000Y-89177000D01*
X83713278Y-89191703D01*
X83711118Y-89206264D01*
X83707541Y-89220543D01*
X83702582Y-89234403D01*
X83696288Y-89247710D01*
X83688720Y-89260336D01*
X83679952Y-89272159D01*
X83670066Y-89283066D01*
X83659159Y-89292952D01*
X83647336Y-89301720D01*
X83634710Y-89309288D01*
X83621403Y-89315582D01*
X83607543Y-89320541D01*
X83593264Y-89324118D01*
X83578703Y-89326278D01*
X83564000Y-89327000D01*
X81914000Y-89327000D01*
X81899297Y-89326278D01*
X81884736Y-89324118D01*
X81870457Y-89320541D01*
X81856597Y-89315582D01*
X81843290Y-89309288D01*
X81830664Y-89301720D01*
X81818841Y-89292952D01*
X81807934Y-89283066D01*
X81798048Y-89272159D01*
X81789280Y-89260336D01*
X81781712Y-89247710D01*
X81775418Y-89234403D01*
X81770459Y-89220543D01*
X81766882Y-89206264D01*
X81764722Y-89191703D01*
X81764000Y-89177000D01*
X81764000Y-88877000D01*
X81764722Y-88862297D01*
X81766882Y-88847736D01*
X81770459Y-88833457D01*
X81775418Y-88819597D01*
X81781712Y-88806290D01*
X81789280Y-88793664D01*
X81798048Y-88781841D01*
X81807934Y-88770934D01*
X81818841Y-88761048D01*
X81830664Y-88752280D01*
X81843290Y-88744712D01*
X81856597Y-88738418D01*
X81870457Y-88733459D01*
X81884736Y-88729882D01*
X81899297Y-88727722D01*
X81914000Y-88727000D01*
X83564000Y-88727000D01*
X83578703Y-88727722D01*
X83578703Y-88727722D01*
G37*
D13*
X82739000Y-89027000D03*
D10*
G36*
X83578703Y-87457722D02*
G01*
X83593264Y-87459882D01*
X83607543Y-87463459D01*
X83621403Y-87468418D01*
X83634710Y-87474712D01*
X83647336Y-87482280D01*
X83659159Y-87491048D01*
X83670066Y-87500934D01*
X83679952Y-87511841D01*
X83688720Y-87523664D01*
X83696288Y-87536290D01*
X83702582Y-87549597D01*
X83707541Y-87563457D01*
X83711118Y-87577736D01*
X83713278Y-87592297D01*
X83714000Y-87607000D01*
X83714000Y-87907000D01*
X83713278Y-87921703D01*
X83711118Y-87936264D01*
X83707541Y-87950543D01*
X83702582Y-87964403D01*
X83696288Y-87977710D01*
X83688720Y-87990336D01*
X83679952Y-88002159D01*
X83670066Y-88013066D01*
X83659159Y-88022952D01*
X83647336Y-88031720D01*
X83634710Y-88039288D01*
X83621403Y-88045582D01*
X83607543Y-88050541D01*
X83593264Y-88054118D01*
X83578703Y-88056278D01*
X83564000Y-88057000D01*
X81914000Y-88057000D01*
X81899297Y-88056278D01*
X81884736Y-88054118D01*
X81870457Y-88050541D01*
X81856597Y-88045582D01*
X81843290Y-88039288D01*
X81830664Y-88031720D01*
X81818841Y-88022952D01*
X81807934Y-88013066D01*
X81798048Y-88002159D01*
X81789280Y-87990336D01*
X81781712Y-87977710D01*
X81775418Y-87964403D01*
X81770459Y-87950543D01*
X81766882Y-87936264D01*
X81764722Y-87921703D01*
X81764000Y-87907000D01*
X81764000Y-87607000D01*
X81764722Y-87592297D01*
X81766882Y-87577736D01*
X81770459Y-87563457D01*
X81775418Y-87549597D01*
X81781712Y-87536290D01*
X81789280Y-87523664D01*
X81798048Y-87511841D01*
X81807934Y-87500934D01*
X81818841Y-87491048D01*
X81830664Y-87482280D01*
X81843290Y-87474712D01*
X81856597Y-87468418D01*
X81870457Y-87463459D01*
X81884736Y-87459882D01*
X81899297Y-87457722D01*
X81914000Y-87457000D01*
X83564000Y-87457000D01*
X83578703Y-87457722D01*
X83578703Y-87457722D01*
G37*
D13*
X82739000Y-87757000D03*
D10*
G36*
X83578703Y-86187722D02*
G01*
X83593264Y-86189882D01*
X83607543Y-86193459D01*
X83621403Y-86198418D01*
X83634710Y-86204712D01*
X83647336Y-86212280D01*
X83659159Y-86221048D01*
X83670066Y-86230934D01*
X83679952Y-86241841D01*
X83688720Y-86253664D01*
X83696288Y-86266290D01*
X83702582Y-86279597D01*
X83707541Y-86293457D01*
X83711118Y-86307736D01*
X83713278Y-86322297D01*
X83714000Y-86337000D01*
X83714000Y-86637000D01*
X83713278Y-86651703D01*
X83711118Y-86666264D01*
X83707541Y-86680543D01*
X83702582Y-86694403D01*
X83696288Y-86707710D01*
X83688720Y-86720336D01*
X83679952Y-86732159D01*
X83670066Y-86743066D01*
X83659159Y-86752952D01*
X83647336Y-86761720D01*
X83634710Y-86769288D01*
X83621403Y-86775582D01*
X83607543Y-86780541D01*
X83593264Y-86784118D01*
X83578703Y-86786278D01*
X83564000Y-86787000D01*
X81914000Y-86787000D01*
X81899297Y-86786278D01*
X81884736Y-86784118D01*
X81870457Y-86780541D01*
X81856597Y-86775582D01*
X81843290Y-86769288D01*
X81830664Y-86761720D01*
X81818841Y-86752952D01*
X81807934Y-86743066D01*
X81798048Y-86732159D01*
X81789280Y-86720336D01*
X81781712Y-86707710D01*
X81775418Y-86694403D01*
X81770459Y-86680543D01*
X81766882Y-86666264D01*
X81764722Y-86651703D01*
X81764000Y-86637000D01*
X81764000Y-86337000D01*
X81764722Y-86322297D01*
X81766882Y-86307736D01*
X81770459Y-86293457D01*
X81775418Y-86279597D01*
X81781712Y-86266290D01*
X81789280Y-86253664D01*
X81798048Y-86241841D01*
X81807934Y-86230934D01*
X81818841Y-86221048D01*
X81830664Y-86212280D01*
X81843290Y-86204712D01*
X81856597Y-86198418D01*
X81870457Y-86193459D01*
X81884736Y-86189882D01*
X81899297Y-86187722D01*
X81914000Y-86187000D01*
X83564000Y-86187000D01*
X83578703Y-86187722D01*
X83578703Y-86187722D01*
G37*
D13*
X82739000Y-86487000D03*
D10*
G36*
X83578703Y-84917722D02*
G01*
X83593264Y-84919882D01*
X83607543Y-84923459D01*
X83621403Y-84928418D01*
X83634710Y-84934712D01*
X83647336Y-84942280D01*
X83659159Y-84951048D01*
X83670066Y-84960934D01*
X83679952Y-84971841D01*
X83688720Y-84983664D01*
X83696288Y-84996290D01*
X83702582Y-85009597D01*
X83707541Y-85023457D01*
X83711118Y-85037736D01*
X83713278Y-85052297D01*
X83714000Y-85067000D01*
X83714000Y-85367000D01*
X83713278Y-85381703D01*
X83711118Y-85396264D01*
X83707541Y-85410543D01*
X83702582Y-85424403D01*
X83696288Y-85437710D01*
X83688720Y-85450336D01*
X83679952Y-85462159D01*
X83670066Y-85473066D01*
X83659159Y-85482952D01*
X83647336Y-85491720D01*
X83634710Y-85499288D01*
X83621403Y-85505582D01*
X83607543Y-85510541D01*
X83593264Y-85514118D01*
X83578703Y-85516278D01*
X83564000Y-85517000D01*
X81914000Y-85517000D01*
X81899297Y-85516278D01*
X81884736Y-85514118D01*
X81870457Y-85510541D01*
X81856597Y-85505582D01*
X81843290Y-85499288D01*
X81830664Y-85491720D01*
X81818841Y-85482952D01*
X81807934Y-85473066D01*
X81798048Y-85462159D01*
X81789280Y-85450336D01*
X81781712Y-85437710D01*
X81775418Y-85424403D01*
X81770459Y-85410543D01*
X81766882Y-85396264D01*
X81764722Y-85381703D01*
X81764000Y-85367000D01*
X81764000Y-85067000D01*
X81764722Y-85052297D01*
X81766882Y-85037736D01*
X81770459Y-85023457D01*
X81775418Y-85009597D01*
X81781712Y-84996290D01*
X81789280Y-84983664D01*
X81798048Y-84971841D01*
X81807934Y-84960934D01*
X81818841Y-84951048D01*
X81830664Y-84942280D01*
X81843290Y-84934712D01*
X81856597Y-84928418D01*
X81870457Y-84923459D01*
X81884736Y-84919882D01*
X81899297Y-84917722D01*
X81914000Y-84917000D01*
X83564000Y-84917000D01*
X83578703Y-84917722D01*
X83578703Y-84917722D01*
G37*
D13*
X82739000Y-85217000D03*
D10*
G36*
X78628703Y-84917722D02*
G01*
X78643264Y-84919882D01*
X78657543Y-84923459D01*
X78671403Y-84928418D01*
X78684710Y-84934712D01*
X78697336Y-84942280D01*
X78709159Y-84951048D01*
X78720066Y-84960934D01*
X78729952Y-84971841D01*
X78738720Y-84983664D01*
X78746288Y-84996290D01*
X78752582Y-85009597D01*
X78757541Y-85023457D01*
X78761118Y-85037736D01*
X78763278Y-85052297D01*
X78764000Y-85067000D01*
X78764000Y-85367000D01*
X78763278Y-85381703D01*
X78761118Y-85396264D01*
X78757541Y-85410543D01*
X78752582Y-85424403D01*
X78746288Y-85437710D01*
X78738720Y-85450336D01*
X78729952Y-85462159D01*
X78720066Y-85473066D01*
X78709159Y-85482952D01*
X78697336Y-85491720D01*
X78684710Y-85499288D01*
X78671403Y-85505582D01*
X78657543Y-85510541D01*
X78643264Y-85514118D01*
X78628703Y-85516278D01*
X78614000Y-85517000D01*
X76964000Y-85517000D01*
X76949297Y-85516278D01*
X76934736Y-85514118D01*
X76920457Y-85510541D01*
X76906597Y-85505582D01*
X76893290Y-85499288D01*
X76880664Y-85491720D01*
X76868841Y-85482952D01*
X76857934Y-85473066D01*
X76848048Y-85462159D01*
X76839280Y-85450336D01*
X76831712Y-85437710D01*
X76825418Y-85424403D01*
X76820459Y-85410543D01*
X76816882Y-85396264D01*
X76814722Y-85381703D01*
X76814000Y-85367000D01*
X76814000Y-85067000D01*
X76814722Y-85052297D01*
X76816882Y-85037736D01*
X76820459Y-85023457D01*
X76825418Y-85009597D01*
X76831712Y-84996290D01*
X76839280Y-84983664D01*
X76848048Y-84971841D01*
X76857934Y-84960934D01*
X76868841Y-84951048D01*
X76880664Y-84942280D01*
X76893290Y-84934712D01*
X76906597Y-84928418D01*
X76920457Y-84923459D01*
X76934736Y-84919882D01*
X76949297Y-84917722D01*
X76964000Y-84917000D01*
X78614000Y-84917000D01*
X78628703Y-84917722D01*
X78628703Y-84917722D01*
G37*
D13*
X77789000Y-85217000D03*
D10*
G36*
X78628703Y-86187722D02*
G01*
X78643264Y-86189882D01*
X78657543Y-86193459D01*
X78671403Y-86198418D01*
X78684710Y-86204712D01*
X78697336Y-86212280D01*
X78709159Y-86221048D01*
X78720066Y-86230934D01*
X78729952Y-86241841D01*
X78738720Y-86253664D01*
X78746288Y-86266290D01*
X78752582Y-86279597D01*
X78757541Y-86293457D01*
X78761118Y-86307736D01*
X78763278Y-86322297D01*
X78764000Y-86337000D01*
X78764000Y-86637000D01*
X78763278Y-86651703D01*
X78761118Y-86666264D01*
X78757541Y-86680543D01*
X78752582Y-86694403D01*
X78746288Y-86707710D01*
X78738720Y-86720336D01*
X78729952Y-86732159D01*
X78720066Y-86743066D01*
X78709159Y-86752952D01*
X78697336Y-86761720D01*
X78684710Y-86769288D01*
X78671403Y-86775582D01*
X78657543Y-86780541D01*
X78643264Y-86784118D01*
X78628703Y-86786278D01*
X78614000Y-86787000D01*
X76964000Y-86787000D01*
X76949297Y-86786278D01*
X76934736Y-86784118D01*
X76920457Y-86780541D01*
X76906597Y-86775582D01*
X76893290Y-86769288D01*
X76880664Y-86761720D01*
X76868841Y-86752952D01*
X76857934Y-86743066D01*
X76848048Y-86732159D01*
X76839280Y-86720336D01*
X76831712Y-86707710D01*
X76825418Y-86694403D01*
X76820459Y-86680543D01*
X76816882Y-86666264D01*
X76814722Y-86651703D01*
X76814000Y-86637000D01*
X76814000Y-86337000D01*
X76814722Y-86322297D01*
X76816882Y-86307736D01*
X76820459Y-86293457D01*
X76825418Y-86279597D01*
X76831712Y-86266290D01*
X76839280Y-86253664D01*
X76848048Y-86241841D01*
X76857934Y-86230934D01*
X76868841Y-86221048D01*
X76880664Y-86212280D01*
X76893290Y-86204712D01*
X76906597Y-86198418D01*
X76920457Y-86193459D01*
X76934736Y-86189882D01*
X76949297Y-86187722D01*
X76964000Y-86187000D01*
X78614000Y-86187000D01*
X78628703Y-86187722D01*
X78628703Y-86187722D01*
G37*
D13*
X77789000Y-86487000D03*
D10*
G36*
X78628703Y-87457722D02*
G01*
X78643264Y-87459882D01*
X78657543Y-87463459D01*
X78671403Y-87468418D01*
X78684710Y-87474712D01*
X78697336Y-87482280D01*
X78709159Y-87491048D01*
X78720066Y-87500934D01*
X78729952Y-87511841D01*
X78738720Y-87523664D01*
X78746288Y-87536290D01*
X78752582Y-87549597D01*
X78757541Y-87563457D01*
X78761118Y-87577736D01*
X78763278Y-87592297D01*
X78764000Y-87607000D01*
X78764000Y-87907000D01*
X78763278Y-87921703D01*
X78761118Y-87936264D01*
X78757541Y-87950543D01*
X78752582Y-87964403D01*
X78746288Y-87977710D01*
X78738720Y-87990336D01*
X78729952Y-88002159D01*
X78720066Y-88013066D01*
X78709159Y-88022952D01*
X78697336Y-88031720D01*
X78684710Y-88039288D01*
X78671403Y-88045582D01*
X78657543Y-88050541D01*
X78643264Y-88054118D01*
X78628703Y-88056278D01*
X78614000Y-88057000D01*
X76964000Y-88057000D01*
X76949297Y-88056278D01*
X76934736Y-88054118D01*
X76920457Y-88050541D01*
X76906597Y-88045582D01*
X76893290Y-88039288D01*
X76880664Y-88031720D01*
X76868841Y-88022952D01*
X76857934Y-88013066D01*
X76848048Y-88002159D01*
X76839280Y-87990336D01*
X76831712Y-87977710D01*
X76825418Y-87964403D01*
X76820459Y-87950543D01*
X76816882Y-87936264D01*
X76814722Y-87921703D01*
X76814000Y-87907000D01*
X76814000Y-87607000D01*
X76814722Y-87592297D01*
X76816882Y-87577736D01*
X76820459Y-87563457D01*
X76825418Y-87549597D01*
X76831712Y-87536290D01*
X76839280Y-87523664D01*
X76848048Y-87511841D01*
X76857934Y-87500934D01*
X76868841Y-87491048D01*
X76880664Y-87482280D01*
X76893290Y-87474712D01*
X76906597Y-87468418D01*
X76920457Y-87463459D01*
X76934736Y-87459882D01*
X76949297Y-87457722D01*
X76964000Y-87457000D01*
X78614000Y-87457000D01*
X78628703Y-87457722D01*
X78628703Y-87457722D01*
G37*
D13*
X77789000Y-87757000D03*
D10*
G36*
X78628703Y-88727722D02*
G01*
X78643264Y-88729882D01*
X78657543Y-88733459D01*
X78671403Y-88738418D01*
X78684710Y-88744712D01*
X78697336Y-88752280D01*
X78709159Y-88761048D01*
X78720066Y-88770934D01*
X78729952Y-88781841D01*
X78738720Y-88793664D01*
X78746288Y-88806290D01*
X78752582Y-88819597D01*
X78757541Y-88833457D01*
X78761118Y-88847736D01*
X78763278Y-88862297D01*
X78764000Y-88877000D01*
X78764000Y-89177000D01*
X78763278Y-89191703D01*
X78761118Y-89206264D01*
X78757541Y-89220543D01*
X78752582Y-89234403D01*
X78746288Y-89247710D01*
X78738720Y-89260336D01*
X78729952Y-89272159D01*
X78720066Y-89283066D01*
X78709159Y-89292952D01*
X78697336Y-89301720D01*
X78684710Y-89309288D01*
X78671403Y-89315582D01*
X78657543Y-89320541D01*
X78643264Y-89324118D01*
X78628703Y-89326278D01*
X78614000Y-89327000D01*
X76964000Y-89327000D01*
X76949297Y-89326278D01*
X76934736Y-89324118D01*
X76920457Y-89320541D01*
X76906597Y-89315582D01*
X76893290Y-89309288D01*
X76880664Y-89301720D01*
X76868841Y-89292952D01*
X76857934Y-89283066D01*
X76848048Y-89272159D01*
X76839280Y-89260336D01*
X76831712Y-89247710D01*
X76825418Y-89234403D01*
X76820459Y-89220543D01*
X76816882Y-89206264D01*
X76814722Y-89191703D01*
X76814000Y-89177000D01*
X76814000Y-88877000D01*
X76814722Y-88862297D01*
X76816882Y-88847736D01*
X76820459Y-88833457D01*
X76825418Y-88819597D01*
X76831712Y-88806290D01*
X76839280Y-88793664D01*
X76848048Y-88781841D01*
X76857934Y-88770934D01*
X76868841Y-88761048D01*
X76880664Y-88752280D01*
X76893290Y-88744712D01*
X76906597Y-88738418D01*
X76920457Y-88733459D01*
X76934736Y-88729882D01*
X76949297Y-88727722D01*
X76964000Y-88727000D01*
X78614000Y-88727000D01*
X78628703Y-88727722D01*
X78628703Y-88727722D01*
G37*
D13*
X77789000Y-89027000D03*
M02*
