G04 #@! TF.GenerationSoftware,KiCad,Pcbnew,(5.1.2-1)-1*
G04 #@! TF.CreationDate,2019-10-20T00:54:40-06:00*
G04 #@! TF.ProjectId,usb-target,7573622d-7461-4726-9765-742e6b696361,rev?*
G04 #@! TF.SameCoordinates,Original*
G04 #@! TF.FileFunction,Copper,L2,Bot*
G04 #@! TF.FilePolarity,Positive*
%FSLAX46Y46*%
G04 Gerber Fmt 4.6, Leading zero omitted, Abs format (unit mm)*
G04 Created by KiCad (PCBNEW (5.1.2-1)-1) date 2019-10-20 00:54:40*
%MOMM*%
%LPD*%
G04 APERTURE LIST*
%ADD10R,10.000000X10.000000*%
%ADD11C,0.762000*%
%ADD12C,0.508000*%
%ADD13C,0.254000*%
G04 APERTURE END LIST*
D10*
X63373000Y-86614000D03*
D11*
X84376500Y-91361500D03*
X79375000Y-91313000D03*
X69596000Y-82804000D03*
X73914000Y-86614000D03*
X81280000Y-86614000D03*
D12*
X79423500Y-91361500D02*
X79375000Y-91313000D01*
X84376500Y-91361500D02*
X79423500Y-91361500D01*
X69596000Y-82804000D02*
X71120000Y-82804000D01*
X71120000Y-82804000D02*
X74930000Y-86614000D01*
X78752764Y-86614000D02*
X74930000Y-86614000D01*
X81222882Y-84143882D02*
X78752764Y-86614000D01*
D13*
G36*
X94107000Y-92074555D02*
G01*
X84952688Y-92042547D01*
X85067031Y-91928204D01*
X85164321Y-91782599D01*
X85231336Y-91620812D01*
X85265500Y-91449059D01*
X85265500Y-91273941D01*
X85231336Y-91102188D01*
X85164321Y-90940401D01*
X85067031Y-90794796D01*
X84943204Y-90670969D01*
X84797599Y-90573679D01*
X84635812Y-90506664D01*
X84464059Y-90472500D01*
X84288941Y-90472500D01*
X84117188Y-90506664D01*
X83955401Y-90573679D01*
X83916757Y-90599500D01*
X79907328Y-90599500D01*
X79796099Y-90525179D01*
X79634312Y-90458164D01*
X79462559Y-90424000D01*
X79287441Y-90424000D01*
X79115688Y-90458164D01*
X78953901Y-90525179D01*
X78808296Y-90622469D01*
X78684469Y-90746296D01*
X78587179Y-90891901D01*
X78520164Y-91053688D01*
X78486000Y-91225441D01*
X78486000Y-91400559D01*
X78520164Y-91572312D01*
X78587179Y-91734099D01*
X78684469Y-91879704D01*
X78808296Y-92003531D01*
X78834673Y-92021156D01*
X68888858Y-91986380D01*
X68903537Y-91968494D01*
X68962502Y-91858180D01*
X68998812Y-91738482D01*
X69011072Y-91614000D01*
X69008000Y-86899750D01*
X68849250Y-86741000D01*
X63500000Y-86741000D01*
X63500000Y-86761000D01*
X63246000Y-86761000D01*
X63246000Y-86741000D01*
X63226000Y-86741000D01*
X63226000Y-86487000D01*
X63246000Y-86487000D01*
X63246000Y-86467000D01*
X63500000Y-86467000D01*
X63500000Y-86487000D01*
X68849250Y-86487000D01*
X69008000Y-86328250D01*
X69011072Y-81614000D01*
X68998812Y-81489518D01*
X68962502Y-81369820D01*
X68914491Y-81280000D01*
X94107000Y-81280000D01*
X94107000Y-92074555D01*
X94107000Y-92074555D01*
G37*
X94107000Y-92074555D02*
X84952688Y-92042547D01*
X85067031Y-91928204D01*
X85164321Y-91782599D01*
X85231336Y-91620812D01*
X85265500Y-91449059D01*
X85265500Y-91273941D01*
X85231336Y-91102188D01*
X85164321Y-90940401D01*
X85067031Y-90794796D01*
X84943204Y-90670969D01*
X84797599Y-90573679D01*
X84635812Y-90506664D01*
X84464059Y-90472500D01*
X84288941Y-90472500D01*
X84117188Y-90506664D01*
X83955401Y-90573679D01*
X83916757Y-90599500D01*
X79907328Y-90599500D01*
X79796099Y-90525179D01*
X79634312Y-90458164D01*
X79462559Y-90424000D01*
X79287441Y-90424000D01*
X79115688Y-90458164D01*
X78953901Y-90525179D01*
X78808296Y-90622469D01*
X78684469Y-90746296D01*
X78587179Y-90891901D01*
X78520164Y-91053688D01*
X78486000Y-91225441D01*
X78486000Y-91400559D01*
X78520164Y-91572312D01*
X78587179Y-91734099D01*
X78684469Y-91879704D01*
X78808296Y-92003531D01*
X78834673Y-92021156D01*
X68888858Y-91986380D01*
X68903537Y-91968494D01*
X68962502Y-91858180D01*
X68998812Y-91738482D01*
X69011072Y-91614000D01*
X69008000Y-86899750D01*
X68849250Y-86741000D01*
X63500000Y-86741000D01*
X63500000Y-86761000D01*
X63246000Y-86761000D01*
X63246000Y-86741000D01*
X63226000Y-86741000D01*
X63226000Y-86487000D01*
X63246000Y-86487000D01*
X63246000Y-86467000D01*
X63500000Y-86467000D01*
X63500000Y-86487000D01*
X68849250Y-86487000D01*
X69008000Y-86328250D01*
X69011072Y-81614000D01*
X68998812Y-81489518D01*
X68962502Y-81369820D01*
X68914491Y-81280000D01*
X94107000Y-81280000D01*
X94107000Y-92074555D01*
M02*
