G04 #@! TF.GenerationSoftware,KiCad,Pcbnew,(5.1.2-1)-1*
G04 #@! TF.CreationDate,2019-10-10T21:18:58-06:00*
G04 #@! TF.ProjectId,usb-target,7573622d-7461-4726-9765-742e6b696361,rev?*
G04 #@! TF.SameCoordinates,Original*
G04 #@! TF.FileFunction,Copper,L2,Bot*
G04 #@! TF.FilePolarity,Positive*
%FSLAX46Y46*%
G04 Gerber Fmt 4.6, Leading zero omitted, Abs format (unit mm)*
G04 Created by KiCad (PCBNEW (5.1.2-1)-1) date 2019-10-10 21:18:58*
%MOMM*%
%LPD*%
G04 APERTURE LIST*
%ADD10R,10.000000X10.000000*%
%ADD11C,0.762000*%
%ADD12C,0.508000*%
%ADD13C,0.254000*%
G04 APERTURE END LIST*
D10*
X63373000Y-86614000D03*
D11*
X76550000Y-90266000D03*
X84328000Y-91313000D03*
X69596000Y-82804000D03*
X74930000Y-86614000D03*
X84455000Y-84709000D03*
X81026000Y-84709000D03*
X78994000Y-91186000D03*
D12*
X83281000Y-90266000D02*
X76550000Y-90266000D01*
X84328000Y-91313000D02*
X83281000Y-90266000D01*
X69596000Y-82804000D02*
X71120000Y-82804000D01*
X71120000Y-82804000D02*
X74930000Y-86614000D01*
X75692001Y-87376001D02*
X75310999Y-86994999D01*
X75310999Y-86994999D02*
X74930000Y-86614000D01*
X80563721Y-87376001D02*
X75692001Y-87376001D01*
X83230722Y-84709000D02*
X80563721Y-87376001D01*
X84455000Y-84709000D02*
X83230722Y-84709000D01*
X78752764Y-86614000D02*
X74930000Y-86614000D01*
X81222882Y-84143882D02*
X78752764Y-86614000D01*
X67945000Y-91186000D02*
X63373000Y-86614000D01*
X78994000Y-91186000D02*
X67945000Y-91186000D01*
D13*
G36*
X94107000Y-92074555D02*
G01*
X84836918Y-92042142D01*
X84894704Y-92003531D01*
X85018531Y-91879704D01*
X85115821Y-91734099D01*
X85182836Y-91572312D01*
X85217000Y-91400559D01*
X85217000Y-91225441D01*
X85182836Y-91053688D01*
X85115821Y-90891901D01*
X85018531Y-90746296D01*
X84894704Y-90622469D01*
X84749099Y-90525179D01*
X84587312Y-90458164D01*
X84541726Y-90449096D01*
X83846284Y-89753654D01*
X83822422Y-89724578D01*
X83706392Y-89629355D01*
X83574015Y-89558598D01*
X83430378Y-89515026D01*
X83318426Y-89504000D01*
X83318423Y-89504000D01*
X83281000Y-89500314D01*
X83243577Y-89504000D01*
X77009743Y-89504000D01*
X76971099Y-89478179D01*
X76809312Y-89411164D01*
X76637559Y-89377000D01*
X76462441Y-89377000D01*
X76290688Y-89411164D01*
X76128901Y-89478179D01*
X75983296Y-89575469D01*
X75859469Y-89699296D01*
X75762179Y-89844901D01*
X75695164Y-90006688D01*
X75661000Y-90178441D01*
X75661000Y-90353559D01*
X75675012Y-90424000D01*
X68883457Y-90424000D01*
X68883457Y-81614000D01*
X68873649Y-81514415D01*
X68844601Y-81418657D01*
X68797429Y-81330405D01*
X68756063Y-81280000D01*
X94107000Y-81280000D01*
X94107000Y-92074555D01*
X94107000Y-92074555D01*
G37*
X94107000Y-92074555D02*
X84836918Y-92042142D01*
X84894704Y-92003531D01*
X85018531Y-91879704D01*
X85115821Y-91734099D01*
X85182836Y-91572312D01*
X85217000Y-91400559D01*
X85217000Y-91225441D01*
X85182836Y-91053688D01*
X85115821Y-90891901D01*
X85018531Y-90746296D01*
X84894704Y-90622469D01*
X84749099Y-90525179D01*
X84587312Y-90458164D01*
X84541726Y-90449096D01*
X83846284Y-89753654D01*
X83822422Y-89724578D01*
X83706392Y-89629355D01*
X83574015Y-89558598D01*
X83430378Y-89515026D01*
X83318426Y-89504000D01*
X83318423Y-89504000D01*
X83281000Y-89500314D01*
X83243577Y-89504000D01*
X77009743Y-89504000D01*
X76971099Y-89478179D01*
X76809312Y-89411164D01*
X76637559Y-89377000D01*
X76462441Y-89377000D01*
X76290688Y-89411164D01*
X76128901Y-89478179D01*
X75983296Y-89575469D01*
X75859469Y-89699296D01*
X75762179Y-89844901D01*
X75695164Y-90006688D01*
X75661000Y-90178441D01*
X75661000Y-90353559D01*
X75675012Y-90424000D01*
X68883457Y-90424000D01*
X68883457Y-81614000D01*
X68873649Y-81514415D01*
X68844601Y-81418657D01*
X68797429Y-81330405D01*
X68756063Y-81280000D01*
X94107000Y-81280000D01*
X94107000Y-92074555D01*
M02*
