G04 #@! TF.GenerationSoftware,KiCad,Pcbnew,(5.1.2-1)-1*
G04 #@! TF.CreationDate,2019-10-10T21:18:58-06:00*
G04 #@! TF.ProjectId,usb-target,7573622d-7461-4726-9765-742e6b696361,rev?*
G04 #@! TF.SameCoordinates,Original*
G04 #@! TF.FileFunction,Legend,Bot*
G04 #@! TF.FilePolarity,Positive*
%FSLAX46Y46*%
G04 Gerber Fmt 4.6, Leading zero omitted, Abs format (unit mm)*
G04 Created by KiCad (PCBNEW (5.1.2-1)-1) date 2019-10-10 21:18:58*
%MOMM*%
%LPD*%
G04 APERTURE LIST*
%ADD10C,0.120000*%
%ADD11C,0.203200*%
%ADD12C,0.254000*%
G04 APERTURE END LIST*
D10*
X88773000Y-99441000D02*
X120396000Y-80518000D01*
X69088000Y-80645000D02*
X88773000Y-99441000D01*
D11*
X76904184Y-89631761D02*
X76964660Y-89571285D01*
X77085613Y-89510809D01*
X77206565Y-89510809D01*
X77327518Y-89571285D01*
X77387994Y-89631761D01*
X77448470Y-89752714D01*
X77448470Y-89873666D01*
X77387994Y-89994619D01*
X77327518Y-90055095D01*
X77206565Y-90115571D01*
X77085613Y-90115571D01*
X76964660Y-90055095D01*
X76904184Y-89994619D01*
X76904184Y-89510809D02*
X76904184Y-89994619D01*
X76843708Y-90055095D01*
X76783232Y-90055095D01*
X76662280Y-89994619D01*
X76601803Y-89873666D01*
X76601803Y-89571285D01*
X76722756Y-89389857D01*
X76904184Y-89268904D01*
X77146089Y-89208428D01*
X77387994Y-89268904D01*
X77569422Y-89389857D01*
X77690375Y-89571285D01*
X77750851Y-89813190D01*
X77690375Y-90055095D01*
X77569422Y-90236523D01*
X77387994Y-90357476D01*
X77146089Y-90417952D01*
X76904184Y-90357476D01*
X76722756Y-90236523D01*
X76057518Y-90236523D02*
X76057518Y-88966523D01*
X75936565Y-89752714D02*
X75573708Y-90236523D01*
X75573708Y-89389857D02*
X76057518Y-89873666D01*
X75210851Y-89389857D02*
X74727041Y-89389857D01*
X75029422Y-88966523D02*
X75029422Y-90055095D01*
X74968946Y-90176047D01*
X74847994Y-90236523D01*
X74727041Y-90236523D01*
X73819899Y-90176047D02*
X73940851Y-90236523D01*
X74182756Y-90236523D01*
X74303708Y-90176047D01*
X74364184Y-90055095D01*
X74364184Y-89571285D01*
X74303708Y-89450333D01*
X74182756Y-89389857D01*
X73940851Y-89389857D01*
X73819899Y-89450333D01*
X73759422Y-89571285D01*
X73759422Y-89692238D01*
X74364184Y-89813190D01*
X73215137Y-90236523D02*
X73215137Y-89389857D01*
X73215137Y-89510809D02*
X73154660Y-89450333D01*
X73033708Y-89389857D01*
X72852280Y-89389857D01*
X72731327Y-89450333D01*
X72670851Y-89571285D01*
X72670851Y-90236523D01*
X72670851Y-89571285D02*
X72610375Y-89450333D01*
X72489422Y-89389857D01*
X72307994Y-89389857D01*
X72187041Y-89450333D01*
X72126565Y-89571285D01*
X72126565Y-90236523D01*
X71521803Y-90236523D02*
X71521803Y-88966523D01*
X71400851Y-89752714D02*
X71037994Y-90236523D01*
X71037994Y-89389857D02*
X71521803Y-89873666D01*
X70493708Y-90236523D02*
X70493708Y-89389857D01*
X70493708Y-88966523D02*
X70554184Y-89027000D01*
X70493708Y-89087476D01*
X70433232Y-89027000D01*
X70493708Y-88966523D01*
X70493708Y-89087476D01*
X69888946Y-89389857D02*
X69888946Y-90236523D01*
X69888946Y-89510809D02*
X69828470Y-89450333D01*
X69707518Y-89389857D01*
X69526089Y-89389857D01*
X69405137Y-89450333D01*
X69344660Y-89571285D01*
X69344660Y-90236523D01*
X83103961Y-88483923D02*
X83103961Y-87213923D01*
X82983009Y-88000114D02*
X82620152Y-88483923D01*
X82620152Y-87637257D02*
X83103961Y-88121066D01*
X81289676Y-87879161D02*
X81350152Y-87818685D01*
X81471104Y-87758209D01*
X81592057Y-87758209D01*
X81713009Y-87818685D01*
X81773485Y-87879161D01*
X81833961Y-88000114D01*
X81833961Y-88121066D01*
X81773485Y-88242019D01*
X81713009Y-88302495D01*
X81592057Y-88362971D01*
X81471104Y-88362971D01*
X81350152Y-88302495D01*
X81289676Y-88242019D01*
X81289676Y-87758209D02*
X81289676Y-88242019D01*
X81229200Y-88302495D01*
X81168723Y-88302495D01*
X81047771Y-88242019D01*
X80987295Y-88121066D01*
X80987295Y-87818685D01*
X81108247Y-87637257D01*
X81289676Y-87516304D01*
X81531580Y-87455828D01*
X81773485Y-87516304D01*
X81954914Y-87637257D01*
X82075866Y-87818685D01*
X82136342Y-88060590D01*
X82075866Y-88302495D01*
X81954914Y-88483923D01*
X81773485Y-88604876D01*
X81531580Y-88665352D01*
X81289676Y-88604876D01*
X81108247Y-88483923D01*
X80443009Y-88483923D02*
X80443009Y-87213923D01*
X80322057Y-88000114D02*
X79959200Y-88483923D01*
X79959200Y-87637257D02*
X80443009Y-88121066D01*
X79596342Y-87637257D02*
X79112533Y-87637257D01*
X79414914Y-87213923D02*
X79414914Y-88302495D01*
X79354438Y-88423447D01*
X79233485Y-88483923D01*
X79112533Y-88483923D01*
X78205390Y-88423447D02*
X78326342Y-88483923D01*
X78568247Y-88483923D01*
X78689200Y-88423447D01*
X78749676Y-88302495D01*
X78749676Y-87818685D01*
X78689200Y-87697733D01*
X78568247Y-87637257D01*
X78326342Y-87637257D01*
X78205390Y-87697733D01*
X78144914Y-87818685D01*
X78144914Y-87939638D01*
X78749676Y-88060590D01*
X77600628Y-88483923D02*
X77600628Y-87637257D01*
X77600628Y-87758209D02*
X77540152Y-87697733D01*
X77419200Y-87637257D01*
X77237771Y-87637257D01*
X77116819Y-87697733D01*
X77056342Y-87818685D01*
X77056342Y-88483923D01*
X77056342Y-87818685D02*
X76995866Y-87697733D01*
X76874914Y-87637257D01*
X76693485Y-87637257D01*
X76572533Y-87697733D01*
X76512057Y-87818685D01*
X76512057Y-88483923D01*
X75907295Y-88483923D02*
X75907295Y-87213923D01*
X75786342Y-88000114D02*
X75423485Y-88483923D01*
X75423485Y-87637257D02*
X75907295Y-88121066D01*
X74879200Y-88483923D02*
X74879200Y-87637257D01*
X74879200Y-87213923D02*
X74939676Y-87274400D01*
X74879200Y-87334876D01*
X74818723Y-87274400D01*
X74879200Y-87213923D01*
X74879200Y-87334876D01*
X74274438Y-87637257D02*
X74274438Y-88483923D01*
X74274438Y-87758209D02*
X74213961Y-87697733D01*
X74093009Y-87637257D01*
X73911580Y-87637257D01*
X73790628Y-87697733D01*
X73730152Y-87818685D01*
X73730152Y-88483923D01*
X73125390Y-88362971D02*
X73064914Y-88423447D01*
X73125390Y-88483923D01*
X73185866Y-88423447D01*
X73125390Y-88362971D01*
X73125390Y-88483923D01*
X71976342Y-88423447D02*
X72097295Y-88483923D01*
X72339200Y-88483923D01*
X72460152Y-88423447D01*
X72520628Y-88362971D01*
X72581104Y-88242019D01*
X72581104Y-87879161D01*
X72520628Y-87758209D01*
X72460152Y-87697733D01*
X72339200Y-87637257D01*
X72097295Y-87637257D01*
X71976342Y-87697733D01*
X71250628Y-88483923D02*
X71371580Y-88423447D01*
X71432057Y-88362971D01*
X71492533Y-88242019D01*
X71492533Y-87879161D01*
X71432057Y-87758209D01*
X71371580Y-87697733D01*
X71250628Y-87637257D01*
X71069200Y-87637257D01*
X70948247Y-87697733D01*
X70887771Y-87758209D01*
X70827295Y-87879161D01*
X70827295Y-88242019D01*
X70887771Y-88362971D01*
X70948247Y-88423447D01*
X71069200Y-88483923D01*
X71250628Y-88483923D01*
X70283009Y-88483923D02*
X70283009Y-87637257D01*
X70283009Y-87758209D02*
X70222533Y-87697733D01*
X70101580Y-87637257D01*
X69920152Y-87637257D01*
X69799200Y-87697733D01*
X69738723Y-87818685D01*
X69738723Y-88483923D01*
X69738723Y-87818685D02*
X69678247Y-87697733D01*
X69557295Y-87637257D01*
X69375866Y-87637257D01*
X69254914Y-87697733D01*
X69194438Y-87818685D01*
X69194438Y-88483923D01*
X88355714Y-85830228D02*
X88355714Y-84306228D01*
X88355714Y-85031942D02*
X87484857Y-85031942D01*
X87484857Y-85830228D02*
X87484857Y-84306228D01*
X86106000Y-85830228D02*
X86106000Y-85031942D01*
X86178571Y-84886800D01*
X86323714Y-84814228D01*
X86614000Y-84814228D01*
X86759142Y-84886800D01*
X86106000Y-85757657D02*
X86251142Y-85830228D01*
X86614000Y-85830228D01*
X86759142Y-85757657D01*
X86831714Y-85612514D01*
X86831714Y-85467371D01*
X86759142Y-85322228D01*
X86614000Y-85249657D01*
X86251142Y-85249657D01*
X86106000Y-85177085D01*
X85380285Y-85830228D02*
X85380285Y-84814228D01*
X85380285Y-85104514D02*
X85307714Y-84959371D01*
X85235142Y-84886800D01*
X85090000Y-84814228D01*
X84944857Y-84814228D01*
X83783714Y-85830228D02*
X83783714Y-84306228D01*
X83783714Y-85757657D02*
X83928857Y-85830228D01*
X84219142Y-85830228D01*
X84364285Y-85757657D01*
X84436857Y-85685085D01*
X84509428Y-85539942D01*
X84509428Y-85104514D01*
X84436857Y-84959371D01*
X84364285Y-84886800D01*
X84219142Y-84814228D01*
X83928857Y-84814228D01*
X83783714Y-84886800D01*
X83203142Y-84814228D02*
X82912857Y-85830228D01*
X82622571Y-85104514D01*
X82332285Y-85830228D01*
X82042000Y-84814228D01*
X80808285Y-85830228D02*
X80808285Y-85031942D01*
X80880857Y-84886800D01*
X81026000Y-84814228D01*
X81316285Y-84814228D01*
X81461428Y-84886800D01*
X80808285Y-85757657D02*
X80953428Y-85830228D01*
X81316285Y-85830228D01*
X81461428Y-85757657D01*
X81534000Y-85612514D01*
X81534000Y-85467371D01*
X81461428Y-85322228D01*
X81316285Y-85249657D01*
X80953428Y-85249657D01*
X80808285Y-85177085D01*
X80082571Y-85830228D02*
X80082571Y-84814228D01*
X80082571Y-85104514D02*
X80010000Y-84959371D01*
X79937428Y-84886800D01*
X79792285Y-84814228D01*
X79647142Y-84814228D01*
X78558571Y-85757657D02*
X78703714Y-85830228D01*
X78994000Y-85830228D01*
X79139142Y-85757657D01*
X79211714Y-85612514D01*
X79211714Y-85031942D01*
X79139142Y-84886800D01*
X78994000Y-84814228D01*
X78703714Y-84814228D01*
X78558571Y-84886800D01*
X78486000Y-85031942D01*
X78486000Y-85177085D01*
X79211714Y-85322228D01*
X76671714Y-85830228D02*
X76671714Y-84306228D01*
X76671714Y-85031942D02*
X75800857Y-85031942D01*
X75800857Y-85830228D02*
X75800857Y-84306228D01*
X74422000Y-85830228D02*
X74422000Y-85031942D01*
X74494571Y-84886800D01*
X74639714Y-84814228D01*
X74930000Y-84814228D01*
X75075142Y-84886800D01*
X74422000Y-85757657D02*
X74567142Y-85830228D01*
X74930000Y-85830228D01*
X75075142Y-85757657D01*
X75147714Y-85612514D01*
X75147714Y-85467371D01*
X75075142Y-85322228D01*
X74930000Y-85249657D01*
X74567142Y-85249657D01*
X74422000Y-85177085D01*
X73043142Y-85757657D02*
X73188285Y-85830228D01*
X73478571Y-85830228D01*
X73623714Y-85757657D01*
X73696285Y-85685085D01*
X73768857Y-85539942D01*
X73768857Y-85104514D01*
X73696285Y-84959371D01*
X73623714Y-84886800D01*
X73478571Y-84814228D01*
X73188285Y-84814228D01*
X73043142Y-84886800D01*
X72390000Y-85830228D02*
X72390000Y-84306228D01*
X72244857Y-85249657D02*
X71809428Y-85830228D01*
X71809428Y-84814228D02*
X72390000Y-85394800D01*
X70575714Y-85757657D02*
X70720857Y-85830228D01*
X71011142Y-85830228D01*
X71156285Y-85757657D01*
X71228857Y-85612514D01*
X71228857Y-85031942D01*
X71156285Y-84886800D01*
X71011142Y-84814228D01*
X70720857Y-84814228D01*
X70575714Y-84886800D01*
X70503142Y-85031942D01*
X70503142Y-85177085D01*
X71228857Y-85322228D01*
X69850000Y-85830228D02*
X69850000Y-84814228D01*
X69850000Y-85104514D02*
X69777428Y-84959371D01*
X69704857Y-84886800D01*
X69559714Y-84814228D01*
X69414571Y-84814228D01*
D12*
X88353295Y-83850238D02*
X88353295Y-81818238D01*
X87192152Y-83850238D02*
X88063009Y-82689095D01*
X87192152Y-81818238D02*
X88353295Y-82979380D01*
X85450438Y-83850238D02*
X85450438Y-82785857D01*
X85547200Y-82592333D01*
X85740723Y-82495571D01*
X86127771Y-82495571D01*
X86321295Y-82592333D01*
X85450438Y-83753476D02*
X85643961Y-83850238D01*
X86127771Y-83850238D01*
X86321295Y-83753476D01*
X86418057Y-83559952D01*
X86418057Y-83366428D01*
X86321295Y-83172904D01*
X86127771Y-83076142D01*
X85643961Y-83076142D01*
X85450438Y-82979380D01*
X84773104Y-82495571D02*
X83999009Y-82495571D01*
X84482819Y-81818238D02*
X84482819Y-83559952D01*
X84386057Y-83753476D01*
X84192533Y-83850238D01*
X83999009Y-83850238D01*
X82547580Y-83753476D02*
X82741104Y-83850238D01*
X83128152Y-83850238D01*
X83321676Y-83753476D01*
X83418438Y-83559952D01*
X83418438Y-82785857D01*
X83321676Y-82592333D01*
X83128152Y-82495571D01*
X82741104Y-82495571D01*
X82547580Y-82592333D01*
X82450819Y-82785857D01*
X82450819Y-82979380D01*
X83418438Y-83172904D01*
X80322057Y-81818238D02*
X79160914Y-81818238D01*
X79741485Y-83850238D02*
X79741485Y-81818238D01*
X77709485Y-83753476D02*
X77903009Y-83850238D01*
X78290057Y-83850238D01*
X78483580Y-83753476D01*
X78580342Y-83559952D01*
X78580342Y-82785857D01*
X78483580Y-82592333D01*
X78290057Y-82495571D01*
X77903009Y-82495571D01*
X77709485Y-82592333D01*
X77612723Y-82785857D01*
X77612723Y-82979380D01*
X78580342Y-83172904D01*
X76741866Y-83850238D02*
X76741866Y-82495571D01*
X76741866Y-82689095D02*
X76645104Y-82592333D01*
X76451580Y-82495571D01*
X76161295Y-82495571D01*
X75967771Y-82592333D01*
X75871009Y-82785857D01*
X75871009Y-83850238D01*
X75871009Y-82785857D02*
X75774247Y-82592333D01*
X75580723Y-82495571D01*
X75290438Y-82495571D01*
X75096914Y-82592333D01*
X75000152Y-82785857D01*
X75000152Y-83850238D01*
X74032533Y-83850238D02*
X74032533Y-81818238D01*
X73839009Y-83076142D02*
X73258438Y-83850238D01*
X73258438Y-82495571D02*
X74032533Y-83269666D01*
X72387580Y-83850238D02*
X72387580Y-82495571D01*
X72387580Y-81818238D02*
X72484342Y-81915000D01*
X72387580Y-82011761D01*
X72290819Y-81915000D01*
X72387580Y-81818238D01*
X72387580Y-82011761D01*
X71419961Y-82495571D02*
X71419961Y-83850238D01*
X71419961Y-82689095D02*
X71323200Y-82592333D01*
X71129676Y-82495571D01*
X70839390Y-82495571D01*
X70645866Y-82592333D01*
X70549104Y-82785857D01*
X70549104Y-83850238D01*
M02*
