G04 #@! TF.GenerationSoftware,KiCad,Pcbnew,(5.1.2-1)-1*
G04 #@! TF.CreationDate,2019-10-10T21:18:58-06:00*
G04 #@! TF.ProjectId,usb-target,7573622d-7461-4726-9765-742e6b696361,rev?*
G04 #@! TF.SameCoordinates,Original*
G04 #@! TF.FileFunction,Soldermask,Top*
G04 #@! TF.FilePolarity,Negative*
%FSLAX46Y46*%
G04 Gerber Fmt 4.6, Leading zero omitted, Abs format (unit mm)*
G04 Created by KiCad (PCBNEW (5.1.2-1)-1) date 2019-10-10 21:18:58*
%MOMM*%
%LPD*%
G04 APERTURE LIST*
%ADD10C,0.010000*%
%ADD11C,0.100000*%
G04 APERTURE END LIST*
D10*
G36*
X89497192Y-81456152D02*
G01*
X89549167Y-81478391D01*
X89615283Y-81524018D01*
X89700327Y-81596024D01*
X89809085Y-81697403D01*
X89946345Y-81831145D01*
X90011890Y-81895949D01*
X90136017Y-82020394D01*
X90248581Y-82135952D01*
X90344288Y-82236966D01*
X90417841Y-82317782D01*
X90463945Y-82372744D01*
X90476999Y-82392677D01*
X90486311Y-82439114D01*
X90475267Y-82490222D01*
X90439845Y-82552189D01*
X90376022Y-82631201D01*
X90279775Y-82733447D01*
X90209931Y-82803439D01*
X89992200Y-83018778D01*
X89992200Y-84690829D01*
X89992238Y-85023011D01*
X89992422Y-85307929D01*
X89992853Y-85549116D01*
X89993633Y-85750109D01*
X89994863Y-85914443D01*
X89996645Y-86045653D01*
X89999082Y-86147273D01*
X90002274Y-86222840D01*
X90006324Y-86275887D01*
X90011333Y-86309951D01*
X90017403Y-86328567D01*
X90024636Y-86335269D01*
X90033134Y-86333593D01*
X90039377Y-86329690D01*
X90086571Y-86291446D01*
X90159920Y-86225942D01*
X90252751Y-86139704D01*
X90358391Y-86039263D01*
X90470168Y-85931146D01*
X90581408Y-85821882D01*
X90685438Y-85718000D01*
X90775586Y-85626027D01*
X90845179Y-85552494D01*
X90887543Y-85503927D01*
X90896294Y-85491311D01*
X90907873Y-85458080D01*
X90916823Y-85404555D01*
X90923420Y-85325150D01*
X90927944Y-85214277D01*
X90930670Y-85066352D01*
X90931878Y-84875787D01*
X90932000Y-84772606D01*
X90932102Y-84574312D01*
X90932759Y-84420515D01*
X90934493Y-84304915D01*
X90937826Y-84221210D01*
X90943281Y-84163098D01*
X90951381Y-84124277D01*
X90962647Y-84098445D01*
X90977604Y-84079301D01*
X90990559Y-84066495D01*
X91029627Y-84028985D01*
X91096902Y-83964235D01*
X91184040Y-83880283D01*
X91282694Y-83785169D01*
X91318999Y-83750149D01*
X91442622Y-83633049D01*
X91538780Y-83550992D01*
X91615457Y-83502630D01*
X91680633Y-83486617D01*
X91742292Y-83501605D01*
X91808415Y-83546248D01*
X91886984Y-83619198D01*
X91916983Y-83649233D01*
X92003001Y-83740035D01*
X92056817Y-83813087D01*
X92077251Y-83877276D01*
X92063127Y-83941488D01*
X92013265Y-84014609D01*
X91926488Y-84105525D01*
X91846400Y-84181480D01*
X91617800Y-84394792D01*
X91617424Y-84888446D01*
X91615049Y-85131740D01*
X91606090Y-85332976D01*
X91587185Y-85500791D01*
X91554974Y-85643824D01*
X91506096Y-85770715D01*
X91437191Y-85890101D01*
X91344897Y-86010622D01*
X91225853Y-86140916D01*
X91076698Y-86289622D01*
X91069622Y-86296500D01*
X90930968Y-86430248D01*
X90775359Y-86578870D01*
X90618057Y-86727879D01*
X90474322Y-86862787D01*
X90414069Y-86918800D01*
X90275812Y-87050864D01*
X90165260Y-87165009D01*
X90086597Y-87256695D01*
X90045359Y-87318573D01*
X90031477Y-87348630D01*
X90020245Y-87380450D01*
X90011384Y-87419482D01*
X90004614Y-87471174D01*
X89999653Y-87540974D01*
X89996223Y-87634330D01*
X89994043Y-87756691D01*
X89992832Y-87913503D01*
X89992311Y-88110216D01*
X89992200Y-88352277D01*
X89992200Y-89278622D01*
X90110826Y-89331097D01*
X90287002Y-89434729D01*
X90443254Y-89576472D01*
X90569746Y-89745257D01*
X90656645Y-89930014D01*
X90664361Y-89954100D01*
X90689623Y-90081541D01*
X90700807Y-90236520D01*
X90697913Y-90397763D01*
X90680941Y-90543996D01*
X90664361Y-90614500D01*
X90582263Y-90802280D01*
X90458708Y-90973931D01*
X90302586Y-91120080D01*
X90122790Y-91231352D01*
X90049402Y-91262809D01*
X89889465Y-91306241D01*
X89710745Y-91327508D01*
X89534417Y-91325407D01*
X89387614Y-91300447D01*
X89172481Y-91215637D01*
X88987490Y-91091810D01*
X88836411Y-90931651D01*
X88803305Y-90884621D01*
X88727117Y-90759865D01*
X88677479Y-90649515D01*
X88647567Y-90533128D01*
X88630557Y-90390257D01*
X88628362Y-90360500D01*
X88634916Y-90124364D01*
X88686543Y-89906011D01*
X88780692Y-89709868D01*
X88914811Y-89540363D01*
X89086349Y-89401920D01*
X89223850Y-89327428D01*
X89331800Y-89278622D01*
X89331800Y-89041686D01*
X89329990Y-88926084D01*
X89325158Y-88820217D01*
X89318199Y-88741150D01*
X89314970Y-88720603D01*
X89306676Y-88691093D01*
X89291213Y-88658840D01*
X89265086Y-88620162D01*
X89224802Y-88571375D01*
X89166867Y-88508795D01*
X89087789Y-88428740D01*
X88984074Y-88327525D01*
X88852227Y-88201469D01*
X88688757Y-88046886D01*
X88569667Y-87934800D01*
X88400103Y-87774930D01*
X88263334Y-87644467D01*
X88154816Y-87538370D01*
X88070008Y-87451595D01*
X88004370Y-87379102D01*
X87953359Y-87315848D01*
X87912434Y-87256791D01*
X87877054Y-87196889D01*
X87842677Y-87131101D01*
X87838815Y-87123393D01*
X87744300Y-86934287D01*
X87718900Y-84842963D01*
X87522050Y-84632973D01*
X87420845Y-84520358D01*
X87356100Y-84432759D01*
X87326177Y-84361583D01*
X87329442Y-84298237D01*
X87364260Y-84234130D01*
X87428995Y-84160668D01*
X87431648Y-84157959D01*
X87538097Y-84049496D01*
X87482448Y-83990261D01*
X87435136Y-83918620D01*
X87428299Y-83842389D01*
X87463241Y-83755285D01*
X87541265Y-83651024D01*
X87556413Y-83633908D01*
X87629518Y-83556947D01*
X87684035Y-83512685D01*
X87731756Y-83493109D01*
X87768427Y-83489800D01*
X87807161Y-83491607D01*
X87841798Y-83500716D01*
X87879310Y-83522661D01*
X87926669Y-83562973D01*
X87990848Y-83627184D01*
X88078819Y-83720827D01*
X88131790Y-83778123D01*
X88228315Y-83888318D01*
X88288266Y-83973826D01*
X88313877Y-84042742D01*
X88307383Y-84103160D01*
X88271016Y-84163173D01*
X88245950Y-84191726D01*
X88175384Y-84267543D01*
X88137473Y-84319421D01*
X88132349Y-84361744D01*
X88160147Y-84408896D01*
X88220997Y-84475262D01*
X88248838Y-84504338D01*
X88392000Y-84654428D01*
X88392000Y-85685830D01*
X88392310Y-85953768D01*
X88393339Y-86175450D01*
X88395232Y-86355417D01*
X88398136Y-86498210D01*
X88402196Y-86608369D01*
X88407560Y-86690436D01*
X88414373Y-86748950D01*
X88422781Y-86788454D01*
X88427979Y-86803343D01*
X88442202Y-86831147D01*
X88465448Y-86864818D01*
X88501278Y-86907997D01*
X88553255Y-86964324D01*
X88624938Y-87037442D01*
X88719892Y-87130991D01*
X88841676Y-87248612D01*
X88993852Y-87393946D01*
X89159915Y-87551617D01*
X89331800Y-87714534D01*
X89331800Y-84628203D01*
X89331824Y-84167594D01*
X89331922Y-83755092D01*
X89332136Y-83388008D01*
X89332504Y-83063651D01*
X89333067Y-82779327D01*
X89333864Y-82532347D01*
X89334936Y-82320019D01*
X89336322Y-82139652D01*
X89338063Y-81988554D01*
X89340198Y-81864034D01*
X89342768Y-81763400D01*
X89345812Y-81683962D01*
X89349370Y-81623028D01*
X89353483Y-81577906D01*
X89358190Y-81545906D01*
X89363531Y-81524335D01*
X89369546Y-81510503D01*
X89376275Y-81501719D01*
X89378250Y-81499836D01*
X89416520Y-81469867D01*
X89454572Y-81454308D01*
X89497192Y-81456152D01*
X89497192Y-81456152D01*
G37*
X89497192Y-81456152D02*
X89549167Y-81478391D01*
X89615283Y-81524018D01*
X89700327Y-81596024D01*
X89809085Y-81697403D01*
X89946345Y-81831145D01*
X90011890Y-81895949D01*
X90136017Y-82020394D01*
X90248581Y-82135952D01*
X90344288Y-82236966D01*
X90417841Y-82317782D01*
X90463945Y-82372744D01*
X90476999Y-82392677D01*
X90486311Y-82439114D01*
X90475267Y-82490222D01*
X90439845Y-82552189D01*
X90376022Y-82631201D01*
X90279775Y-82733447D01*
X90209931Y-82803439D01*
X89992200Y-83018778D01*
X89992200Y-84690829D01*
X89992238Y-85023011D01*
X89992422Y-85307929D01*
X89992853Y-85549116D01*
X89993633Y-85750109D01*
X89994863Y-85914443D01*
X89996645Y-86045653D01*
X89999082Y-86147273D01*
X90002274Y-86222840D01*
X90006324Y-86275887D01*
X90011333Y-86309951D01*
X90017403Y-86328567D01*
X90024636Y-86335269D01*
X90033134Y-86333593D01*
X90039377Y-86329690D01*
X90086571Y-86291446D01*
X90159920Y-86225942D01*
X90252751Y-86139704D01*
X90358391Y-86039263D01*
X90470168Y-85931146D01*
X90581408Y-85821882D01*
X90685438Y-85718000D01*
X90775586Y-85626027D01*
X90845179Y-85552494D01*
X90887543Y-85503927D01*
X90896294Y-85491311D01*
X90907873Y-85458080D01*
X90916823Y-85404555D01*
X90923420Y-85325150D01*
X90927944Y-85214277D01*
X90930670Y-85066352D01*
X90931878Y-84875787D01*
X90932000Y-84772606D01*
X90932102Y-84574312D01*
X90932759Y-84420515D01*
X90934493Y-84304915D01*
X90937826Y-84221210D01*
X90943281Y-84163098D01*
X90951381Y-84124277D01*
X90962647Y-84098445D01*
X90977604Y-84079301D01*
X90990559Y-84066495D01*
X91029627Y-84028985D01*
X91096902Y-83964235D01*
X91184040Y-83880283D01*
X91282694Y-83785169D01*
X91318999Y-83750149D01*
X91442622Y-83633049D01*
X91538780Y-83550992D01*
X91615457Y-83502630D01*
X91680633Y-83486617D01*
X91742292Y-83501605D01*
X91808415Y-83546248D01*
X91886984Y-83619198D01*
X91916983Y-83649233D01*
X92003001Y-83740035D01*
X92056817Y-83813087D01*
X92077251Y-83877276D01*
X92063127Y-83941488D01*
X92013265Y-84014609D01*
X91926488Y-84105525D01*
X91846400Y-84181480D01*
X91617800Y-84394792D01*
X91617424Y-84888446D01*
X91615049Y-85131740D01*
X91606090Y-85332976D01*
X91587185Y-85500791D01*
X91554974Y-85643824D01*
X91506096Y-85770715D01*
X91437191Y-85890101D01*
X91344897Y-86010622D01*
X91225853Y-86140916D01*
X91076698Y-86289622D01*
X91069622Y-86296500D01*
X90930968Y-86430248D01*
X90775359Y-86578870D01*
X90618057Y-86727879D01*
X90474322Y-86862787D01*
X90414069Y-86918800D01*
X90275812Y-87050864D01*
X90165260Y-87165009D01*
X90086597Y-87256695D01*
X90045359Y-87318573D01*
X90031477Y-87348630D01*
X90020245Y-87380450D01*
X90011384Y-87419482D01*
X90004614Y-87471174D01*
X89999653Y-87540974D01*
X89996223Y-87634330D01*
X89994043Y-87756691D01*
X89992832Y-87913503D01*
X89992311Y-88110216D01*
X89992200Y-88352277D01*
X89992200Y-89278622D01*
X90110826Y-89331097D01*
X90287002Y-89434729D01*
X90443254Y-89576472D01*
X90569746Y-89745257D01*
X90656645Y-89930014D01*
X90664361Y-89954100D01*
X90689623Y-90081541D01*
X90700807Y-90236520D01*
X90697913Y-90397763D01*
X90680941Y-90543996D01*
X90664361Y-90614500D01*
X90582263Y-90802280D01*
X90458708Y-90973931D01*
X90302586Y-91120080D01*
X90122790Y-91231352D01*
X90049402Y-91262809D01*
X89889465Y-91306241D01*
X89710745Y-91327508D01*
X89534417Y-91325407D01*
X89387614Y-91300447D01*
X89172481Y-91215637D01*
X88987490Y-91091810D01*
X88836411Y-90931651D01*
X88803305Y-90884621D01*
X88727117Y-90759865D01*
X88677479Y-90649515D01*
X88647567Y-90533128D01*
X88630557Y-90390257D01*
X88628362Y-90360500D01*
X88634916Y-90124364D01*
X88686543Y-89906011D01*
X88780692Y-89709868D01*
X88914811Y-89540363D01*
X89086349Y-89401920D01*
X89223850Y-89327428D01*
X89331800Y-89278622D01*
X89331800Y-89041686D01*
X89329990Y-88926084D01*
X89325158Y-88820217D01*
X89318199Y-88741150D01*
X89314970Y-88720603D01*
X89306676Y-88691093D01*
X89291213Y-88658840D01*
X89265086Y-88620162D01*
X89224802Y-88571375D01*
X89166867Y-88508795D01*
X89087789Y-88428740D01*
X88984074Y-88327525D01*
X88852227Y-88201469D01*
X88688757Y-88046886D01*
X88569667Y-87934800D01*
X88400103Y-87774930D01*
X88263334Y-87644467D01*
X88154816Y-87538370D01*
X88070008Y-87451595D01*
X88004370Y-87379102D01*
X87953359Y-87315848D01*
X87912434Y-87256791D01*
X87877054Y-87196889D01*
X87842677Y-87131101D01*
X87838815Y-87123393D01*
X87744300Y-86934287D01*
X87718900Y-84842963D01*
X87522050Y-84632973D01*
X87420845Y-84520358D01*
X87356100Y-84432759D01*
X87326177Y-84361583D01*
X87329442Y-84298237D01*
X87364260Y-84234130D01*
X87428995Y-84160668D01*
X87431648Y-84157959D01*
X87538097Y-84049496D01*
X87482448Y-83990261D01*
X87435136Y-83918620D01*
X87428299Y-83842389D01*
X87463241Y-83755285D01*
X87541265Y-83651024D01*
X87556413Y-83633908D01*
X87629518Y-83556947D01*
X87684035Y-83512685D01*
X87731756Y-83493109D01*
X87768427Y-83489800D01*
X87807161Y-83491607D01*
X87841798Y-83500716D01*
X87879310Y-83522661D01*
X87926669Y-83562973D01*
X87990848Y-83627184D01*
X88078819Y-83720827D01*
X88131790Y-83778123D01*
X88228315Y-83888318D01*
X88288266Y-83973826D01*
X88313877Y-84042742D01*
X88307383Y-84103160D01*
X88271016Y-84163173D01*
X88245950Y-84191726D01*
X88175384Y-84267543D01*
X88137473Y-84319421D01*
X88132349Y-84361744D01*
X88160147Y-84408896D01*
X88220997Y-84475262D01*
X88248838Y-84504338D01*
X88392000Y-84654428D01*
X88392000Y-85685830D01*
X88392310Y-85953768D01*
X88393339Y-86175450D01*
X88395232Y-86355417D01*
X88398136Y-86498210D01*
X88402196Y-86608369D01*
X88407560Y-86690436D01*
X88414373Y-86748950D01*
X88422781Y-86788454D01*
X88427979Y-86803343D01*
X88442202Y-86831147D01*
X88465448Y-86864818D01*
X88501278Y-86907997D01*
X88553255Y-86964324D01*
X88624938Y-87037442D01*
X88719892Y-87130991D01*
X88841676Y-87248612D01*
X88993852Y-87393946D01*
X89159915Y-87551617D01*
X89331800Y-87714534D01*
X89331800Y-84628203D01*
X89331824Y-84167594D01*
X89331922Y-83755092D01*
X89332136Y-83388008D01*
X89332504Y-83063651D01*
X89333067Y-82779327D01*
X89333864Y-82532347D01*
X89334936Y-82320019D01*
X89336322Y-82139652D01*
X89338063Y-81988554D01*
X89340198Y-81864034D01*
X89342768Y-81763400D01*
X89345812Y-81683962D01*
X89349370Y-81623028D01*
X89353483Y-81577906D01*
X89358190Y-81545906D01*
X89363531Y-81524335D01*
X89369546Y-81510503D01*
X89376275Y-81501719D01*
X89378250Y-81499836D01*
X89416520Y-81469867D01*
X89454572Y-81454308D01*
X89497192Y-81456152D01*
D11*
G36*
X83097468Y-90439565D02*
G01*
X83136138Y-90451296D01*
X83171777Y-90470346D01*
X83203017Y-90495983D01*
X83228654Y-90527223D01*
X83247704Y-90562862D01*
X83259435Y-90601532D01*
X83264000Y-90647888D01*
X83264000Y-91724112D01*
X83259435Y-91770468D01*
X83247704Y-91809138D01*
X83228654Y-91844777D01*
X83203017Y-91876017D01*
X83171777Y-91901654D01*
X83136138Y-91920704D01*
X83097468Y-91932435D01*
X83051112Y-91937000D01*
X82399888Y-91937000D01*
X82353532Y-91932435D01*
X82314862Y-91920704D01*
X82279223Y-91901654D01*
X82247983Y-91876017D01*
X82222346Y-91844777D01*
X82203296Y-91809138D01*
X82191565Y-91770468D01*
X82187000Y-91724112D01*
X82187000Y-90647888D01*
X82191565Y-90601532D01*
X82203296Y-90562862D01*
X82222346Y-90527223D01*
X82247983Y-90495983D01*
X82279223Y-90470346D01*
X82314862Y-90451296D01*
X82353532Y-90439565D01*
X82399888Y-90435000D01*
X83051112Y-90435000D01*
X83097468Y-90439565D01*
X83097468Y-90439565D01*
G37*
G36*
X81222468Y-90439565D02*
G01*
X81261138Y-90451296D01*
X81296777Y-90470346D01*
X81328017Y-90495983D01*
X81353654Y-90527223D01*
X81372704Y-90562862D01*
X81384435Y-90601532D01*
X81389000Y-90647888D01*
X81389000Y-91724112D01*
X81384435Y-91770468D01*
X81372704Y-91809138D01*
X81353654Y-91844777D01*
X81328017Y-91876017D01*
X81296777Y-91901654D01*
X81261138Y-91920704D01*
X81222468Y-91932435D01*
X81176112Y-91937000D01*
X80524888Y-91937000D01*
X80478532Y-91932435D01*
X80439862Y-91920704D01*
X80404223Y-91901654D01*
X80372983Y-91876017D01*
X80347346Y-91844777D01*
X80328296Y-91809138D01*
X80316565Y-91770468D01*
X80312000Y-91724112D01*
X80312000Y-90647888D01*
X80316565Y-90601532D01*
X80328296Y-90562862D01*
X80347346Y-90527223D01*
X80372983Y-90495983D01*
X80404223Y-90470346D01*
X80439862Y-90451296D01*
X80478532Y-90439565D01*
X80524888Y-90435000D01*
X81176112Y-90435000D01*
X81222468Y-90439565D01*
X81222468Y-90439565D01*
G37*
G36*
X86690468Y-90827565D02*
G01*
X86729138Y-90839296D01*
X86764777Y-90858346D01*
X86796017Y-90883983D01*
X86821654Y-90915223D01*
X86840704Y-90950862D01*
X86852435Y-90989532D01*
X86857000Y-91035888D01*
X86857000Y-91687112D01*
X86852435Y-91733468D01*
X86840704Y-91772138D01*
X86821654Y-91807777D01*
X86796017Y-91839017D01*
X86764777Y-91864654D01*
X86729138Y-91883704D01*
X86690468Y-91895435D01*
X86644112Y-91900000D01*
X85567888Y-91900000D01*
X85521532Y-91895435D01*
X85482862Y-91883704D01*
X85447223Y-91864654D01*
X85415983Y-91839017D01*
X85390346Y-91807777D01*
X85371296Y-91772138D01*
X85359565Y-91733468D01*
X85355000Y-91687112D01*
X85355000Y-91035888D01*
X85359565Y-90989532D01*
X85371296Y-90950862D01*
X85390346Y-90915223D01*
X85415983Y-90883983D01*
X85447223Y-90858346D01*
X85482862Y-90839296D01*
X85521532Y-90827565D01*
X85567888Y-90823000D01*
X86644112Y-90823000D01*
X86690468Y-90827565D01*
X86690468Y-90827565D01*
G37*
G36*
X65974000Y-91425000D02*
G01*
X57872000Y-91425000D01*
X57872000Y-89423000D01*
X65974000Y-89423000D01*
X65974000Y-91425000D01*
X65974000Y-91425000D01*
G37*
G36*
X72332468Y-89423565D02*
G01*
X72371138Y-89435296D01*
X72406777Y-89454346D01*
X72438017Y-89479983D01*
X72463654Y-89511223D01*
X72482704Y-89546862D01*
X72494435Y-89585532D01*
X72499000Y-89631888D01*
X72499000Y-90708112D01*
X72494435Y-90754468D01*
X72482704Y-90793138D01*
X72463654Y-90828777D01*
X72438017Y-90860017D01*
X72406777Y-90885654D01*
X72371138Y-90904704D01*
X72332468Y-90916435D01*
X72286112Y-90921000D01*
X71634888Y-90921000D01*
X71588532Y-90916435D01*
X71549862Y-90904704D01*
X71514223Y-90885654D01*
X71482983Y-90860017D01*
X71457346Y-90828777D01*
X71438296Y-90793138D01*
X71426565Y-90754468D01*
X71422000Y-90708112D01*
X71422000Y-89631888D01*
X71426565Y-89585532D01*
X71438296Y-89546862D01*
X71457346Y-89511223D01*
X71482983Y-89479983D01*
X71514223Y-89454346D01*
X71549862Y-89435296D01*
X71588532Y-89423565D01*
X71634888Y-89419000D01*
X72286112Y-89419000D01*
X72332468Y-89423565D01*
X72332468Y-89423565D01*
G37*
G36*
X74207468Y-89423565D02*
G01*
X74246138Y-89435296D01*
X74281777Y-89454346D01*
X74313017Y-89479983D01*
X74338654Y-89511223D01*
X74357704Y-89546862D01*
X74369435Y-89585532D01*
X74374000Y-89631888D01*
X74374000Y-90708112D01*
X74369435Y-90754468D01*
X74357704Y-90793138D01*
X74338654Y-90828777D01*
X74313017Y-90860017D01*
X74281777Y-90885654D01*
X74246138Y-90904704D01*
X74207468Y-90916435D01*
X74161112Y-90921000D01*
X73509888Y-90921000D01*
X73463532Y-90916435D01*
X73424862Y-90904704D01*
X73389223Y-90885654D01*
X73357983Y-90860017D01*
X73332346Y-90828777D01*
X73313296Y-90793138D01*
X73301565Y-90754468D01*
X73297000Y-90708112D01*
X73297000Y-89631888D01*
X73301565Y-89585532D01*
X73313296Y-89546862D01*
X73332346Y-89511223D01*
X73357983Y-89479983D01*
X73389223Y-89454346D01*
X73424862Y-89435296D01*
X73463532Y-89423565D01*
X73509888Y-89419000D01*
X74161112Y-89419000D01*
X74207468Y-89423565D01*
X74207468Y-89423565D01*
G37*
G36*
X86690468Y-88952565D02*
G01*
X86729138Y-88964296D01*
X86764777Y-88983346D01*
X86796017Y-89008983D01*
X86821654Y-89040223D01*
X86840704Y-89075862D01*
X86852435Y-89114532D01*
X86857000Y-89160888D01*
X86857000Y-89812112D01*
X86852435Y-89858468D01*
X86840704Y-89897138D01*
X86821654Y-89932777D01*
X86796017Y-89964017D01*
X86764777Y-89989654D01*
X86729138Y-90008704D01*
X86690468Y-90020435D01*
X86644112Y-90025000D01*
X85567888Y-90025000D01*
X85521532Y-90020435D01*
X85482862Y-90008704D01*
X85447223Y-89989654D01*
X85415983Y-89964017D01*
X85390346Y-89932777D01*
X85371296Y-89897138D01*
X85359565Y-89858468D01*
X85355000Y-89812112D01*
X85355000Y-89160888D01*
X85359565Y-89114532D01*
X85371296Y-89075862D01*
X85390346Y-89040223D01*
X85415983Y-89008983D01*
X85447223Y-88983346D01*
X85482862Y-88964296D01*
X85521532Y-88952565D01*
X85567888Y-88948000D01*
X86644112Y-88948000D01*
X86690468Y-88952565D01*
X86690468Y-88952565D01*
G37*
G36*
X78723928Y-88678764D02*
G01*
X78745009Y-88685160D01*
X78764445Y-88695548D01*
X78781476Y-88709524D01*
X78795452Y-88726555D01*
X78805840Y-88745991D01*
X78812236Y-88767072D01*
X78815000Y-88795140D01*
X78815000Y-89258860D01*
X78812236Y-89286928D01*
X78805840Y-89308009D01*
X78795452Y-89327445D01*
X78781476Y-89344476D01*
X78764445Y-89358452D01*
X78745009Y-89368840D01*
X78723928Y-89375236D01*
X78695860Y-89378000D01*
X76882140Y-89378000D01*
X76854072Y-89375236D01*
X76832991Y-89368840D01*
X76813555Y-89358452D01*
X76796524Y-89344476D01*
X76782548Y-89327445D01*
X76772160Y-89308009D01*
X76765764Y-89286928D01*
X76763000Y-89258860D01*
X76763000Y-88795140D01*
X76765764Y-88767072D01*
X76772160Y-88745991D01*
X76782548Y-88726555D01*
X76796524Y-88709524D01*
X76813555Y-88695548D01*
X76832991Y-88685160D01*
X76854072Y-88678764D01*
X76882140Y-88676000D01*
X78695860Y-88676000D01*
X78723928Y-88678764D01*
X78723928Y-88678764D01*
G37*
G36*
X83673928Y-88678764D02*
G01*
X83695009Y-88685160D01*
X83714445Y-88695548D01*
X83731476Y-88709524D01*
X83745452Y-88726555D01*
X83755840Y-88745991D01*
X83762236Y-88767072D01*
X83765000Y-88795140D01*
X83765000Y-89258860D01*
X83762236Y-89286928D01*
X83755840Y-89308009D01*
X83745452Y-89327445D01*
X83731476Y-89344476D01*
X83714445Y-89358452D01*
X83695009Y-89368840D01*
X83673928Y-89375236D01*
X83645860Y-89378000D01*
X81832140Y-89378000D01*
X81804072Y-89375236D01*
X81782991Y-89368840D01*
X81763555Y-89358452D01*
X81746524Y-89344476D01*
X81732548Y-89327445D01*
X81722160Y-89308009D01*
X81715764Y-89286928D01*
X81713000Y-89258860D01*
X81713000Y-88795140D01*
X81715764Y-88767072D01*
X81722160Y-88745991D01*
X81732548Y-88726555D01*
X81746524Y-88709524D01*
X81763555Y-88695548D01*
X81782991Y-88685160D01*
X81804072Y-88678764D01*
X81832140Y-88676000D01*
X83645860Y-88676000D01*
X83673928Y-88678764D01*
X83673928Y-88678764D01*
G37*
G36*
X65974000Y-88965000D02*
G01*
X58372000Y-88965000D01*
X58372000Y-86863000D01*
X65974000Y-86863000D01*
X65974000Y-88965000D01*
X65974000Y-88965000D01*
G37*
G36*
X78723928Y-87408764D02*
G01*
X78745009Y-87415160D01*
X78764445Y-87425548D01*
X78781476Y-87439524D01*
X78795452Y-87456555D01*
X78805840Y-87475991D01*
X78812236Y-87497072D01*
X78815000Y-87525140D01*
X78815000Y-87988860D01*
X78812236Y-88016928D01*
X78805840Y-88038009D01*
X78795452Y-88057445D01*
X78781476Y-88074476D01*
X78764445Y-88088452D01*
X78745009Y-88098840D01*
X78723928Y-88105236D01*
X78695860Y-88108000D01*
X76882140Y-88108000D01*
X76854072Y-88105236D01*
X76832991Y-88098840D01*
X76813555Y-88088452D01*
X76796524Y-88074476D01*
X76782548Y-88057445D01*
X76772160Y-88038009D01*
X76765764Y-88016928D01*
X76763000Y-87988860D01*
X76763000Y-87525140D01*
X76765764Y-87497072D01*
X76772160Y-87475991D01*
X76782548Y-87456555D01*
X76796524Y-87439524D01*
X76813555Y-87425548D01*
X76832991Y-87415160D01*
X76854072Y-87408764D01*
X76882140Y-87406000D01*
X78695860Y-87406000D01*
X78723928Y-87408764D01*
X78723928Y-87408764D01*
G37*
G36*
X83673928Y-87408764D02*
G01*
X83695009Y-87415160D01*
X83714445Y-87425548D01*
X83731476Y-87439524D01*
X83745452Y-87456555D01*
X83755840Y-87475991D01*
X83762236Y-87497072D01*
X83765000Y-87525140D01*
X83765000Y-87988860D01*
X83762236Y-88016928D01*
X83755840Y-88038009D01*
X83745452Y-88057445D01*
X83731476Y-88074476D01*
X83714445Y-88088452D01*
X83695009Y-88098840D01*
X83673928Y-88105236D01*
X83645860Y-88108000D01*
X81832140Y-88108000D01*
X81804072Y-88105236D01*
X81782991Y-88098840D01*
X81763555Y-88088452D01*
X81746524Y-88074476D01*
X81732548Y-88057445D01*
X81722160Y-88038009D01*
X81715764Y-88016928D01*
X81713000Y-87988860D01*
X81713000Y-87525140D01*
X81715764Y-87497072D01*
X81722160Y-87475991D01*
X81732548Y-87456555D01*
X81746524Y-87439524D01*
X81763555Y-87425548D01*
X81782991Y-87415160D01*
X81804072Y-87408764D01*
X81832140Y-87406000D01*
X83645860Y-87406000D01*
X83673928Y-87408764D01*
X83673928Y-87408764D01*
G37*
G36*
X71573500Y-88015000D02*
G01*
X70571500Y-88015000D01*
X70571500Y-87113000D01*
X71573500Y-87113000D01*
X71573500Y-88015000D01*
X71573500Y-88015000D01*
G37*
G36*
X86690468Y-86763565D02*
G01*
X86729138Y-86775296D01*
X86764777Y-86794346D01*
X86796017Y-86819983D01*
X86821654Y-86851223D01*
X86840704Y-86886862D01*
X86852435Y-86925532D01*
X86857000Y-86971888D01*
X86857000Y-87623112D01*
X86852435Y-87669468D01*
X86840704Y-87708138D01*
X86821654Y-87743777D01*
X86796017Y-87775017D01*
X86764777Y-87800654D01*
X86729138Y-87819704D01*
X86690468Y-87831435D01*
X86644112Y-87836000D01*
X85567888Y-87836000D01*
X85521532Y-87831435D01*
X85482862Y-87819704D01*
X85447223Y-87800654D01*
X85415983Y-87775017D01*
X85390346Y-87743777D01*
X85371296Y-87708138D01*
X85359565Y-87669468D01*
X85355000Y-87623112D01*
X85355000Y-86971888D01*
X85359565Y-86925532D01*
X85371296Y-86886862D01*
X85390346Y-86851223D01*
X85415983Y-86819983D01*
X85447223Y-86794346D01*
X85482862Y-86775296D01*
X85521532Y-86763565D01*
X85567888Y-86759000D01*
X86644112Y-86759000D01*
X86690468Y-86763565D01*
X86690468Y-86763565D01*
G37*
G36*
X73573500Y-87065000D02*
G01*
X72571500Y-87065000D01*
X72571500Y-86163000D01*
X73573500Y-86163000D01*
X73573500Y-87065000D01*
X73573500Y-87065000D01*
G37*
G36*
X83673928Y-86138764D02*
G01*
X83695009Y-86145160D01*
X83714445Y-86155548D01*
X83731476Y-86169524D01*
X83745452Y-86186555D01*
X83755840Y-86205991D01*
X83762236Y-86227072D01*
X83765000Y-86255140D01*
X83765000Y-86718860D01*
X83762236Y-86746928D01*
X83755840Y-86768009D01*
X83745452Y-86787445D01*
X83731476Y-86804476D01*
X83714445Y-86818452D01*
X83695009Y-86828840D01*
X83673928Y-86835236D01*
X83645860Y-86838000D01*
X81832140Y-86838000D01*
X81804072Y-86835236D01*
X81782991Y-86828840D01*
X81763555Y-86818452D01*
X81746524Y-86804476D01*
X81732548Y-86787445D01*
X81722160Y-86768009D01*
X81715764Y-86746928D01*
X81713000Y-86718860D01*
X81713000Y-86255140D01*
X81715764Y-86227072D01*
X81722160Y-86205991D01*
X81732548Y-86186555D01*
X81746524Y-86169524D01*
X81763555Y-86155548D01*
X81782991Y-86145160D01*
X81804072Y-86138764D01*
X81832140Y-86136000D01*
X83645860Y-86136000D01*
X83673928Y-86138764D01*
X83673928Y-86138764D01*
G37*
G36*
X78723928Y-86138764D02*
G01*
X78745009Y-86145160D01*
X78764445Y-86155548D01*
X78781476Y-86169524D01*
X78795452Y-86186555D01*
X78805840Y-86205991D01*
X78812236Y-86227072D01*
X78815000Y-86255140D01*
X78815000Y-86718860D01*
X78812236Y-86746928D01*
X78805840Y-86768009D01*
X78795452Y-86787445D01*
X78781476Y-86804476D01*
X78764445Y-86818452D01*
X78745009Y-86828840D01*
X78723928Y-86835236D01*
X78695860Y-86838000D01*
X76882140Y-86838000D01*
X76854072Y-86835236D01*
X76832991Y-86828840D01*
X76813555Y-86818452D01*
X76796524Y-86804476D01*
X76782548Y-86787445D01*
X76772160Y-86768009D01*
X76765764Y-86746928D01*
X76763000Y-86718860D01*
X76763000Y-86255140D01*
X76765764Y-86227072D01*
X76772160Y-86205991D01*
X76782548Y-86186555D01*
X76796524Y-86169524D01*
X76813555Y-86155548D01*
X76832991Y-86145160D01*
X76854072Y-86138764D01*
X76882140Y-86136000D01*
X78695860Y-86136000D01*
X78723928Y-86138764D01*
X78723928Y-86138764D01*
G37*
G36*
X65974000Y-86365000D02*
G01*
X58372000Y-86365000D01*
X58372000Y-84263000D01*
X65974000Y-84263000D01*
X65974000Y-86365000D01*
X65974000Y-86365000D01*
G37*
G36*
X71573500Y-86115000D02*
G01*
X70571500Y-86115000D01*
X70571500Y-85213000D01*
X71573500Y-85213000D01*
X71573500Y-86115000D01*
X71573500Y-86115000D01*
G37*
G36*
X86690468Y-84888565D02*
G01*
X86729138Y-84900296D01*
X86764777Y-84919346D01*
X86796017Y-84944983D01*
X86821654Y-84976223D01*
X86840704Y-85011862D01*
X86852435Y-85050532D01*
X86857000Y-85096888D01*
X86857000Y-85748112D01*
X86852435Y-85794468D01*
X86840704Y-85833138D01*
X86821654Y-85868777D01*
X86796017Y-85900017D01*
X86764777Y-85925654D01*
X86729138Y-85944704D01*
X86690468Y-85956435D01*
X86644112Y-85961000D01*
X85567888Y-85961000D01*
X85521532Y-85956435D01*
X85482862Y-85944704D01*
X85447223Y-85925654D01*
X85415983Y-85900017D01*
X85390346Y-85868777D01*
X85371296Y-85833138D01*
X85359565Y-85794468D01*
X85355000Y-85748112D01*
X85355000Y-85096888D01*
X85359565Y-85050532D01*
X85371296Y-85011862D01*
X85390346Y-84976223D01*
X85415983Y-84944983D01*
X85447223Y-84919346D01*
X85482862Y-84900296D01*
X85521532Y-84888565D01*
X85567888Y-84884000D01*
X86644112Y-84884000D01*
X86690468Y-84888565D01*
X86690468Y-84888565D01*
G37*
G36*
X78723928Y-84868764D02*
G01*
X78745009Y-84875160D01*
X78764445Y-84885548D01*
X78781476Y-84899524D01*
X78795452Y-84916555D01*
X78805840Y-84935991D01*
X78812236Y-84957072D01*
X78815000Y-84985140D01*
X78815000Y-85448860D01*
X78812236Y-85476928D01*
X78805840Y-85498009D01*
X78795452Y-85517445D01*
X78781476Y-85534476D01*
X78764445Y-85548452D01*
X78745009Y-85558840D01*
X78723928Y-85565236D01*
X78695860Y-85568000D01*
X76882140Y-85568000D01*
X76854072Y-85565236D01*
X76832991Y-85558840D01*
X76813555Y-85548452D01*
X76796524Y-85534476D01*
X76782548Y-85517445D01*
X76772160Y-85498009D01*
X76765764Y-85476928D01*
X76763000Y-85448860D01*
X76763000Y-84985140D01*
X76765764Y-84957072D01*
X76772160Y-84935991D01*
X76782548Y-84916555D01*
X76796524Y-84899524D01*
X76813555Y-84885548D01*
X76832991Y-84875160D01*
X76854072Y-84868764D01*
X76882140Y-84866000D01*
X78695860Y-84866000D01*
X78723928Y-84868764D01*
X78723928Y-84868764D01*
G37*
G36*
X83673928Y-84868764D02*
G01*
X83695009Y-84875160D01*
X83714445Y-84885548D01*
X83731476Y-84899524D01*
X83745452Y-84916555D01*
X83755840Y-84935991D01*
X83762236Y-84957072D01*
X83765000Y-84985140D01*
X83765000Y-85448860D01*
X83762236Y-85476928D01*
X83755840Y-85498009D01*
X83745452Y-85517445D01*
X83731476Y-85534476D01*
X83714445Y-85548452D01*
X83695009Y-85558840D01*
X83673928Y-85565236D01*
X83645860Y-85568000D01*
X81832140Y-85568000D01*
X81804072Y-85565236D01*
X81782991Y-85558840D01*
X81763555Y-85548452D01*
X81746524Y-85534476D01*
X81732548Y-85517445D01*
X81722160Y-85498009D01*
X81715764Y-85476928D01*
X81713000Y-85448860D01*
X81713000Y-84985140D01*
X81715764Y-84957072D01*
X81722160Y-84935991D01*
X81732548Y-84916555D01*
X81746524Y-84899524D01*
X81763555Y-84885548D01*
X81782991Y-84875160D01*
X81804072Y-84868764D01*
X81832140Y-84866000D01*
X83645860Y-84866000D01*
X83673928Y-84868764D01*
X83673928Y-84868764D01*
G37*
G36*
X76142468Y-82311565D02*
G01*
X76181138Y-82323296D01*
X76216777Y-82342346D01*
X76248017Y-82367983D01*
X76273654Y-82399223D01*
X76292704Y-82434862D01*
X76304435Y-82473532D01*
X76309000Y-82519888D01*
X76309000Y-83596112D01*
X76304435Y-83642468D01*
X76292704Y-83681138D01*
X76273654Y-83716777D01*
X76248017Y-83748017D01*
X76216777Y-83773654D01*
X76181138Y-83792704D01*
X76142468Y-83804435D01*
X76096112Y-83809000D01*
X75444888Y-83809000D01*
X75398532Y-83804435D01*
X75359862Y-83792704D01*
X75324223Y-83773654D01*
X75292983Y-83748017D01*
X75267346Y-83716777D01*
X75248296Y-83681138D01*
X75236565Y-83642468D01*
X75232000Y-83596112D01*
X75232000Y-82519888D01*
X75236565Y-82473532D01*
X75248296Y-82434862D01*
X75267346Y-82399223D01*
X75292983Y-82367983D01*
X75324223Y-82342346D01*
X75359862Y-82323296D01*
X75398532Y-82311565D01*
X75444888Y-82307000D01*
X76096112Y-82307000D01*
X76142468Y-82311565D01*
X76142468Y-82311565D01*
G37*
G36*
X78017468Y-82311565D02*
G01*
X78056138Y-82323296D01*
X78091777Y-82342346D01*
X78123017Y-82367983D01*
X78148654Y-82399223D01*
X78167704Y-82434862D01*
X78179435Y-82473532D01*
X78184000Y-82519888D01*
X78184000Y-83596112D01*
X78179435Y-83642468D01*
X78167704Y-83681138D01*
X78148654Y-83716777D01*
X78123017Y-83748017D01*
X78091777Y-83773654D01*
X78056138Y-83792704D01*
X78017468Y-83804435D01*
X77971112Y-83809000D01*
X77319888Y-83809000D01*
X77273532Y-83804435D01*
X77234862Y-83792704D01*
X77199223Y-83773654D01*
X77167983Y-83748017D01*
X77142346Y-83716777D01*
X77123296Y-83681138D01*
X77111565Y-83642468D01*
X77107000Y-83596112D01*
X77107000Y-82519888D01*
X77111565Y-82473532D01*
X77123296Y-82434862D01*
X77142346Y-82399223D01*
X77167983Y-82367983D01*
X77199223Y-82342346D01*
X77234862Y-82323296D01*
X77273532Y-82311565D01*
X77319888Y-82307000D01*
X77971112Y-82307000D01*
X78017468Y-82311565D01*
X78017468Y-82311565D01*
G37*
G36*
X72332468Y-82311565D02*
G01*
X72371138Y-82323296D01*
X72406777Y-82342346D01*
X72438017Y-82367983D01*
X72463654Y-82399223D01*
X72482704Y-82434862D01*
X72494435Y-82473532D01*
X72499000Y-82519888D01*
X72499000Y-83596112D01*
X72494435Y-83642468D01*
X72482704Y-83681138D01*
X72463654Y-83716777D01*
X72438017Y-83748017D01*
X72406777Y-83773654D01*
X72371138Y-83792704D01*
X72332468Y-83804435D01*
X72286112Y-83809000D01*
X71634888Y-83809000D01*
X71588532Y-83804435D01*
X71549862Y-83792704D01*
X71514223Y-83773654D01*
X71482983Y-83748017D01*
X71457346Y-83716777D01*
X71438296Y-83681138D01*
X71426565Y-83642468D01*
X71422000Y-83596112D01*
X71422000Y-82519888D01*
X71426565Y-82473532D01*
X71438296Y-82434862D01*
X71457346Y-82399223D01*
X71482983Y-82367983D01*
X71514223Y-82342346D01*
X71549862Y-82323296D01*
X71588532Y-82311565D01*
X71634888Y-82307000D01*
X72286112Y-82307000D01*
X72332468Y-82311565D01*
X72332468Y-82311565D01*
G37*
G36*
X84016468Y-82311565D02*
G01*
X84055138Y-82323296D01*
X84090777Y-82342346D01*
X84122017Y-82367983D01*
X84147654Y-82399223D01*
X84166704Y-82434862D01*
X84178435Y-82473532D01*
X84183000Y-82519888D01*
X84183000Y-83596112D01*
X84178435Y-83642468D01*
X84166704Y-83681138D01*
X84147654Y-83716777D01*
X84122017Y-83748017D01*
X84090777Y-83773654D01*
X84055138Y-83792704D01*
X84016468Y-83804435D01*
X83970112Y-83809000D01*
X83318888Y-83809000D01*
X83272532Y-83804435D01*
X83233862Y-83792704D01*
X83198223Y-83773654D01*
X83166983Y-83748017D01*
X83141346Y-83716777D01*
X83122296Y-83681138D01*
X83110565Y-83642468D01*
X83106000Y-83596112D01*
X83106000Y-82519888D01*
X83110565Y-82473532D01*
X83122296Y-82434862D01*
X83141346Y-82399223D01*
X83166983Y-82367983D01*
X83198223Y-82342346D01*
X83233862Y-82323296D01*
X83272532Y-82311565D01*
X83318888Y-82307000D01*
X83970112Y-82307000D01*
X84016468Y-82311565D01*
X84016468Y-82311565D01*
G37*
G36*
X85891468Y-82311565D02*
G01*
X85930138Y-82323296D01*
X85965777Y-82342346D01*
X85997017Y-82367983D01*
X86022654Y-82399223D01*
X86041704Y-82434862D01*
X86053435Y-82473532D01*
X86058000Y-82519888D01*
X86058000Y-83596112D01*
X86053435Y-83642468D01*
X86041704Y-83681138D01*
X86022654Y-83716777D01*
X85997017Y-83748017D01*
X85965777Y-83773654D01*
X85930138Y-83792704D01*
X85891468Y-83804435D01*
X85845112Y-83809000D01*
X85193888Y-83809000D01*
X85147532Y-83804435D01*
X85108862Y-83792704D01*
X85073223Y-83773654D01*
X85041983Y-83748017D01*
X85016346Y-83716777D01*
X84997296Y-83681138D01*
X84985565Y-83642468D01*
X84981000Y-83596112D01*
X84981000Y-82519888D01*
X84985565Y-82473532D01*
X84997296Y-82434862D01*
X85016346Y-82399223D01*
X85041983Y-82367983D01*
X85073223Y-82342346D01*
X85108862Y-82323296D01*
X85147532Y-82311565D01*
X85193888Y-82307000D01*
X85845112Y-82307000D01*
X85891468Y-82311565D01*
X85891468Y-82311565D01*
G37*
G36*
X82081468Y-82311565D02*
G01*
X82120138Y-82323296D01*
X82155777Y-82342346D01*
X82187017Y-82367983D01*
X82212654Y-82399223D01*
X82231704Y-82434862D01*
X82243435Y-82473532D01*
X82248000Y-82519888D01*
X82248000Y-83596112D01*
X82243435Y-83642468D01*
X82231704Y-83681138D01*
X82212654Y-83716777D01*
X82187017Y-83748017D01*
X82155777Y-83773654D01*
X82120138Y-83792704D01*
X82081468Y-83804435D01*
X82035112Y-83809000D01*
X81383888Y-83809000D01*
X81337532Y-83804435D01*
X81298862Y-83792704D01*
X81263223Y-83773654D01*
X81231983Y-83748017D01*
X81206346Y-83716777D01*
X81187296Y-83681138D01*
X81175565Y-83642468D01*
X81171000Y-83596112D01*
X81171000Y-82519888D01*
X81175565Y-82473532D01*
X81187296Y-82434862D01*
X81206346Y-82399223D01*
X81231983Y-82367983D01*
X81263223Y-82342346D01*
X81298862Y-82323296D01*
X81337532Y-82311565D01*
X81383888Y-82307000D01*
X82035112Y-82307000D01*
X82081468Y-82311565D01*
X82081468Y-82311565D01*
G37*
G36*
X74207468Y-82311565D02*
G01*
X74246138Y-82323296D01*
X74281777Y-82342346D01*
X74313017Y-82367983D01*
X74338654Y-82399223D01*
X74357704Y-82434862D01*
X74369435Y-82473532D01*
X74374000Y-82519888D01*
X74374000Y-83596112D01*
X74369435Y-83642468D01*
X74357704Y-83681138D01*
X74338654Y-83716777D01*
X74313017Y-83748017D01*
X74281777Y-83773654D01*
X74246138Y-83792704D01*
X74207468Y-83804435D01*
X74161112Y-83809000D01*
X73509888Y-83809000D01*
X73463532Y-83804435D01*
X73424862Y-83792704D01*
X73389223Y-83773654D01*
X73357983Y-83748017D01*
X73332346Y-83716777D01*
X73313296Y-83681138D01*
X73301565Y-83642468D01*
X73297000Y-83596112D01*
X73297000Y-82519888D01*
X73301565Y-82473532D01*
X73313296Y-82434862D01*
X73332346Y-82399223D01*
X73357983Y-82367983D01*
X73389223Y-82342346D01*
X73424862Y-82323296D01*
X73463532Y-82311565D01*
X73509888Y-82307000D01*
X74161112Y-82307000D01*
X74207468Y-82311565D01*
X74207468Y-82311565D01*
G37*
G36*
X80206468Y-82311565D02*
G01*
X80245138Y-82323296D01*
X80280777Y-82342346D01*
X80312017Y-82367983D01*
X80337654Y-82399223D01*
X80356704Y-82434862D01*
X80368435Y-82473532D01*
X80373000Y-82519888D01*
X80373000Y-83596112D01*
X80368435Y-83642468D01*
X80356704Y-83681138D01*
X80337654Y-83716777D01*
X80312017Y-83748017D01*
X80280777Y-83773654D01*
X80245138Y-83792704D01*
X80206468Y-83804435D01*
X80160112Y-83809000D01*
X79508888Y-83809000D01*
X79462532Y-83804435D01*
X79423862Y-83792704D01*
X79388223Y-83773654D01*
X79356983Y-83748017D01*
X79331346Y-83716777D01*
X79312296Y-83681138D01*
X79300565Y-83642468D01*
X79296000Y-83596112D01*
X79296000Y-82519888D01*
X79300565Y-82473532D01*
X79312296Y-82434862D01*
X79331346Y-82399223D01*
X79356983Y-82367983D01*
X79388223Y-82342346D01*
X79423862Y-82323296D01*
X79462532Y-82311565D01*
X79508888Y-82307000D01*
X80160112Y-82307000D01*
X80206468Y-82311565D01*
X80206468Y-82311565D01*
G37*
G36*
X65974000Y-83805000D02*
G01*
X57872000Y-83805000D01*
X57872000Y-81803000D01*
X65974000Y-81803000D01*
X65974000Y-83805000D01*
X65974000Y-83805000D01*
G37*
M02*
